<svg width="880" height="38" viewBox="0 0 880 38" fill="none" xmlns="http://www.w3.org/2000/svg">
<path d="M7.88 18.52C6 19.38 3.78 20.06 1.22 20.58L1.4 22C3.84 21.48 6 20.76 7.88 19.88V18.52ZM4.74 4.68C3.86 6.96 2.84 8.96 1.66 10.72C1.46 11 1.26 11.18 1.04 11.26L1.4 12.6C2.6 12.44 3.76 12.28 4.92 12.1C3.78 13.96 2.82 15.28 2.02 16.06C1.84 16.22 1.62 16.36 1.36 16.48L1.74 17.82C3.74 17.54 5.82 17 8 16.22V14.9C6.52 15.46 5.04 15.9 3.56 16.22C4.82 14.76 6.4 12.32 8.32 8.88L7.02 8.38C6.56 9.24 6.12 10.04 5.7 10.78C4.74 10.94 3.8 11.08 2.84 11.16C3.94 9.68 5.02 7.7 6.1 5.22L4.74 4.68ZM17.4 5.6H9.28V20.9H7.54V22.3H19.1V20.9H17.4V5.6ZM10.7 20.9V17.1H15.98V20.9H10.7ZM10.7 15.74V11.96H15.98V15.74H10.7ZM10.7 10.6V6.98H15.98V10.6H10.7ZM25.24 4.54C24.28 7.66 22.76 10.44 20.64 12.84L21.1 14.38C21.86 13.58 22.56 12.74 23.2 11.86V23.02H24.62V9.66C25.42 8.24 26.08 6.74 26.6 5.16L25.24 4.54ZM28.6 5.86C28.16 8.52 27.34 10.78 26.12 12.62L27.04 13.82C27.78 12.78 28.4 11.6 28.9 10.28H32.3V15.1H26.42V16.48H32.3V22.92H33.74V16.48H39.08V15.1H33.74V10.28H38.34V8.88H33.74V4.72H32.3V8.88H29.36C29.64 8 29.86 7.04 30.02 6.04L28.6 5.86Z" fill="#1D2129"/>
<path d="M58.2 6.44C56.58 6.44 55.3 7.18 54.36 8.68C53.46 10.1 53.02 11.96 53.02 14.24C53.02 16.42 53.42 18.12 54.26 19.34C55.14 20.62 56.44 21.28 58.18 21.28C59.58 21.28 60.72 20.8 61.64 19.88C62.54 18.96 63 17.78 63 16.38C63 14.98 62.58 13.86 61.76 12.98C60.92 12.1 59.82 11.66 58.46 11.66C57.62 11.66 56.88 11.86 56.24 12.28C55.56 12.68 55.06 13.26 54.7 14H54.62C54.6 13.74 54.6 13.56 54.6 13.48C54.6 11.86 54.9 10.52 55.54 9.48C56.18 8.36 57.06 7.82 58.18 7.82C59.84 7.82 60.82 8.62 61.14 10.26H62.76C62.36 7.7 60.84 6.44 58.2 6.44ZM58.14 13.02C59.12 13.02 59.9 13.32 60.5 13.96C61.08 14.56 61.38 15.36 61.38 16.38C61.38 17.4 61.08 18.24 60.48 18.92C59.88 19.56 59.1 19.9 58.14 19.9C57.14 19.9 56.36 19.56 55.76 18.88C55.16 18.24 54.88 17.42 54.88 16.42C54.88 15.42 55.18 14.62 55.8 13.98C56.42 13.34 57.2 13.02 58.14 13.02ZM70.1922 6.44C68.5722 6.44 67.2922 7.18 66.3522 8.68C65.4522 10.1 65.0122 11.96 65.0122 14.24C65.0122 16.42 65.4122 18.12 66.2522 19.34C67.1322 20.62 68.4322 21.28 70.1722 21.28C71.5722 21.28 72.7122 20.8 73.6322 19.88C74.5322 18.96 74.9922 17.78 74.9922 16.38C74.9922 14.98 74.5722 13.86 73.7522 12.98C72.9122 12.1 71.8122 11.66 70.4522 11.66C69.6122 11.66 68.8722 11.86 68.2322 12.28C67.5522 12.68 67.0522 13.26 66.6922 14H66.6122C66.5922 13.74 66.5922 13.56 66.5922 13.48C66.5922 11.86 66.8922 10.52 67.5322 9.48C68.1722 8.36 69.0522 7.82 70.1722 7.82C71.8322 7.82 72.8122 8.62 73.1322 10.26H74.7522C74.3522 7.7 72.8322 6.44 70.1922 6.44ZM70.1322 13.02C71.1122 13.02 71.8922 13.32 72.4922 13.96C73.0722 14.56 73.3722 15.36 73.3722 16.38C73.3722 17.4 73.0722 18.24 72.4722 18.92C71.8722 19.56 71.0922 19.9 70.1322 19.9C69.1322 19.9 68.3522 19.56 67.7522 18.88C67.1522 18.24 66.8722 17.42 66.8722 16.42C66.8722 15.42 67.1722 14.62 67.7922 13.98C68.4122 13.34 69.1922 13.02 70.1322 13.02Z" fill="#86909C"/>
<rect x="774" width="106" height="28" rx="2" fill="#165DFF"/>
<path d="M796.146 15.808V11.132H792.562V9.508C794.018 9.298 795.25 8.92 796.258 8.374L795.586 7.604C794.634 8.178 793.332 8.57 791.666 8.766V14.576C791.638 16.536 791.246 18.216 790.49 19.644L791.19 20.372C791.89 19.07 792.324 17.544 792.492 15.808H796.146ZM792.562 12.112H795.222V14.884H792.548C792.548 14.772 792.562 14.674 792.562 14.576V12.112ZM798.26 12.854H800.794V20.4H801.788V12.854H803.37V11.888H798.26L798.246 9.438C799.954 9.354 801.494 9.046 802.88 8.514L802.376 7.632C801.004 8.206 799.324 8.528 797.35 8.612V14.94C797.322 17.096 797 18.762 796.398 19.952L797.308 20.4C797.924 19.182 798.232 17.362 798.26 14.94V12.854ZM808.9 12.602H814.458V14.128H808.9V12.602ZM814.458 15.01V16.494H808.9V15.01H814.458ZM814.458 17.376V18.972C814.458 19.308 814.276 19.476 813.912 19.476C813.45 19.476 812.946 19.448 812.414 19.42L812.666 20.344H814.234C815.018 20.316 815.41 19.966 815.41 19.28V11.72H808.914C809.25 11.202 809.544 10.656 809.824 10.096H817.202V9.116H810.244C810.44 8.626 810.608 8.122 810.776 7.604L809.754 7.478C809.586 8.024 809.376 8.57 809.138 9.116H804.966V10.096H808.676C807.71 11.902 806.352 13.498 804.588 14.898L805.246 15.752C806.254 14.94 807.164 14.03 807.948 13.05V20.372H808.9V17.376H814.458ZM823.516 17.264C822.2 17.866 820.646 18.342 818.854 18.706L818.98 19.7C820.688 19.336 822.2 18.832 823.516 18.216V17.264ZM821.318 7.576C820.702 9.172 819.988 10.572 819.162 11.804C819.022 12 818.882 12.126 818.728 12.182L818.98 13.12C819.82 13.008 820.632 12.896 821.444 12.77C820.646 14.072 819.974 14.996 819.414 15.542C819.288 15.654 819.134 15.752 818.952 15.836L819.218 16.774C820.618 16.578 822.074 16.2 823.6 15.654V14.73C822.564 15.122 821.528 15.43 820.492 15.654C821.374 14.632 822.48 12.924 823.824 10.516L822.914 10.166C822.592 10.768 822.284 11.328 821.99 11.846C821.318 11.958 820.66 12.056 819.988 12.112C820.758 11.076 821.514 9.69 822.27 7.954L821.318 7.576ZM830.18 8.22H824.496V18.93H823.278V19.91H831.37V18.93H830.18V8.22ZM825.49 18.93V16.27H829.186V18.93H825.49ZM825.49 15.318V12.672H829.186V15.318H825.49ZM825.49 11.72V9.186H829.186V11.72H825.49ZM835.668 7.478C834.996 9.662 833.932 11.608 832.448 13.288L832.77 14.366C833.302 13.806 833.792 13.218 834.24 12.602V20.414H835.234V11.062C835.794 10.068 836.256 9.018 836.62 7.912L835.668 7.478ZM838.02 8.402C837.712 10.264 837.138 11.846 836.284 13.134L836.928 13.974C837.446 13.246 837.88 12.42 838.23 11.496H840.61V14.87H836.494V15.836H840.61V20.344H841.618V15.836H845.356V14.87H841.618V11.496H844.838V10.516H841.618V7.604H840.61V10.516H838.552C838.748 9.9 838.902 9.228 839.014 8.528L838.02 8.402Z" fill="white"/>
<path d="M857.243 9.75659L861.485 13.9992L857.243 18.2419M849.667 13.9999L861.099 13.9999" stroke="white" stroke-width="1.5"/>
<path d="M0 37H880" stroke="#E5E6EB"/>
</svg>
