<svg width="208" height="264" viewBox="0 0 208 264" fill="none" xmlns="http://www.w3.org/2000/svg">
<rect width="208" height="48" fill="white"/>
<g clip-path="url(#clip0)">
<rect x="3.5" y="3.5" width="41" height="41" rx="20.5" fill="#F7F8FA"/>
<rect x="10" y="16" width="48.1274" height="16.9409" rx="1.46155" fill="#4E5969"/>
<path d="M22.9791 27.0731L22.4549 25.8548H19.9223L19.3981 27.0731H18.4382L20.7936 21.8677H21.5688L23.9242 27.0731H22.9791ZM20.2324 25.1165H22.1374L21.1849 22.9014L20.2324 25.1165Z" fill="white"/>
<path d="M27.4146 27.1395C26.9026 27.1395 26.4547 27.0313 26.0708 26.8147C25.6917 26.5932 25.3989 26.2806 25.1921 25.877C24.9903 25.4733 24.8894 25.0033 24.8894 24.4667C24.8894 23.9302 24.9903 23.4626 25.1921 23.0638C25.3989 22.6602 25.6917 22.3501 26.0708 22.1335C26.4547 21.912 26.9026 21.8013 27.4146 21.8013C27.764 21.8013 28.0938 21.8554 28.4039 21.9637C28.7141 22.072 28.9749 22.2246 29.1866 22.4215L28.8691 23.1155C28.6328 22.9285 28.399 22.7931 28.1677 22.7094C27.9363 22.6208 27.6902 22.5765 27.4293 22.5765C26.9272 22.5765 26.5384 22.739 26.2627 23.0638C25.992 23.3887 25.8566 23.8563 25.8566 24.4667C25.8566 25.082 25.992 25.5521 26.2627 25.877C26.5384 26.2018 26.9272 26.3643 27.4293 26.3643C27.6902 26.3643 27.9363 26.3224 28.1677 26.2388C28.399 26.1502 28.6328 26.0123 28.8691 25.8253L29.1866 26.5193C28.9749 26.7162 28.7141 26.8688 28.4039 26.9771C28.0938 27.0854 27.764 27.1395 27.4146 27.1395Z" fill="white"/>
<path d="M31.9478 27.0731V22.6504H30.2496V21.8677H34.5985V22.6504H32.9003V27.0731H31.9478Z" fill="white"/>
<path d="M35.9887 27.0731V21.8677H36.9411V27.0731H35.9887Z" fill="white"/>
<path d="M41.122 27.1395C40.615 27.1395 40.1745 27.0313 39.8004 26.8147C39.4312 26.5981 39.1457 26.288 38.9439 25.8843C38.7421 25.4807 38.6412 25.0082 38.6412 24.4667C38.6412 23.9253 38.7396 23.4552 38.9365 23.0565C39.1383 22.6528 39.4263 22.3427 39.8004 22.1261C40.1745 21.9096 40.615 21.8013 41.122 21.8013C41.629 21.8013 42.0671 21.9096 42.4363 22.1261C42.8104 22.3427 43.0959 22.6528 43.2928 23.0565C43.4946 23.4552 43.5955 23.9253 43.5955 24.4667C43.5955 25.0082 43.4946 25.4807 43.2928 25.8843C43.091 26.288 42.803 26.5981 42.4289 26.8147C42.0597 27.0313 41.6241 27.1395 41.122 27.1395ZM41.122 26.379C41.5995 26.379 41.9711 26.2141 42.2369 25.8843C42.5077 25.5546 42.643 25.082 42.643 24.4667C42.643 23.8514 42.5077 23.3813 42.2369 23.0565C41.9711 22.7267 41.5995 22.5618 41.122 22.5618C40.6396 22.5618 40.2631 22.7267 39.9924 23.0565C39.7265 23.3813 39.5936 23.8514 39.5936 24.4667C39.5936 25.082 39.7265 25.5546 39.9924 25.8843C40.2631 26.2141 40.6396 26.379 41.122 26.379Z" fill="white"/>
<path d="M48.7957 21.8677H49.6891V27.0731H48.9729L46.1819 23.4404V27.0731H45.2959V21.8677H46.0047L48.7957 25.493V21.8677Z" fill="white"/>
</g>
<rect x="3.5" y="3.5" width="41" height="41" rx="20.5" stroke="white"/>
<path d="M72.95 19.158H69.674C69.478 18.514 69.282 17.954 69.072 17.45L68.05 17.618C68.274 18.094 68.484 18.598 68.666 19.158H65.446V21.972H66.398V20.068H71.984V21.916H72.95V19.158ZM68.05 20.95C67.854 21.734 67.644 22.476 67.406 23.204H65.11V24.17H67.07C66.762 24.954 66.426 25.696 66.048 26.396C66.972 26.886 67.84 27.362 68.652 27.824C67.7 28.524 66.314 29.084 64.466 29.504L64.872 30.456C67.056 29.938 68.624 29.252 69.604 28.384C70.864 29.126 71.914 29.798 72.754 30.414L73.44 29.616C72.628 29.056 71.578 28.398 70.262 27.67C71.004 26.746 71.494 25.57 71.718 24.17H73.398V23.204H68.428C68.624 22.56 68.834 21.832 69.03 21.034L68.05 20.95ZM70.752 24.17C70.514 25.402 70.052 26.396 69.366 27.18C68.708 26.83 67.994 26.466 67.238 26.074C67.532 25.542 67.812 24.898 68.092 24.17H70.752ZM62.226 30.274C63.024 30.274 63.43 29.868 63.43 29.056V25.01C63.864 24.814 64.298 24.618 64.732 24.408V23.386C64.298 23.61 63.864 23.82 63.43 24.016V21.216H64.746V20.25H63.43V17.604H62.394V20.25H60.756V21.216H62.394V24.422C61.778 24.646 61.134 24.842 60.476 24.996L60.728 26.004C61.274 25.836 61.834 25.64 62.394 25.43V28.804C62.394 29.168 62.212 29.35 61.876 29.35C61.54 29.35 61.19 29.322 60.826 29.294L61.036 30.274H62.226ZM85.648 19.13L85.438 23.288H82.862L83.226 19.13H85.648ZM81.882 23.288H80.104V24.268H81.798L81.378 29H79.684V29.98H87.44V29H86.18L86.684 18.178H80.468V19.13H82.246L81.882 23.288ZM82.344 29L82.778 24.268H85.396L85.172 29H82.344ZM76.436 17.59C76.044 19.27 75.414 20.796 74.546 22.168L75.372 22.686C75.862 21.916 76.296 21.048 76.674 20.096H79.586V19.158H77.01C77.15 18.71 77.29 18.262 77.416 17.786L76.436 17.59ZM76.016 21.972V22.882H76.898V24.604H74.98V25.528H76.898V28.706C76.898 28.902 76.758 29.056 76.478 29.168L76.912 30.036C78.004 29.714 78.984 29.308 79.824 28.804L79.642 27.908C79.054 28.286 78.466 28.594 77.892 28.832V25.528H79.824V24.604H77.892V22.882H79.348V21.972H76.016Z" fill="#4E5969"/>
<path d="M95.008 19.004V29H99.446C100.468 29 101.28 28.79 101.868 28.398C102.554 27.922 102.904 27.194 102.904 26.214C102.904 25.542 102.708 25.01 102.344 24.59C101.98 24.17 101.476 23.89 100.818 23.778C101.322 23.61 101.728 23.344 102.036 22.98C102.33 22.574 102.484 22.084 102.484 21.524C102.484 20.74 102.218 20.124 101.686 19.676C101.14 19.228 100.398 19.004 99.474 19.004H95.008ZM96.156 19.97H99.208C99.908 19.97 100.44 20.096 100.804 20.376C101.168 20.656 101.35 21.076 101.35 21.636C101.35 22.21 101.154 22.644 100.79 22.938C100.426 23.218 99.894 23.372 99.194 23.372H96.156V19.97ZM96.156 24.324H99.348C100.118 24.324 100.706 24.464 101.112 24.772C101.532 25.08 101.756 25.556 101.756 26.2C101.756 26.844 101.504 27.334 101.014 27.642C100.594 27.894 100.048 28.034 99.348 28.034H96.156V24.324ZM104.343 21.762V26.242C104.343 28.202 105.211 29.196 106.975 29.196C107.955 29.196 108.739 28.748 109.327 27.88V29H110.447V21.762H109.327V26.172C109.243 26.788 109.005 27.292 108.613 27.684C108.235 28.048 107.801 28.244 107.325 28.244C106.667 28.244 106.191 28.062 105.897 27.726C105.603 27.39 105.463 26.872 105.463 26.186V21.762H104.343ZM114.109 19.424L113.003 19.886V21.762H111.547V22.7H113.003V27.306C113.003 27.852 113.115 28.258 113.353 28.538C113.605 28.846 114.039 29 114.627 29H115.719V28.062H114.795C114.543 28.062 114.361 27.992 114.263 27.88C114.151 27.768 114.109 27.572 114.109 27.306V22.7H115.901V21.762H114.109V19.424ZM119.085 19.424L117.979 19.886V21.762H116.523V22.7H117.979V27.306C117.979 27.852 118.091 28.258 118.329 28.538C118.581 28.846 119.015 29 119.603 29H120.695V28.062H119.771C119.519 28.062 119.337 27.992 119.239 27.88C119.127 27.768 119.085 27.572 119.085 27.306V22.7H120.877V21.762H119.085V19.424ZM125.364 21.566C124.272 21.566 123.418 21.93 122.774 22.686C122.158 23.4 121.85 24.296 121.85 25.388C121.85 26.466 122.158 27.362 122.774 28.062C123.418 28.818 124.272 29.196 125.364 29.196C126.442 29.196 127.31 28.818 127.968 28.062C128.57 27.362 128.878 26.466 128.878 25.388C128.878 24.296 128.57 23.4 127.954 22.686C127.31 21.93 126.442 21.566 125.364 21.566ZM125.364 22.504C126.12 22.504 126.722 22.798 127.17 23.386C127.548 23.918 127.744 24.576 127.744 25.388C127.744 26.172 127.548 26.844 127.17 27.376C126.722 27.964 126.12 28.258 125.364 28.258C124.594 28.258 123.992 27.964 123.572 27.376C123.18 26.844 122.998 26.186 122.998 25.388C122.998 24.576 123.18 23.918 123.572 23.386C123.992 22.798 124.594 22.504 125.364 22.504ZM133.721 21.566C133.245 21.566 132.811 21.678 132.419 21.902C132.027 22.112 131.705 22.42 131.453 22.826V21.762H130.333V29H131.453V24.632C131.495 23.974 131.705 23.456 132.097 23.064C132.461 22.7 132.895 22.518 133.399 22.518C134.659 22.518 135.303 23.218 135.303 24.632V29H136.423V24.548C136.423 22.56 135.513 21.566 133.721 21.566Z" fill="#4E5969"/>
<rect width="208" height="48" transform="translate(0 54)" fill="white"/>
<rect x="3.5" y="57.5" width="41" height="41" rx="20.5" fill="#F7F8FA"/>
<path d="M14.9744 75.7454L12.2304 78.4894C11.7176 79.0022 11.7176 79.8336 12.2304 80.3464C12.7432 80.8592 13.5746 80.8592 14.0874 80.3464L17.2086 77.2252C18.0608 76.373 18.0608 74.9913 17.2086 74.1391C16.3564 73.287 14.9747 73.287 14.1225 74.1391L10.8778 77.3839C9.7074 78.5543 9.7074 80.4518 10.8778 81.6222C12.0482 82.7926 13.9457 82.7926 15.1161 81.6222L17.4726 79.2658C17.646 79.0924 17.646 78.8112 17.4726 78.6378C17.2992 78.4645 17.0181 78.4645 16.8447 78.6378L14.4882 80.9943C13.6646 81.8179 12.3293 81.8179 11.5057 80.9943C10.6821 80.1707 10.6821 78.8354 11.5057 78.0118L14.7504 74.767C15.2558 74.2616 16.0753 74.2616 16.5807 74.767C17.0861 75.2725 17.0861 76.0919 16.5807 76.5973L13.4595 79.7185C13.2935 79.8845 13.0243 79.8845 12.8583 79.7185C12.6923 79.5525 12.6923 79.2833 12.8583 79.1173L15.6023 76.3733C15.7757 76.1999 15.7757 75.9188 15.6023 75.7454C15.4289 75.572 15.1478 75.572 14.9744 75.7454Z" fill="#4E5969"/>
<path d="M20.84 72.198V80.766H26.852V79.65H22.136V72.198H20.84Z" fill="#4E5969"/>
<path d="M28.7098 72.078C28.4578 72.078 28.2538 72.15 28.0858 72.318C27.9178 72.474 27.8338 72.678 27.8338 72.93C27.8338 73.17 27.9178 73.386 28.0858 73.554C28.2538 73.71 28.4578 73.794 28.7098 73.794C28.9498 73.794 29.1658 73.71 29.3338 73.554C29.5018 73.386 29.5978 73.182 29.5978 72.93C29.5978 72.678 29.5138 72.474 29.3458 72.318C29.1778 72.15 28.9618 72.078 28.7098 72.078ZM28.0738 74.562V80.766H29.3458V74.562H28.0738Z" fill="#4E5969"/>
<path d="M34.2117 74.394C33.8277 74.394 33.4797 74.466 33.1677 74.634C32.8557 74.79 32.5797 75.018 32.3397 75.33V74.562H31.0677V80.766H32.3397V77.034C32.3877 76.53 32.5677 76.134 32.8557 75.846C33.1197 75.582 33.4437 75.462 33.8037 75.462C34.7637 75.462 35.2557 75.99 35.2557 77.046V80.766H36.5277V76.938C36.5277 75.234 35.7477 74.394 34.2117 74.394Z" fill="#4E5969"/>
<path d="M37.9817 72.03V80.766H39.2537V78.594L39.9617 77.934L42.1937 80.766H43.8257L40.8377 77.118L43.5857 74.562H41.9417L39.2537 77.118V72.03H37.9817Z" fill="#4E5969"/>
<path d="M20 83.034H43.8257V83.97H20V83.034Z" fill="#4E5969"/>
<rect x="3.5" y="57.5" width="41" height="41" rx="20.5" stroke="white"/>
<path d="M67.77 79.458V80.354H70.388V82.678H71.326V80.354H73.356V79.458H71.326V77.736H72.964V76.854H71.326V74.964H70.388V76.854H68.946C69.38 76.042 69.772 75.09 70.136 74.026H73.09V73.144H70.416C70.542 72.71 70.668 72.248 70.78 71.772L69.884 71.562C69.744 72.108 69.604 72.64 69.464 73.144H67.798V74.026H69.198C68.806 75.174 68.372 76.126 67.896 76.896L68.092 77.736H70.388V79.458H67.77ZM65.81 71.856L65.068 72.318C65.684 73.144 66.174 73.9 66.538 74.6L67.294 74.068C66.958 73.438 66.454 72.696 65.81 71.856ZM71.354 83.238C70.822 83.238 70.29 83.224 69.758 83.21C69.212 83.182 68.736 83.084 68.344 82.93C67.91 82.72 67.546 82.44 67.266 82.076C67.224 82.02 67.168 81.978 67.112 81.922V76.266H65.054V77.162H66.188V81.88C65.796 82.118 65.306 82.692 64.718 83.616L65.32 84.372C65.936 83.266 66.37 82.72 66.608 82.72C66.734 82.72 66.888 82.818 67.07 83.028C67.406 83.42 67.812 83.714 68.302 83.882C68.792 84.036 69.366 84.12 70.01 84.134C70.43 84.148 70.864 84.162 71.284 84.162H73.174L73.44 83.21C72.782 83.224 72.082 83.238 71.354 83.238ZM62.058 71.604C61.75 73.298 61.232 74.852 60.532 76.252L61.33 76.756C61.736 75.972 62.1 75.09 62.408 74.124H64.816V73.172H62.702C62.814 72.724 62.926 72.276 63.024 71.8L62.058 71.604ZM61.75 75.958V76.868H62.464V78.618H60.91V79.556H62.464V82.79C62.464 82.986 62.352 83.14 62.142 83.238L62.52 84.078C63.388 83.77 64.144 83.364 64.816 82.888L64.648 82.02C64.228 82.356 63.822 82.622 63.43 82.818V79.556H64.97V78.618H63.43V76.868H64.578V75.958H61.75ZM81.406 73.928L80.58 74.32C80.874 74.824 81.154 75.384 81.434 76H79.292V76.966H87.104V76H84.836C85.158 75.44 85.452 74.81 85.718 74.11L84.766 73.774C84.486 74.558 84.164 75.3 83.772 76H82.4C82.092 75.244 81.77 74.558 81.406 73.928ZM83.254 71.478L82.204 71.646C82.372 71.996 82.54 72.388 82.694 72.808H79.614V73.732H86.852V72.808H83.716C83.562 72.318 83.408 71.87 83.254 71.478ZM76.268 84.274C77.094 84.274 77.514 83.868 77.514 83.056V78.912C77.906 78.73 78.298 78.534 78.69 78.324V77.302C78.298 77.512 77.906 77.708 77.514 77.904V75.216H78.676V74.25H77.514V71.604H76.478V74.25H74.77V75.216H76.478V78.338C75.834 78.59 75.176 78.8 74.518 78.968L74.77 79.976C75.344 79.794 75.918 79.584 76.478 79.36V82.804C76.478 83.168 76.282 83.35 75.918 83.35C75.582 83.35 75.218 83.322 74.84 83.294L75.05 84.274H76.268ZM82.022 77.358C81.868 77.75 81.7 78.142 81.504 78.562H79.11V79.542H80.986C80.692 80.074 80.356 80.62 79.978 81.194C80.958 81.586 81.868 81.964 82.722 82.356C81.854 82.86 80.594 83.252 78.97 83.546L79.362 84.456C81.378 84.064 82.848 83.518 83.772 82.846C84.892 83.378 85.858 83.896 86.698 84.414L87.244 83.602C86.362 83.098 85.438 82.622 84.486 82.174C85.144 81.46 85.578 80.578 85.788 79.542H87.328V78.562H82.526C82.694 78.212 82.848 77.848 82.988 77.47L82.022 77.358ZM84.836 79.542C84.612 80.438 84.192 81.166 83.562 81.754C82.806 81.418 82.022 81.096 81.21 80.788C81.49 80.396 81.756 79.976 82.008 79.542H84.836Z" fill="#4E5969"/>
<path d="M95.008 73.004V83H101.924V82.006H96.142V73.004H95.008ZM104.022 73.032C103.784 73.032 103.588 73.102 103.42 73.27C103.252 73.41 103.182 73.606 103.182 73.858C103.182 74.096 103.252 74.292 103.42 74.46C103.588 74.614 103.784 74.698 104.022 74.698C104.26 74.698 104.456 74.614 104.624 74.46C104.792 74.292 104.876 74.096 104.876 73.858C104.876 73.606 104.792 73.41 104.624 73.27C104.456 73.102 104.26 73.032 104.022 73.032ZM103.462 75.762V83H104.582V75.762H103.462ZM110.069 75.566C109.593 75.566 109.159 75.678 108.767 75.902C108.375 76.112 108.053 76.42 107.801 76.826V75.762H106.681V83H107.801V78.632C107.843 77.974 108.053 77.456 108.445 77.064C108.809 76.7 109.243 76.518 109.747 76.518C111.007 76.518 111.651 77.218 111.651 78.632V83H112.771V78.548C112.771 76.56 111.861 75.566 110.069 75.566ZM114.501 72.808V83H115.621V80.438L116.769 79.402L119.597 83H121.039L117.539 78.674L120.731 75.762H119.247L115.621 79.122V72.808H114.501Z" fill="#4E5969"/>
<rect y="108" width="208" height="48" rx="4" fill="#F7F8FA"/>
<g clip-path="url(#clip1)">
<rect x="4" y="112" width="40" height="40" rx="20" fill="white"/>
<rect x="1" y="125.6" width="30.4" height="30.4" fill="#E8F3FF"/>
<rect x="21.491" y="118.731" width="16.7784" height="16.7784" rx="8.38922" fill="#165DFF" stroke="white" stroke-width="1.46155"/>
<path d="M29.9954 122.56C29.0084 122.56 28.2286 123.014 27.656 123.936C27.1077 124.809 26.8396 125.952 26.8396 127.353C26.8396 128.693 27.0833 129.738 27.595 130.487C28.1311 131.274 28.9231 131.68 29.9832 131.68C30.8361 131.68 31.5306 131.385 32.0911 130.819C32.6394 130.254 32.9196 129.529 32.9196 128.668C32.9196 127.808 32.6637 127.12 32.1642 126.579C31.6524 126.038 30.9823 125.768 30.1537 125.768C29.642 125.768 29.1912 125.89 28.8013 126.149C28.387 126.394 28.0824 126.751 27.8631 127.206H27.8143C27.8022 127.046 27.8022 126.935 27.8022 126.886C27.8022 125.89 27.9849 125.067 28.3748 124.428C28.7647 123.74 29.3008 123.408 29.9832 123.408C30.9945 123.408 31.5915 123.899 31.7865 124.907H32.7734C32.5297 123.334 31.6037 122.56 29.9954 122.56ZM29.9588 126.603C30.5558 126.603 31.031 126.788 31.3966 127.181C31.7499 127.55 31.9327 128.041 31.9327 128.668C31.9327 129.295 31.7499 129.811 31.3844 130.229C31.0188 130.623 30.5436 130.831 29.9588 130.831C29.3496 130.831 28.8744 130.623 28.5089 130.205C28.1433 129.811 27.9727 129.307 27.9727 128.693C27.9727 128.078 28.1555 127.587 28.5332 127.193C28.9109 126.8 29.3861 126.603 29.9588 126.603Z" fill="white"/>
</g>
<path d="M63.024 125.45C62.464 126.738 61.61 127.872 60.462 128.838L60.854 130.098C62.394 128.866 63.486 127.494 64.144 125.968L63.024 125.45ZM63.416 128.656C62.814 130.21 61.862 131.568 60.574 132.744L60.952 133.948C61.372 133.584 61.764 133.206 62.142 132.814V138.428H63.402V131.246C63.836 130.574 64.2 129.874 64.494 129.146L63.416 128.656ZM66.188 125.52V127.858H65.516V126.066H64.48V128.908H68.974V126.066H67.938V127.858H67.252V125.52H66.188ZM64.312 129.678V130.812H65.95C65.446 131.442 64.844 132.002 64.172 132.492L64.396 133.318C64.942 133.29 65.488 133.234 66.048 133.164C65.46 133.654 64.83 134.116 64.144 134.55L64.382 135.418C64.998 135.362 65.628 135.278 66.272 135.194V137C66.272 137.21 66.188 137.322 66.02 137.322C65.768 137.322 65.516 137.294 65.264 137.252L65.502 138.33H66.398C67.07 138.33 67.42 137.98 67.42 137.28V134.984C67.686 134.928 67.966 134.858 68.246 134.802C68.316 134.984 68.4 135.194 68.484 135.418L69.394 135.012C69.142 134.34 68.834 133.71 68.498 133.122L67.588 133.43C67.7 133.626 67.812 133.836 67.924 134.06C67.266 134.172 66.594 134.284 65.922 134.368C66.916 133.682 67.798 132.912 68.582 132.058L67.574 131.68L66.986 132.31C66.538 132.352 66.076 132.394 65.628 132.422C66.16 132.016 66.636 131.568 67.07 131.064L66.426 130.812H68.554C68.498 130.91 68.442 131.008 68.386 131.12L69.03 131.96C69.268 131.624 69.492 131.26 69.702 130.854C69.87 132.268 70.178 133.57 70.626 134.76C70.262 135.586 69.828 136.3 69.296 136.888C69.086 136.426 68.862 135.992 68.638 135.6L67.784 136.02C68.05 136.538 68.302 137.126 68.54 137.77L69.03 137.532L69.562 138.372C70.206 137.756 70.766 137 71.228 136.118C71.648 136.93 72.152 137.686 72.754 138.358L73.58 137.406C72.88 136.636 72.292 135.754 71.83 134.746C72.418 133.122 72.754 131.148 72.81 128.852H73.272V127.634H70.822C70.962 127.046 71.074 126.43 71.172 125.758L69.968 125.562C69.744 127.466 69.338 129.076 68.764 130.364V129.678H64.312ZM70.5 128.866V128.852H71.718C71.662 130.42 71.494 131.82 71.186 133.052C70.808 131.792 70.584 130.406 70.5 128.866ZM64.704 135.74C64.424 136.356 64.074 136.902 63.682 137.364L64.536 137.98C64.942 137.462 65.292 136.86 65.586 136.174L64.704 135.74ZM76.52 125.562V128.096H74.924V129.37H76.506C76.086 131.008 75.4 132.464 74.462 133.752L75.036 135.208C75.624 134.256 76.114 133.206 76.52 132.072V138.428H77.822V131.722C78.172 132.226 78.592 132.856 79.068 133.612L79.824 132.478C79.152 131.666 78.48 130.938 77.822 130.28V129.37H79.334V128.096H77.822V125.562H76.52ZM80.65 131.918C80.286 133.556 79.684 135.082 78.816 136.51L79.978 137.252C80.79 135.824 81.42 134.144 81.868 132.184L80.65 131.918ZM86.04 131.806L84.85 132.198C85.354 133.71 85.83 135.432 86.264 137.392L87.482 136.846C87.076 135.054 86.6 133.374 86.04 131.806ZM82.722 138.288C83.646 138.288 84.122 137.812 84.122 136.874V130.896H87.44V129.622H79.502V130.896H82.792V136.552C82.792 136.93 82.61 137.126 82.274 137.126C81.882 137.126 81.462 137.098 81.042 137.042L81.308 138.288H82.722ZM80.23 126.248V127.508H86.712V126.248H80.23Z" fill="#165DFF"/>
<path d="M94.98 127.004V137H99.544C100.608 137 101.434 136.804 102.022 136.412C102.708 135.936 103.058 135.208 103.058 134.2C103.058 133.528 102.89 132.982 102.554 132.576C102.218 132.17 101.714 131.904 101.056 131.778C101.56 131.596 101.938 131.316 102.218 130.952C102.498 130.56 102.638 130.084 102.638 129.524C102.638 128.754 102.372 128.152 101.84 127.704C101.28 127.228 100.524 127.004 99.544 127.004H94.98ZM96.506 128.264H99.166C99.838 128.264 100.342 128.376 100.65 128.614C100.958 128.838 101.112 129.202 101.112 129.706C101.112 130.238 100.958 130.63 100.65 130.882C100.342 131.12 99.838 131.246 99.138 131.246H96.506V128.264ZM96.506 132.492H99.376C100.104 132.492 100.65 132.618 101 132.884C101.35 133.15 101.532 133.584 101.532 134.172C101.532 134.746 101.294 135.166 100.846 135.432C100.482 135.628 99.978 135.74 99.334 135.74H96.506V132.492ZM107.713 129.566C106.817 129.566 106.089 129.72 105.557 130.056C104.941 130.42 104.549 131.008 104.395 131.792L105.865 131.918C105.949 131.512 106.159 131.218 106.495 131.022C106.775 130.854 107.153 130.77 107.615 130.77C108.707 130.77 109.253 131.274 109.253 132.282V132.576L107.629 132.618C106.565 132.646 105.725 132.856 105.137 133.276C104.493 133.71 104.171 134.34 104.171 135.152C104.171 135.754 104.395 136.244 104.857 136.622C105.277 137 105.865 137.196 106.621 137.196C107.265 137.196 107.825 137.07 108.301 136.846C108.721 136.636 109.071 136.342 109.351 135.978V137H110.723V132.38C110.723 131.498 110.499 130.826 110.065 130.364C109.561 129.832 108.777 129.566 107.713 129.566ZM109.253 133.654V134.074C109.253 134.634 109.015 135.11 108.567 135.488C108.119 135.866 107.587 136.062 106.957 136.062C106.579 136.062 106.271 135.964 106.047 135.782C105.809 135.6 105.697 135.376 105.697 135.096C105.697 134.2 106.369 133.724 107.727 133.696L109.253 133.654ZM117.63 126.808V130.84C117.042 129.986 116.3 129.566 115.418 129.566C114.382 129.566 113.556 129.944 112.968 130.7C112.408 131.4 112.142 132.282 112.142 133.346C112.142 134.452 112.422 135.362 112.982 136.062C113.584 136.818 114.424 137.196 115.488 137.196C116.468 137.196 117.224 136.832 117.728 136.132V137H119.114V126.808H117.63ZM115.754 130.77C116.3 130.77 116.748 130.98 117.112 131.428C117.476 131.904 117.672 132.534 117.672 133.318V133.444C117.672 134.172 117.518 134.76 117.21 135.222C116.846 135.726 116.356 135.992 115.712 135.992C114.984 135.992 114.438 135.726 114.102 135.208C113.808 134.76 113.668 134.144 113.668 133.346C113.668 132.548 113.822 131.932 114.13 131.512C114.48 131.008 115.026 130.77 115.754 130.77ZM123.799 129.566C122.819 129.566 122.021 129.902 121.419 130.588C120.803 131.26 120.509 132.128 120.509 133.22C120.509 134.312 120.803 135.18 121.419 135.838C122.021 136.496 122.819 136.832 123.799 136.832C124.751 136.832 125.479 136.426 126.011 135.628V136.748C126.011 138.106 125.381 138.792 124.121 138.792C123.533 138.792 123.099 138.694 122.833 138.526C122.553 138.344 122.385 138.036 122.301 137.616H120.817C120.957 138.414 121.279 139.002 121.811 139.394C122.343 139.772 123.113 139.968 124.121 139.968C126.361 139.968 127.495 138.82 127.495 136.524V129.762H126.011V130.728C125.479 129.944 124.751 129.566 123.799 129.566ZM124.023 130.77C124.653 130.77 125.143 130.98 125.507 131.428C125.843 131.862 126.025 132.464 126.025 133.22C126.025 133.962 125.843 134.55 125.507 134.984C125.143 135.404 124.653 135.614 124.023 135.614C123.295 135.614 122.777 135.362 122.455 134.886C122.175 134.48 122.035 133.92 122.035 133.22C122.035 132.45 122.203 131.848 122.567 131.428C122.903 130.98 123.393 130.77 124.023 130.77ZM132.236 129.566C131.172 129.566 130.318 129.93 129.702 130.672C129.058 131.4 128.75 132.296 128.75 133.374C128.75 134.564 129.086 135.502 129.758 136.202C130.374 136.86 131.228 137.196 132.292 137.196C133.258 137.196 134.056 136.916 134.686 136.37C135.19 135.922 135.512 135.348 135.68 134.676H134.196C134 135.096 133.79 135.418 133.538 135.614C133.216 135.852 132.796 135.978 132.278 135.978C131.69 135.978 131.228 135.782 130.892 135.418C130.556 135.04 130.374 134.494 130.318 133.794H135.806C135.792 132.506 135.498 131.498 134.938 130.77C134.322 129.958 133.412 129.566 132.236 129.566ZM132.278 130.784C133.454 130.784 134.112 131.414 134.252 132.674H130.346C130.43 132.058 130.64 131.596 130.948 131.274C131.284 130.938 131.718 130.784 132.278 130.784Z" fill="#165DFF"/>
<rect width="208" height="48" transform="translate(0 162)" fill="white"/>
<g clip-path="url(#clip2)">
<rect x="3.5" y="165.5" width="41" height="41" rx="20.5" fill="#F7F8FA"/>
<g filter="url(#filter0_d)">
<path fill-rule="evenodd" clip-rule="evenodd" d="M-8.93115 119.491C-8.93115 118.411 -8.05603 117.536 -6.97651 117.536H142.554C143.633 117.536 144.508 118.411 144.508 119.491V266.936C144.508 268.016 143.633 268.891 142.554 268.891H-6.9765C-8.05602 268.891 -8.93115 268.016 -8.93115 266.936L-8.93115 119.491Z" fill="#F7F8FA"/>
<g clip-path="url(#clip3)">
<path d="M6.86678 189.025C6.52782 189.025 6.20557 188.975 5.90003 188.875C5.59449 188.77 5.33907 188.624 5.13379 188.438L5.39159 187.865C5.61597 188.047 5.84751 188.18 6.08622 188.266C6.32492 188.352 6.57795 188.395 6.8453 188.395C7.18903 188.395 7.44922 188.321 7.62586 188.173C7.80727 188.025 7.89798 187.813 7.89798 187.536C7.89798 187.259 7.80727 187.054 7.62586 186.92C7.44922 186.786 7.19142 186.72 6.85246 186.72H6.07189V186.096H6.78085C7.08161 186.096 7.31793 186.02 7.4898 185.867C7.66644 185.715 7.75476 185.505 7.75476 185.237C7.75476 184.994 7.6736 184.807 7.51128 184.679C7.34896 184.545 7.11742 184.478 6.81665 184.478C6.30582 184.478 5.85945 184.662 5.47752 185.029L5.21972 184.464C5.41546 184.268 5.65894 184.118 5.95016 184.013C6.24615 183.903 6.55408 183.848 6.87394 183.848C7.37999 183.848 7.77385 183.965 8.05552 184.199C8.33719 184.428 8.47803 184.748 8.47803 185.158C8.47803 185.435 8.40642 185.679 8.2632 185.889C8.12475 186.099 7.9314 186.252 7.68315 186.347C7.98391 186.424 8.21545 186.572 8.37777 186.791C8.54009 187.006 8.62125 187.271 8.62125 187.586C8.62125 188.03 8.46371 188.381 8.14862 188.639C7.8383 188.896 7.41102 189.025 6.86678 189.025Z" fill="#4E5969"/>
<path d="M9.69978 188.961V188.41L11.3826 186.605C11.6166 186.352 11.7837 186.123 11.8839 185.917C11.989 185.712 12.0415 185.505 12.0415 185.294C12.0415 184.75 11.7216 184.478 11.0819 184.478C10.5949 184.478 10.1581 184.662 9.77139 185.029L9.50643 184.464C9.69739 184.278 9.94087 184.13 10.2369 184.02C10.5329 183.905 10.8408 183.848 11.1606 183.848C11.681 183.848 12.0797 183.967 12.3566 184.206C12.6382 184.445 12.7791 184.786 12.7791 185.23C12.7791 185.531 12.7051 185.824 12.5571 186.111C12.4138 186.397 12.1871 186.703 11.8768 187.027L10.6307 188.338H12.9796V188.961H9.69978Z" fill="#4E5969"/>
<path d="M20.6437 171.982V171.557L22.2924 169.779C22.525 169.523 22.6915 169.291 22.7918 169.081C22.8967 168.871 22.9492 168.657 22.9492 168.438C22.9492 167.877 22.6231 167.596 21.9709 167.596C21.4829 167.596 21.0519 167.779 20.6779 168.144L20.4658 167.706C20.6437 167.523 20.8695 167.377 21.1431 167.268C21.4213 167.154 21.7132 167.097 22.0188 167.097C22.5022 167.097 22.8717 167.211 23.1271 167.439C23.387 167.662 23.517 167.982 23.517 168.397C23.517 168.684 23.4463 168.967 23.3049 169.245C23.1636 169.519 22.9469 169.811 22.655 170.121L21.362 171.503H23.7154V171.982H20.6437Z" fill="#4E5969"/>
<path d="M25.8541 172.043C25.6078 172.043 25.3592 171.991 25.1084 171.886C24.8575 171.781 24.6523 171.64 24.4926 171.462L24.7047 171.017C24.8689 171.195 25.0491 171.327 25.2452 171.414C25.4459 171.5 25.6511 171.544 25.8609 171.544C26.3079 171.544 26.6522 171.377 26.8939 171.044C27.1357 170.711 27.2565 170.217 27.2565 169.56V169.218C27.1653 169.519 27.0011 169.756 26.7639 169.929C26.5313 170.098 26.2554 170.182 25.9362 170.182C25.6534 170.182 25.4025 170.118 25.1836 169.991C24.9647 169.859 24.7937 169.678 24.6705 169.45C24.5474 169.222 24.4858 168.96 24.4858 168.664C24.4858 168.358 24.5497 168.089 24.6774 167.856C24.8096 167.619 24.9898 167.434 25.2178 167.302C25.4504 167.165 25.7172 167.097 26.0182 167.097C26.5884 167.097 27.0262 167.304 27.3318 167.719C27.6419 168.13 27.797 168.707 27.797 169.45C27.797 170.28 27.6259 170.921 27.2839 171.373C26.9418 171.82 26.4652 172.043 25.8541 172.043ZM26.0525 169.71C26.358 169.71 26.6066 169.612 26.7982 169.416C26.9897 169.215 27.0855 168.958 27.0855 168.643C27.0855 168.324 26.9897 168.066 26.7982 167.87C26.6066 167.669 26.358 167.569 26.0525 167.569C25.7514 167.569 25.5052 167.669 25.3136 167.87C25.122 168.066 25.0263 168.324 25.0263 168.643C25.0263 168.958 25.122 169.215 25.3136 169.416C25.5052 169.612 25.7514 169.71 26.0525 169.71Z" fill="#4E5969"/>
<path opacity="0.3" d="M24.2986 178.13H123.985V193.767H24.2986V178.13Z" fill="#4E5969"/>
<g clip-path="url(#clip4)">
<rect x="15.5027" y="177.27" width="17.3589" height="17.3589" rx="8.67947" fill="#F7F8FA"/>
<path d="M15.6572 185.95C15.6572 181.241 19.474 177.425 24.1823 177.425C28.8906 177.425 32.7074 181.241 32.7074 185.95C32.7074 190.658 28.8906 194.475 24.1823 194.475C19.474 194.475 15.6572 190.658 15.6572 185.95Z" fill="#4E5969"/>
<path d="M24.134 189.835C23.6478 189.835 23.1759 189.759 22.7182 189.607C22.2678 189.447 21.8924 189.226 21.592 188.943L21.9674 188.072C22.6253 188.609 23.3403 188.877 24.1126 188.877C24.606 188.877 24.9921 188.743 25.2709 188.475C25.5498 188.199 25.6893 187.84 25.6893 187.397C25.6893 186.94 25.557 186.567 25.2924 186.276C25.0278 185.986 24.6596 185.841 24.1877 185.841C23.5227 185.841 22.99 186.12 22.5895 186.679H21.8173V182.064H26.3221V183.011H22.9006V185.438C23.301 185.083 23.8087 184.905 24.4236 184.905C24.9027 184.905 25.3174 185.007 25.6678 185.21C26.0182 185.413 26.2899 185.7 26.483 186.07C26.676 186.432 26.7725 186.857 26.7725 187.343C26.7725 187.836 26.6653 188.272 26.4508 188.649C26.2363 189.019 25.9324 189.309 25.5391 189.52C25.1458 189.73 24.6775 189.835 24.134 189.835Z" fill="white"/>
</g>
<path d="M39.3087 189.025C38.6977 189.025 38.225 188.808 37.8908 188.373C37.5614 187.939 37.3967 187.33 37.3967 186.547C37.3967 185.683 37.5829 185.017 37.9553 184.549C38.3277 184.082 38.8433 183.848 39.5021 183.848C39.7599 183.848 40.0201 183.9 40.2827 184.005C40.5452 184.105 40.7648 184.249 40.9415 184.435L40.6837 184.993C40.5118 184.822 40.3208 184.693 40.1108 184.607C39.9055 184.521 39.6978 184.478 39.4878 184.478C39.0438 184.478 38.7024 184.64 38.4637 184.965C38.2298 185.285 38.1128 185.764 38.1128 186.404V186.691C38.2083 186.399 38.373 186.173 38.607 186.01C38.8457 185.843 39.1202 185.76 39.4305 185.76C39.7265 185.76 39.9867 185.829 40.211 185.967C40.4402 186.106 40.6192 186.297 40.7481 186.54C40.877 186.779 40.9415 187.053 40.9415 187.364C40.9415 187.688 40.8723 187.977 40.7338 188.23C40.5954 188.479 40.402 188.674 40.1538 188.817C39.9103 188.956 39.6286 189.025 39.3087 189.025ZM39.2658 188.424C39.557 188.424 39.7933 188.328 39.9747 188.137C40.1561 187.946 40.2469 187.698 40.2469 187.392C40.2469 187.087 40.1561 186.839 39.9747 186.648C39.7933 186.457 39.557 186.361 39.2658 186.361C38.9746 186.361 38.7382 186.457 38.5568 186.648C38.3754 186.839 38.2847 187.087 38.2847 187.392C38.2847 187.698 38.3754 187.946 38.5568 188.137C38.7382 188.328 38.9746 188.424 39.2658 188.424Z" fill="#4E5969"/>
<path d="M20.866 204.358V203.735H22.0118V200.169L21.1167 200.727L20.8159 200.176L22.2267 199.309H22.7494V203.735H23.8236V204.358H20.866Z" fill="#4E5969"/>
<path d="M24.9308 204.358V203.807L26.6136 202.002C26.8476 201.749 27.0146 201.52 27.1149 201.314C27.2199 201.109 27.2724 200.901 27.2724 200.691C27.2724 200.147 26.9526 199.875 26.3129 199.875C25.8259 199.875 25.3891 200.059 25.0024 200.426L24.7374 199.861C24.9284 199.675 25.1719 199.527 25.4678 199.417C25.7638 199.302 26.0718 199.245 26.3916 199.245C26.912 199.245 27.3106 199.364 27.5875 199.603C27.8692 199.842 28.01 200.183 28.01 200.627C28.01 200.928 27.936 201.221 27.788 201.508C27.6448 201.794 27.4181 202.1 27.1077 202.424L25.8617 203.735H28.2106V204.358H24.9308Z" fill="#4E5969"/>
<path d="M37.4809 205.357V204.734H38.6267V201.168L37.7316 201.726L37.4308 201.175L38.8415 200.309H39.3643V204.734H40.4385V205.357H37.4809ZM43.0065 205.422C42.6675 205.422 42.3453 205.371 42.0397 205.271C41.7342 205.166 41.4788 205.021 41.2735 204.834L41.5313 204.262C41.7557 204.443 41.9872 204.577 42.2259 204.663C42.4646 204.748 42.7177 204.791 42.985 204.791C43.3287 204.791 43.5889 204.717 43.7656 204.569C43.947 204.421 44.0377 204.209 44.0377 203.932C44.0377 203.655 43.947 203.45 43.7656 203.316C43.5889 203.183 43.3311 203.116 42.9922 203.116H42.2116V202.493H42.9206C43.2213 202.493 43.4576 202.416 43.6295 202.264C43.8062 202.111 43.8945 201.901 43.8945 201.633C43.8945 201.39 43.8133 201.204 43.651 201.075C43.4887 200.941 43.2571 200.874 42.9564 200.874C42.4455 200.874 41.9992 201.058 41.6172 201.426L41.3594 200.86C41.5552 200.664 41.7987 200.514 42.0899 200.409C42.3859 200.299 42.6938 200.244 43.0137 200.244C43.5197 200.244 43.9136 200.361 44.1952 200.595C44.4769 200.824 44.6177 201.144 44.6177 201.555C44.6177 201.832 44.5461 202.075 44.4029 202.285C44.2645 202.495 44.0711 202.648 43.8229 202.743C44.1236 202.82 44.3552 202.968 44.5175 203.187C44.6798 203.402 44.761 203.667 44.761 203.982C44.761 204.426 44.6034 204.777 44.2883 205.035C43.978 205.293 43.5507 205.422 43.0065 205.422Z" fill="#C9CDD4"/>
</g>
<rect x="-9.17548" y="117.292" width="153.928" height="151.843" rx="2.19898" stroke="#E5E6EB" stroke-width="0.488661"/>
</g>
</g>
<rect x="3.5" y="165.5" width="41" height="41" rx="20.5" stroke="white"/>
<path d="M71.466 180.122H62.814V192.344H63.822V191.266H70.444V192.33H71.466V180.122ZM63.822 190.286V186.072H70.444V190.286H63.822ZM63.822 185.092V181.102H70.444V185.092H63.822ZM87.02 180.248H75.792V185.372C75.75 188.06 75.33 190.174 74.532 191.686L75.316 192.386C76.268 190.622 76.758 188.284 76.814 185.372V181.228H87.02V180.248ZM86.432 184.406H82.26L82.302 183.3V181.942H81.28V183.3L81.238 184.406H77.864V185.316H81.154C81.014 186.52 80.748 187.556 80.356 188.438C79.726 189.698 78.62 190.72 77.038 191.49L77.598 192.372C79.222 191.616 80.398 190.552 81.126 189.18C81.658 188.144 82.008 186.856 82.176 185.316H85.424C85.382 188.004 85.27 189.67 85.088 190.314C84.92 190.958 84.486 191.28 83.786 191.308C83.352 191.294 82.792 191.266 82.106 191.238L82.372 192.19C83.016 192.218 83.576 192.232 84.024 192.232C84.892 192.232 85.508 191.854 85.872 191.126C86.222 190.384 86.404 188.144 86.432 184.406Z" fill="#4E5969"/>
<path d="M99.32 180.808C97.78 180.808 96.576 181.326 95.736 182.39C94.966 183.342 94.588 184.56 94.588 186.044C94.588 187.528 94.952 188.732 95.708 189.656C96.534 190.678 97.724 191.196 99.278 191.196C100.342 191.196 101.266 190.888 102.036 190.286C102.862 189.642 103.38 188.732 103.604 187.57H102.498C102.302 188.438 101.896 189.096 101.308 189.544C100.748 189.964 100.076 190.174 99.278 190.174C98.102 190.174 97.22 189.782 96.604 189.012C96.016 188.284 95.736 187.29 95.736 186.044C95.736 184.798 96.03 183.804 96.618 183.048C97.248 182.236 98.144 181.83 99.306 181.83C100.09 181.83 100.748 182.012 101.294 182.39C101.854 182.782 102.218 183.342 102.358 184.07H103.464C103.324 183.076 102.876 182.278 102.12 181.69C101.364 181.102 100.426 180.808 99.32 180.808ZM108.204 183.566C107.336 183.566 106.65 183.734 106.118 184.07C105.53 184.434 105.152 185.008 104.998 185.764L106.104 185.848C106.216 185.386 106.454 185.036 106.832 184.812C107.168 184.588 107.602 184.49 108.134 184.49C109.394 184.49 110.024 185.092 110.024 186.31V186.688L108.288 186.716C107.196 186.73 106.356 186.94 105.768 187.332C105.096 187.752 104.774 188.368 104.774 189.194C104.774 189.782 104.998 190.272 105.446 190.65C105.88 191.014 106.454 191.196 107.182 191.196C107.854 191.196 108.456 191.042 108.988 190.748C109.436 190.496 109.814 190.174 110.094 189.782V191H111.144V186.352C111.144 185.512 110.92 184.854 110.5 184.378C109.996 183.832 109.24 183.566 108.204 183.566ZM110.024 187.528V188.144C110.024 188.704 109.758 189.208 109.24 189.642C108.708 190.09 108.106 190.314 107.42 190.314C106.972 190.314 106.608 190.202 106.328 189.992C106.048 189.768 105.922 189.502 105.922 189.166C105.922 188.116 106.734 187.584 108.358 187.556L110.024 187.528ZM113.098 180.808V191H114.204V180.808H113.098ZM119.151 183.566C118.101 183.566 117.275 183.944 116.659 184.7C116.043 185.414 115.749 186.31 115.749 187.374C115.749 188.55 116.057 189.474 116.701 190.174C117.317 190.846 118.157 191.196 119.193 191.196C120.131 191.196 120.901 190.916 121.503 190.384C121.993 189.936 122.315 189.376 122.483 188.676H121.363C121.181 189.18 120.943 189.558 120.635 189.81C120.271 190.104 119.781 190.258 119.193 190.258C118.507 190.258 117.961 190.034 117.569 189.586C117.177 189.138 116.967 188.508 116.911 187.696H122.623C122.595 186.436 122.315 185.442 121.783 184.742C121.195 183.958 120.313 183.566 119.151 183.566ZM119.179 184.504C120.551 184.504 121.321 185.274 121.461 186.828H116.939C117.009 186.114 117.233 185.554 117.625 185.134C118.017 184.714 118.535 184.504 119.179 184.504ZM127.322 183.566C126.846 183.566 126.412 183.678 126.02 183.902C125.628 184.112 125.306 184.42 125.054 184.826V183.762H123.934V191H125.054V186.632C125.096 185.974 125.306 185.456 125.698 185.064C126.062 184.7 126.496 184.518 127 184.518C128.26 184.518 128.904 185.218 128.904 186.632V191H130.024V186.548C130.024 184.56 129.114 183.566 127.322 183.566ZM137.103 180.808V185.092C136.543 184.07 135.745 183.566 134.709 183.566C133.673 183.566 132.875 183.944 132.287 184.728C131.741 185.428 131.475 186.296 131.475 187.36C131.475 188.452 131.741 189.348 132.287 190.048C132.875 190.804 133.701 191.196 134.765 191.196C135.857 191.196 136.669 190.734 137.173 189.81V191H138.223V180.808H137.103ZM134.947 184.49C135.591 184.49 136.123 184.742 136.529 185.274C136.921 185.792 137.131 186.478 137.131 187.318V187.458C137.131 188.27 136.949 188.928 136.599 189.432C136.193 189.992 135.633 190.272 134.905 190.272C134.121 190.272 133.533 189.978 133.141 189.418C132.791 188.914 132.623 188.228 132.623 187.36C132.623 186.492 132.791 185.82 133.155 185.33C133.547 184.77 134.149 184.49 134.947 184.49ZM143.108 183.566C142.24 183.566 141.554 183.734 141.022 184.07C140.434 184.434 140.056 185.008 139.902 185.764L141.008 185.848C141.12 185.386 141.358 185.036 141.736 184.812C142.072 184.588 142.506 184.49 143.038 184.49C144.298 184.49 144.928 185.092 144.928 186.31V186.688L143.192 186.716C142.1 186.73 141.26 186.94 140.672 187.332C140 187.752 139.678 188.368 139.678 189.194C139.678 189.782 139.902 190.272 140.35 190.65C140.784 191.014 141.358 191.196 142.086 191.196C142.758 191.196 143.36 191.042 143.892 190.748C144.34 190.496 144.718 190.174 144.998 189.782V191H146.048V186.352C146.048 185.512 145.824 184.854 145.404 184.378C144.9 183.832 144.144 183.566 143.108 183.566ZM144.928 187.528V188.144C144.928 188.704 144.662 189.208 144.144 189.642C143.612 190.09 143.01 190.314 142.324 190.314C141.876 190.314 141.512 190.202 141.232 189.992C140.952 189.768 140.826 189.502 140.826 189.166C140.826 188.116 141.638 187.584 143.262 187.556L144.928 187.528ZM150.956 183.566C150.452 183.566 150.018 183.72 149.64 184.028C149.332 184.266 149.08 184.602 148.884 185.022V183.762H147.778V191H148.884V187.164C148.884 186.492 149.066 185.918 149.458 185.442C149.836 184.938 150.312 184.7 150.872 184.7C151.222 184.7 151.586 184.742 151.95 184.854V183.734C151.684 183.622 151.348 183.566 150.956 183.566Z" fill="#4E5969"/>
<rect width="208" height="48" transform="translate(0 216)" fill="white"/>
<g clip-path="url(#clip5)">
<rect x="3.5" y="219.5" width="41" height="41" rx="20.5" fill="#F7F8FA"/>
<rect x="15.1875" y="233.812" width="15.5" height="13.375" rx="2" fill="#4E5969"/>
<rect opacity="0.3" x="34" y="233.812" width="15.5" height="13.375" rx="2" fill="#4E5969"/>
<rect x="10.625" y="245.656" width="56.75" height="1.03125" fill="#F7F8FA" stroke="#4E5969"/>
</g>
<rect x="3.5" y="219.5" width="41" height="41" rx="20.5" stroke="white"/>
<path d="M62.674 233.604V236.25H60.966V237.216H62.674C62.24 238.98 61.526 240.562 60.518 241.934L60.952 243.026C61.652 241.934 62.226 240.73 62.674 239.414V246.386H63.668V239.372C64.088 239.904 64.578 240.604 65.152 241.486L65.726 240.632C65.04 239.778 64.354 238.994 63.668 238.294V237.216H65.292V236.25H63.668V233.604H62.674ZM66.804 239.932C66.412 241.668 65.782 243.236 64.914 244.65L65.782 245.21C66.622 243.782 67.28 242.102 67.728 240.142L66.804 239.932ZM71.872 239.862L70.962 240.156C71.508 241.668 72.012 243.39 72.474 245.336L73.384 244.93C72.964 243.138 72.46 241.444 71.872 239.862ZM68.736 246.246C69.548 246.246 69.968 245.826 69.968 245V238.77H73.398V237.804H65.544V238.77H68.96V244.748C68.96 245.154 68.764 245.364 68.386 245.364C67.98 245.364 67.56 245.336 67.112 245.308L67.308 246.246H68.736ZM66.286 234.402V235.354H72.67V234.402H66.286ZM84.276 241.584C83.856 242.9 83.38 244.034 82.834 244.986H75.106V245.924H86.922V244.986H83.912C84.444 244.062 84.892 243.012 85.256 241.85L84.276 241.584ZM77.584 241.752L76.674 242.046C77.122 242.858 77.486 243.712 77.766 244.608L78.676 244.37C78.354 243.39 77.99 242.508 77.584 241.752ZM80.818 241.472L79.894 241.766C80.258 242.634 80.552 243.544 80.79 244.496L81.686 244.258C81.434 243.208 81.14 242.284 80.818 241.472ZM77.374 240.128V241.024H84.64V240.128H77.374ZM76.814 235.662H77.878C78.13 236.208 78.34 236.782 78.522 237.37L79.446 237.034C79.306 236.614 79.11 236.152 78.886 235.662H80.902V234.766H77.22C77.346 234.43 77.472 234.094 77.584 233.73L76.604 233.52C76.212 234.808 75.582 235.984 74.714 237.048L75.582 237.594C76.044 237.006 76.45 236.362 76.814 235.662ZM82.708 235.662H83.926C84.234 236.25 84.514 236.866 84.766 237.496L85.69 237.16C85.508 236.684 85.27 236.194 84.962 235.662H87.188V234.766H83.1C83.212 234.43 83.324 234.094 83.436 233.73L82.47 233.52C82.176 234.612 81.7 235.592 81.042 236.488L81.896 237.034C82.19 236.614 82.456 236.152 82.708 235.662ZM80.678 237.048C79.068 238.238 77.052 239.232 74.644 240.044L75.12 240.912C77.556 240.058 79.516 239.05 81 237.874C82.624 239.134 84.57 240.142 86.866 240.926L87.356 240.058C85.074 239.33 83.058 238.322 81.322 237.048H80.678ZM99.326 236.628H95.21C95.35 236.152 95.448 235.634 95.532 235.102H101.16V234.15H88.84V235.102H94.468C94.398 235.634 94.3 236.138 94.16 236.628H90.618V243.278H91.626V237.608H98.318V243.25H99.326V236.628ZM95.924 243.278L95.364 244.104C97.03 244.664 98.654 245.448 100.25 246.442L100.866 245.49C99.382 244.622 97.73 243.894 95.924 243.278ZM94.482 238.448V240.674C94.44 241.906 94.048 242.9 93.292 243.67C92.494 244.412 91.08 245 89.05 245.448L89.624 246.344C91.668 245.868 93.138 245.21 94.034 244.356C94.958 243.432 95.462 242.214 95.518 240.674V238.448H94.482Z" fill="#4E5969"/>
<path d="M108.238 235.004V235.998H111.766V245H112.9V235.998H116.428V235.004H108.238ZM120.686 237.566C119.818 237.566 119.132 237.734 118.6 238.07C118.012 238.434 117.634 239.008 117.48 239.764L118.586 239.848C118.698 239.386 118.936 239.036 119.314 238.812C119.65 238.588 120.084 238.49 120.616 238.49C121.876 238.49 122.506 239.092 122.506 240.31V240.688L120.77 240.716C119.678 240.73 118.838 240.94 118.25 241.332C117.578 241.752 117.256 242.368 117.256 243.194C117.256 243.782 117.48 244.272 117.928 244.65C118.362 245.014 118.936 245.196 119.664 245.196C120.336 245.196 120.938 245.042 121.47 244.748C121.918 244.496 122.296 244.174 122.576 243.782V245H123.626V240.352C123.626 239.512 123.402 238.854 122.982 238.378C122.478 237.832 121.722 237.566 120.686 237.566ZM122.506 241.528V242.144C122.506 242.704 122.24 243.208 121.722 243.642C121.19 244.09 120.588 244.314 119.902 244.314C119.454 244.314 119.09 244.202 118.81 243.992C118.53 243.768 118.404 243.502 118.404 243.166C118.404 242.116 119.216 241.584 120.84 241.556L122.506 241.528ZM125.356 234.808V245H126.406V243.81C126.896 244.734 127.694 245.196 128.814 245.196C129.864 245.196 130.69 244.804 131.292 244.048C131.824 243.348 132.104 242.452 132.104 241.36C132.104 240.296 131.824 239.428 131.292 238.728C130.704 237.944 129.892 237.566 128.87 237.566C127.834 237.566 127.036 238.07 126.476 239.092V234.808H125.356ZM128.632 238.49C129.416 238.49 130.004 238.77 130.41 239.33C130.774 239.82 130.956 240.492 130.956 241.36C130.956 242.228 130.774 242.914 130.438 243.418C130.046 243.978 129.458 244.272 128.674 244.272C127.946 244.272 127.372 243.992 126.98 243.432C126.616 242.928 126.434 242.27 126.434 241.458V241.318C126.434 240.478 126.63 239.792 127.05 239.274C127.442 238.742 127.974 238.49 128.632 238.49ZM136.121 237.566C135.309 237.566 134.637 237.748 134.133 238.112C133.587 238.476 133.321 238.952 133.321 239.568C133.321 240.184 133.587 240.646 134.147 240.982C134.483 241.206 135.085 241.416 135.939 241.626C136.723 241.822 137.241 241.976 137.479 242.088C137.927 242.312 138.165 242.62 138.165 243.026C138.165 243.838 137.507 244.258 136.219 244.258C135.603 244.258 135.141 244.146 134.833 243.922C134.525 243.67 134.315 243.264 134.231 242.69H133.139C133.307 244.356 134.343 245.196 136.247 245.196C138.291 245.196 139.313 244.44 139.313 242.956C139.313 242.326 139.019 241.836 138.445 241.472C138.067 241.234 137.451 241.01 136.583 240.8C135.855 240.604 135.351 240.45 135.085 240.324C134.665 240.114 134.469 239.848 134.469 239.54C134.469 239.218 134.623 238.966 134.931 238.784C135.211 238.588 135.603 238.504 136.107 238.504C136.681 238.504 137.129 238.616 137.437 238.84C137.717 239.036 137.899 239.372 137.997 239.82H139.089C138.893 238.308 137.913 237.566 136.121 237.566Z" fill="#4E5969"/>
<defs>
<filter id="filter0_d" x="-14.3065" y="114.115" width="164.19" height="162.105" filterUnits="userSpaceOnUse" color-interpolation-filters="sRGB">
<feFlood flood-opacity="0" result="BackgroundImageFix"/>
<feColorMatrix in="SourceAlpha" type="matrix" values="0 0 0 0 0 0 0 0 0 0 0 0 0 0 0 0 0 0 127 0"/>
<feOffset dy="1.95464"/>
<feGaussianBlur stdDeviation="2.44331"/>
<feColorMatrix type="matrix" values="0 0 0 0 0 0 0 0 0 0 0 0 0 0 0 0 0 0 0.1 0"/>
<feBlend mode="normal" in2="BackgroundImageFix" result="effect1_dropShadow"/>
<feBlend mode="normal" in="SourceGraphic" in2="effect1_dropShadow" result="shape"/>
</filter>
<clipPath id="clip0">
</clipPath>
<clipPath id="clip1">
<rect x="4" y="112" width="40" height="40" rx="20" fill="white"/>
</clipPath>
<clipPath id="clip2">
</clipPath>
<clipPath id="clip3">
<rect width="132.801" height="119.234" fill="white" transform="translate(-1.11255 144.901)"/>
</clipPath>
<clipPath id="clip4">
<rect width="17.3589" height="17.3589" fill="white" transform="translate(15.5022 177.27)"/>
</clipPath>
<clipPath id="clip5">
</clipPath>
</defs>
</svg>
