<svg width="208" height="264" viewBox="0 0 208 264" fill="none" xmlns="http://www.w3.org/2000/svg">
<rect width="208" height="48" fill="white"/>
<g clip-path="url(#clip0)">
<rect x="3.5" y="3.5" width="41" height="41" rx="20.5" fill="#F7F8FA"/>
<rect x="-19.2306" y="34.0194" width="52.4612" height="44.2112" rx="0.769397" fill="#F7F8FA" stroke="#4E5969" stroke-width="1.53879"/>
<rect x="-11.5" y="39" width="38" height="1.5" rx="0.75" fill="#4E5969"/>
<rect x="-19.2306" y="12.0194" width="52.4612" height="16.4612" rx="0.769397" fill="#F7F8FA" stroke="#4E5969" stroke-width="1.53879"/>
<path d="M31 15.2888C31 14.4389 30.3111 13.75 29.4612 13.75L20.5388 13.75C19.6889 13.75 19 14.4389 19 15.2888L19 24.2112C19 25.0611 19.6889 25.75 20.5388 25.75L29.4612 25.75C30.3111 25.75 31 25.0611 31 24.2112L31 15.2888Z" fill="#F7F8FA"/>
<path d="M27.7778 21.7406C27.5826 21.9359 27.266 21.9359 27.0707 21.7406L24.8907 19.5605L22.7731 21.6781C22.5778 21.8734 22.2612 21.8734 22.066 21.6781L21.7124 21.3246C21.5171 21.1293 21.5171 20.8127 21.7124 20.6175L24.5408 17.789C24.7361 17.5938 25.0527 17.5938 25.2479 17.789L25.6015 18.1426C25.619 18.1601 25.635 18.1786 25.6493 18.1979L28.1314 20.6799C28.3266 20.8752 28.3266 21.1918 28.1314 21.387L27.7778 21.7406Z" fill="#4E5969"/>
</g>
<rect x="3.5" y="3.5" width="41" height="41" rx="20.5" stroke="white"/>
<path d="M60.77 18.304V19.298H66.118V30.428H67.14V22.476C68.4 23.148 69.968 24.1 71.83 25.332L72.432 24.436C70.64 23.288 68.876 22.28 67.14 21.412V19.298H73.216V18.304H60.77ZM79.656 19.816V20.782H87.048V19.816H83.884C83.688 18.976 83.464 18.22 83.226 17.562L82.204 17.73C82.456 18.374 82.694 19.06 82.89 19.816H79.656ZM79.292 28.832V29.812H87.37V28.832H84.626C85.27 26.816 85.816 24.52 86.264 21.944L85.298 21.692C84.808 24.548 84.248 26.928 83.604 28.832H79.292ZM81.266 21.846L80.342 22.14C80.804 24.072 81.196 26.074 81.504 28.146L82.442 27.908C82.106 25.626 81.714 23.61 81.266 21.846ZM79.32 23.092C78.788 23.386 78.256 23.666 77.71 23.918V21.104H79.264V20.138H77.71V17.604H76.688V20.138H74.77V21.104H76.688V24.338C76.002 24.59 75.288 24.814 74.56 24.996L74.812 26.004C75.442 25.808 76.072 25.584 76.688 25.346V28.776C76.688 29.168 76.492 29.364 76.114 29.364C75.75 29.364 75.372 29.336 74.98 29.308L75.204 30.288H76.464C77.29 30.288 77.71 29.868 77.71 29.028V24.912C78.256 24.66 78.788 24.394 79.32 24.114V23.092ZM88.924 18.486V19.382H92.144V20.418H93.124V19.382H96.876V20.348H97.856V19.382H101.034V18.486H97.856V17.562H96.876V18.486H93.124V17.576H92.144V18.486H88.924ZM98.85 22C98.388 22.826 97.842 23.54 97.212 24.142L97.954 24.688C98.626 24.044 99.2 23.274 99.69 22.406L98.85 22ZM94.916 22.322L94.076 22.588C94.342 23.12 94.566 23.694 94.748 24.282L95.644 24.058C95.434 23.4 95.196 22.826 94.916 22.322ZM91.318 22.504L90.464 22.784C90.828 23.414 91.178 24.142 91.486 24.954L92.312 24.59C92.032 23.848 91.696 23.148 91.318 22.504ZM99.62 20.446C96.988 20.852 93.684 21.062 89.708 21.062L90.016 22C94.216 22 97.576 21.748 100.11 21.272L99.62 20.446ZM89.134 25.528V26.466H93.53C92.494 27.544 90.898 28.44 88.714 29.14L89.274 30.078C91.64 29.126 93.348 27.922 94.412 26.466H94.51V30.4H95.49V26.466H95.588C96.568 27.782 98.262 28.986 100.642 30.078L101.328 29.196C99.088 28.398 97.464 27.488 96.456 26.466H100.866V25.528H95.49V24.632H94.51V25.528H89.134ZM104.114 19.746V25.5H108.496V26.83H102.784V27.782H108.496V30.442H109.504V27.782H115.216V26.83H109.504V25.5H113.886V19.746H111.198C111.618 19.172 111.996 18.528 112.332 17.814L111.352 17.464C111.002 18.276 110.596 19.046 110.148 19.746H104.114ZM112.906 24.604H109.504V23.036H112.906V24.604ZM108.496 24.604H105.094V23.036H108.496V24.604ZM105.094 22.168V20.628H108.496V22.168H105.094ZM109.504 20.628H112.906V22.168H109.504V20.628ZM106.592 17.534L105.738 17.94C106.214 18.472 106.648 19.06 107.068 19.732L107.908 19.312C107.488 18.668 107.054 18.066 106.592 17.534Z" fill="#4E5969"/>
<path d="M123.008 19.004V29H126.48C128.048 29 129.252 28.538 130.092 27.628C130.89 26.76 131.296 25.542 131.296 24.002C131.296 22.434 130.918 21.216 130.176 20.376C129.364 19.452 128.174 19.004 126.592 19.004H123.008ZM124.156 19.998H126.41C127.726 19.998 128.678 20.334 129.294 21.02C129.868 21.664 130.162 22.658 130.162 24.002C130.162 25.304 129.84 26.298 129.224 26.97C128.566 27.656 127.586 28.006 126.284 28.006H124.156V19.998ZM135.931 21.566C135.427 21.566 134.993 21.72 134.615 22.028C134.307 22.266 134.055 22.602 133.859 23.022V21.762H132.753V29H133.859V25.164C133.859 24.492 134.041 23.918 134.433 23.442C134.811 22.938 135.287 22.7 135.847 22.7C136.197 22.7 136.561 22.742 136.925 22.854V21.734C136.659 21.622 136.323 21.566 135.931 21.566ZM141.1 21.566C140.008 21.566 139.154 21.93 138.51 22.686C137.894 23.4 137.586 24.296 137.586 25.388C137.586 26.466 137.894 27.362 138.51 28.062C139.154 28.818 140.008 29.196 141.1 29.196C142.178 29.196 143.046 28.818 143.704 28.062C144.306 27.362 144.614 26.466 144.614 25.388C144.614 24.296 144.306 23.4 143.69 22.686C143.046 21.93 142.178 21.566 141.1 21.566ZM141.1 22.504C141.856 22.504 142.458 22.798 142.906 23.386C143.284 23.918 143.48 24.576 143.48 25.388C143.48 26.172 143.284 26.844 142.906 27.376C142.458 27.964 141.856 28.258 141.1 28.258C140.33 28.258 139.728 27.964 139.308 27.376C138.916 26.844 138.734 26.186 138.734 25.388C138.734 24.576 138.916 23.918 139.308 23.386C139.728 22.798 140.33 22.504 141.1 22.504ZM149.527 21.566C148.435 21.566 147.637 22.028 147.119 22.952V21.762H146.069V31.772H147.189V27.684C147.749 28.692 148.547 29.196 149.583 29.196C150.619 29.196 151.417 28.804 152.005 28.048C152.537 27.348 152.817 26.466 152.817 25.402C152.817 24.31 152.537 23.428 151.991 22.728C151.389 21.944 150.563 21.566 149.527 21.566ZM149.387 22.49C150.157 22.49 150.745 22.77 151.151 23.358C151.487 23.862 151.669 24.548 151.669 25.402C151.669 26.27 151.487 26.956 151.123 27.46C150.717 27.992 150.129 28.272 149.345 28.272C148.673 28.272 148.155 28.006 147.763 27.502C147.343 26.984 147.147 26.312 147.147 25.472V25.332C147.147 24.52 147.329 23.848 147.693 23.344C148.085 22.77 148.659 22.49 149.387 22.49ZM159.62 18.808V23.092C159.06 22.07 158.262 21.566 157.226 21.566C156.19 21.566 155.392 21.944 154.804 22.728C154.258 23.428 153.992 24.296 153.992 25.36C153.992 26.452 154.258 27.348 154.804 28.048C155.392 28.804 156.218 29.196 157.282 29.196C158.374 29.196 159.186 28.734 159.69 27.81V29H160.74V18.808H159.62ZM157.464 22.49C158.108 22.49 158.64 22.742 159.046 23.274C159.438 23.792 159.648 24.478 159.648 25.318V25.458C159.648 26.27 159.466 26.928 159.116 27.432C158.71 27.992 158.15 28.272 157.422 28.272C156.638 28.272 156.05 27.978 155.658 27.418C155.308 26.914 155.14 26.228 155.14 25.36C155.14 24.492 155.308 23.82 155.672 23.33C156.064 22.77 156.666 22.49 157.464 22.49ZM165.709 21.566C164.617 21.566 163.763 21.93 163.119 22.686C162.503 23.4 162.195 24.296 162.195 25.388C162.195 26.466 162.503 27.362 163.119 28.062C163.763 28.818 164.617 29.196 165.709 29.196C166.787 29.196 167.655 28.818 168.313 28.062C168.915 27.362 169.223 26.466 169.223 25.388C169.223 24.296 168.915 23.4 168.299 22.686C167.655 21.93 166.787 21.566 165.709 21.566ZM165.709 22.504C166.465 22.504 167.067 22.798 167.515 23.386C167.893 23.918 168.089 24.576 168.089 25.388C168.089 26.172 167.893 26.844 167.515 27.376C167.067 27.964 166.465 28.258 165.709 28.258C164.939 28.258 164.337 27.964 163.917 27.376C163.525 26.844 163.343 26.186 163.343 25.388C163.343 24.576 163.525 23.918 163.917 23.386C164.337 22.798 164.939 22.504 165.709 22.504ZM169.881 21.762L172.345 29H173.395L175.103 23.176L176.783 29H177.847L180.311 21.762H179.079L177.301 27.628L175.621 21.762H174.571L172.891 27.628L171.113 21.762H169.881ZM184.635 21.566C184.159 21.566 183.725 21.678 183.333 21.902C182.941 22.112 182.619 22.42 182.367 22.826V21.762H181.247V29H182.367V24.632C182.409 23.974 182.619 23.456 183.011 23.064C183.375 22.7 183.809 22.518 184.313 22.518C185.573 22.518 186.217 23.218 186.217 24.632V29H187.337V24.548C187.337 22.56 186.427 21.566 184.635 21.566Z" fill="#4E5969"/>
<rect width="208" height="48" transform="translate(0 54)" fill="white"/>
<g clip-path="url(#clip1)">
<rect x="3.5" y="57.5" width="41" height="41" rx="20.5" fill="#F7F8FA"/>
<rect x="16" y="68" width="38" height="42.4444" rx="1" fill="#F7F8FA" stroke="#4E5969" stroke-width="2"/>
<rect opacity="0.3" x="21" y="73" width="33" height="27" rx="0.872093" fill="#4E5969"/>
</g>
<rect x="3.5" y="57.5" width="41" height="41" rx="20.5" stroke="white"/>
<path d="M65.796 71.604V76.42H60.77V77.4H65.796V84.386H66.832V79.794C68.036 80.368 69.506 81.194 71.27 82.272L71.844 81.418C70.15 80.424 68.484 79.556 66.832 78.814V77.4H73.216V76.42H66.832V74.32H71.382V73.34H66.832V71.604H65.796ZM78.34 76.252H86.586V75.286H83.436V71.562H82.442V75.286H78.34V71.954H77.318V77.092C77.29 80.116 76.548 82.328 75.078 83.714L75.848 84.386C77.038 83.266 77.808 81.642 78.144 79.542H83.772V84.428H84.78V78.562H78.27C78.298 78.1 78.326 77.61 78.34 77.092V76.252Z" fill="#4E5969"/>
<path d="M99.32 72.808C97.78 72.808 96.576 73.326 95.736 74.39C94.966 75.342 94.588 76.56 94.588 78.044C94.588 79.528 94.952 80.732 95.708 81.656C96.534 82.678 97.724 83.196 99.278 83.196C100.342 83.196 101.266 82.888 102.036 82.286C102.862 81.642 103.38 80.732 103.604 79.57H102.498C102.302 80.438 101.896 81.096 101.308 81.544C100.748 81.964 100.076 82.174 99.278 82.174C98.102 82.174 97.22 81.782 96.604 81.012C96.016 80.284 95.736 79.29 95.736 78.044C95.736 76.798 96.03 75.804 96.618 75.048C97.248 74.236 98.144 73.83 99.306 73.83C100.09 73.83 100.748 74.012 101.294 74.39C101.854 74.782 102.218 75.342 102.358 76.07H103.464C103.324 75.076 102.876 74.278 102.12 73.69C101.364 73.102 100.426 72.808 99.32 72.808ZM108.204 75.566C107.336 75.566 106.65 75.734 106.118 76.07C105.53 76.434 105.152 77.008 104.998 77.764L106.104 77.848C106.216 77.386 106.454 77.036 106.832 76.812C107.168 76.588 107.602 76.49 108.134 76.49C109.394 76.49 110.024 77.092 110.024 78.31V78.688L108.288 78.716C107.196 78.73 106.356 78.94 105.768 79.332C105.096 79.752 104.774 80.368 104.774 81.194C104.774 81.782 104.998 82.272 105.446 82.65C105.88 83.014 106.454 83.196 107.182 83.196C107.854 83.196 108.456 83.042 108.988 82.748C109.436 82.496 109.814 82.174 110.094 81.782V83H111.144V78.352C111.144 77.512 110.92 76.854 110.5 76.378C109.996 75.832 109.24 75.566 108.204 75.566ZM110.024 79.528V80.144C110.024 80.704 109.758 81.208 109.24 81.642C108.708 82.09 108.106 82.314 107.42 82.314C106.972 82.314 106.608 82.202 106.328 81.992C106.048 81.768 105.922 81.502 105.922 81.166C105.922 80.116 106.734 79.584 108.358 79.556L110.024 79.528ZM116.052 75.566C115.548 75.566 115.114 75.72 114.736 76.028C114.428 76.266 114.176 76.602 113.98 77.022V75.762H112.874V83H113.98V79.164C113.98 78.492 114.162 77.918 114.554 77.442C114.932 76.938 115.408 76.7 115.968 76.7C116.318 76.7 116.682 76.742 117.046 76.854V75.734C116.78 75.622 116.444 75.566 116.052 75.566ZM123.335 72.808V77.092C122.775 76.07 121.977 75.566 120.941 75.566C119.905 75.566 119.107 75.944 118.519 76.728C117.973 77.428 117.707 78.296 117.707 79.36C117.707 80.452 117.973 81.348 118.519 82.048C119.107 82.804 119.933 83.196 120.997 83.196C122.089 83.196 122.901 82.734 123.405 81.81V83H124.455V72.808H123.335ZM121.179 76.49C121.823 76.49 122.355 76.742 122.761 77.274C123.153 77.792 123.363 78.478 123.363 79.318V79.458C123.363 80.27 123.181 80.928 122.831 81.432C122.425 81.992 121.865 82.272 121.137 82.272C120.353 82.272 119.765 81.978 119.373 81.418C119.023 80.914 118.855 80.228 118.855 79.36C118.855 78.492 119.023 77.82 119.387 77.33C119.779 76.77 120.381 76.49 121.179 76.49Z" fill="#4E5969"/>
<rect width="208" height="48" transform="translate(0 108)" fill="white"/>
<g clip-path="url(#clip2)">
<rect x="3.5" y="111.5" width="41" height="41" rx="20.5" fill="#F7F8FA"/>
<rect opacity="0.3" x="13.5073" y="119.362" width="33.5" height="25.125" rx="0.872093" fill="#4E5969"/>
<path d="M21.1497 137.274L24.012 132.301C24.3199 131.766 25.0423 131.65 25.5018 132.062L29.0087 135.207C29.4934 135.642 30.2601 135.486 30.5363 134.896L34.1792 127.118C34.5375 126.353 35.6343 126.379 35.9563 127.16L40.1732 137.388C40.4367 138.028 39.9668 138.729 39.2754 138.729H21.9912C21.2443 138.729 20.7771 137.921 21.1497 137.274Z" fill="#4E5969"/>
<circle cx="22.9292" cy="126.167" r="2.09375" fill="#4E5969"/>
</g>
<rect x="3.5" y="111.5" width="41" height="41" rx="20.5" stroke="white"/>
<path d="M65.656 127.382C65.208 128.446 64.34 129.356 63.066 130.112L63.626 130.84C64.158 130.504 64.634 130.14 65.054 129.748C65.446 130.168 65.922 130.56 66.468 130.924C65.488 131.386 64.27 131.75 62.828 132.002L63.276 132.814C64.872 132.464 66.202 132.002 67.28 131.428C68.26 131.974 69.422 132.422 70.78 132.786L71.312 132.03C70.108 131.75 69.044 131.372 68.106 130.924C68.904 130.364 69.492 129.706 69.884 128.964V128.264H66.188C66.328 128.012 66.44 127.76 66.552 127.494L65.656 127.382ZM67.28 130.49C66.636 130.098 66.062 129.664 65.572 129.188C65.6 129.132 65.642 129.076 65.698 129.02H68.876C68.498 129.58 67.966 130.07 67.28 130.49ZM64.508 134.256L64.116 135.012C65.992 135.376 67.798 135.894 69.534 136.566L69.87 135.754C68.162 135.11 66.37 134.606 64.508 134.256ZM65.964 132.296L65.502 132.968C66.538 133.304 67.532 133.752 68.498 134.34L68.974 133.612C68.064 133.108 67.056 132.66 65.964 132.296ZM72.712 126.178H61.288V138.4H62.268V137.826H71.732V138.4H72.712V126.178ZM62.268 136.93V127.074H71.732V136.93H62.268ZM78.34 130.252H86.586V129.286H83.436V125.562H82.442V129.286H78.34V125.954H77.318V131.092C77.29 134.116 76.548 136.328 75.078 137.714L75.848 138.386C77.038 137.266 77.808 135.642 78.144 133.542H83.772V138.428H84.78V132.562H78.27C78.298 132.1 78.326 131.61 78.34 131.092V130.252Z" fill="#4E5969"/>
<path d="M95.092 127.004V137H96.226V127.004H95.092ZM101.354 129.566C100.542 129.566 99.8563 129.944 99.3103 130.728V129.762H98.1903V137H99.3103V132.59C99.3103 132.016 99.4783 131.526 99.8143 131.134C100.15 130.714 100.57 130.518 101.088 130.518C102.194 130.518 102.754 131.148 102.754 132.436V137H103.874V132.464C103.874 131.876 104.028 131.414 104.364 131.05C104.672 130.686 105.078 130.518 105.554 130.518C106.17 130.518 106.618 130.672 106.898 131.008C107.164 131.316 107.304 131.792 107.304 132.436V137H108.424V132.254C108.424 131.428 108.186 130.77 107.738 130.28C107.262 129.804 106.66 129.566 105.904 129.566C105.4 129.566 104.98 129.678 104.63 129.902C104.238 130.112 103.902 130.462 103.622 130.938C103.216 130.014 102.46 129.566 101.354 129.566ZM113.317 129.566C112.449 129.566 111.763 129.734 111.231 130.07C110.643 130.434 110.265 131.008 110.111 131.764L111.217 131.848C111.329 131.386 111.567 131.036 111.945 130.812C112.281 130.588 112.715 130.49 113.247 130.49C114.507 130.49 115.137 131.092 115.137 132.31V132.688L113.401 132.716C112.309 132.73 111.469 132.94 110.881 133.332C110.209 133.752 109.887 134.368 109.887 135.194C109.887 135.782 110.111 136.272 110.559 136.65C110.993 137.014 111.567 137.196 112.295 137.196C112.967 137.196 113.569 137.042 114.101 136.748C114.549 136.496 114.927 136.174 115.207 135.782V137H116.257V132.352C116.257 131.512 116.033 130.854 115.613 130.378C115.109 129.832 114.353 129.566 113.317 129.566ZM115.137 133.528V134.144C115.137 134.704 114.871 135.208 114.353 135.642C113.821 136.09 113.219 136.314 112.533 136.314C112.085 136.314 111.721 136.202 111.441 135.992C111.161 135.768 111.035 135.502 111.035 135.166C111.035 134.116 111.847 133.584 113.471 133.556L115.137 133.528ZM120.969 129.566C119.961 129.566 119.163 129.916 118.575 130.63C117.987 131.302 117.707 132.156 117.707 133.22C117.707 134.27 117.987 135.124 118.575 135.796C119.163 136.482 119.961 136.832 120.969 136.832C122.061 136.832 122.873 136.342 123.405 135.376V136.65C123.405 138.246 122.677 139.058 121.221 139.058C120.563 139.058 120.073 138.932 119.751 138.694C119.429 138.47 119.219 138.106 119.135 137.616H118.015C118.141 138.4 118.463 138.988 118.981 139.38C119.485 139.772 120.241 139.968 121.221 139.968C123.419 139.968 124.525 138.806 124.525 136.496V129.762H123.405V131.008C122.873 130.042 122.061 129.566 120.969 129.566ZM121.137 130.49C121.851 130.49 122.411 130.742 122.831 131.274C123.223 131.75 123.419 132.408 123.419 133.22C123.419 134.004 123.223 134.648 122.831 135.138C122.411 135.642 121.851 135.894 121.123 135.894C120.339 135.894 119.765 135.614 119.373 135.082C119.023 134.606 118.855 133.976 118.855 133.22C118.855 132.408 119.051 131.75 119.443 131.274C119.849 130.742 120.409 130.49 121.137 130.49ZM129.241 129.566C128.191 129.566 127.365 129.944 126.749 130.7C126.133 131.414 125.839 132.31 125.839 133.374C125.839 134.55 126.147 135.474 126.791 136.174C127.407 136.846 128.247 137.196 129.283 137.196C130.221 137.196 130.991 136.916 131.593 136.384C132.083 135.936 132.405 135.376 132.573 134.676H131.453C131.271 135.18 131.033 135.558 130.725 135.81C130.361 136.104 129.871 136.258 129.283 136.258C128.597 136.258 128.051 136.034 127.659 135.586C127.267 135.138 127.057 134.508 127.001 133.696H132.713C132.685 132.436 132.405 131.442 131.873 130.742C131.285 129.958 130.403 129.566 129.241 129.566ZM129.269 130.504C130.641 130.504 131.411 131.274 131.551 132.828H127.029C127.099 132.114 127.323 131.554 127.715 131.134C128.107 130.714 128.625 130.504 129.269 130.504Z" fill="#4E5969"/>
<rect width="208" height="48" transform="translate(0 162)" fill="white"/>
<g clip-path="url(#clip3)">
<rect x="3.5" y="165.5" width="41" height="41" rx="20.5" fill="#F7F8FA"/>
<rect x="13.0625" y="174" width="11.25" height="2.40625" rx="1" fill="#4E5969"/>
<rect opacity="0.3" x="13.0625" y="178.625" width="14.0625" height="5.40625" rx="1" fill="#4E5969"/>
<rect x="13.0625" y="190.875" width="11.25" height="2.40625" rx="1" fill="#4E5969"/>
<rect opacity="0.3" x="13.0625" y="195.5" width="16.875" height="5.40625" rx="1" fill="#4E5969"/>
<rect x="35.5625" y="174" width="11.25" height="2.40625" rx="1" fill="#4E5969"/>
<rect opacity="0.3" x="35.5625" y="178.625" width="14.7656" height="5.40625" rx="1" fill="#4E5969"/>
<rect x="35.5625" y="190.875" width="11.25" height="2.40625" rx="1" fill="#4E5969"/>
<rect opacity="0.3" x="35.5625" y="195.5" width="14.7656" height="5.40625" rx="1" fill="#4E5969"/>
</g>
<rect x="3.5" y="165.5" width="41" height="41" rx="20.5" stroke="white"/>
<path d="M72.824 184.322H65.838V192.372H66.818V191.784H71.844V192.372H72.824V184.322ZM66.818 190.846V188.536H68.876V190.846H66.818ZM69.8 190.846V188.536H71.844V190.846H69.8ZM66.818 187.626V185.26H68.876V187.626H66.818ZM69.8 185.26H71.844V187.626H69.8V185.26ZM62.324 192.218C63.108 192.218 63.514 191.812 63.514 191.014V186.884C64.032 186.646 64.55 186.394 65.068 186.114V185.106C64.564 185.386 64.046 185.652 63.514 185.89V183.09H64.872V182.11H63.514V179.548H62.506V182.11H60.742V183.09H62.506V186.296C61.834 186.548 61.162 186.758 60.476 186.94L60.728 187.948C61.316 187.752 61.918 187.542 62.506 187.318V190.762C62.506 191.126 62.324 191.322 61.974 191.322C61.61 191.322 61.218 191.294 60.826 191.252L61.036 192.218H62.324ZM67.14 179.59V181.186H65.292V182.124H67.14V183.678H68.092V182.124H70.528V183.692H71.48V182.124H73.328V181.186H71.48V179.59H70.528V181.186H68.092V179.59H67.14ZM84.234 184.014L83.492 184.49C84.71 186.184 85.676 187.724 86.39 189.124L87.216 188.536C86.53 187.248 85.536 185.75 84.234 184.014ZM75.708 179.786L75.008 180.444C76.03 181.242 76.828 181.984 77.416 182.67L78.13 181.956C77.472 181.228 76.66 180.514 75.708 179.786ZM83.954 192.148H87.132L87.37 191.14C87.006 191.168 86.488 191.182 85.816 191.196C85.13 191.21 84.458 191.224 83.814 191.224C82.722 191.224 81.812 191.21 81.084 191.196C80.272 191.168 79.642 191.056 79.208 190.86C78.816 190.678 78.466 190.384 78.13 189.978C78.018 189.852 77.906 189.74 77.794 189.656V184.42H74.854V185.344H76.856V189.6C76.282 189.852 75.624 190.566 74.882 191.742L75.638 192.428C76.408 191.14 76.954 190.496 77.29 190.496C77.458 190.496 77.64 190.608 77.836 190.846C78.256 191.35 78.746 191.7 79.306 191.868C79.866 192.022 80.594 192.106 81.49 192.12C82.372 192.134 83.198 192.148 83.954 192.148ZM81.77 183.16C80.888 185.302 79.768 187.052 78.41 188.424L79.082 189.208C80.398 187.78 81.49 186.03 82.386 183.944V190.524H83.366V183.16H87.132V182.222H83.366V179.646H82.386V182.222H78.606V183.16H81.77ZM85.34 179.576L84.514 179.842C84.948 180.43 85.354 181.102 85.718 181.872L86.516 181.508C86.18 180.822 85.788 180.178 85.34 179.576ZM99.396 192.274C100.348 192.274 100.824 191.77 100.824 190.79V179.66H99.816V190.552C99.816 191.098 99.55 191.378 99.046 191.378C98.486 191.378 97.884 191.35 97.268 191.308L97.492 192.274H99.396ZM96.834 180.724V189.572H97.814V180.724H96.834ZM89.008 180.164V181.144H91.178C90.884 183.44 90.044 185.232 88.672 186.548L89.148 187.486C89.526 187.136 89.876 186.744 90.198 186.324C91.122 186.828 91.934 187.374 92.648 187.962C91.752 189.418 90.506 190.552 88.924 191.364L89.414 192.26C92.522 190.678 94.426 187.906 95.112 183.958V183.062H91.78C91.948 182.46 92.074 181.816 92.172 181.144H95.798V180.164H89.008ZM90.702 185.554C90.982 185.078 91.234 184.574 91.458 184.014H94.146C93.922 185.148 93.572 186.184 93.11 187.122C92.41 186.576 91.612 186.058 90.702 185.554ZM103.456 180.78V181.704H108.482V183.034H104.268V183.958H108.482V185.288H102.966V186.198H107.46C106.424 187.416 104.8 188.41 102.56 189.194L103.092 190.062C104.044 189.684 104.884 189.264 105.64 188.802V191C105.64 191.224 105.486 191.392 105.192 191.504L105.528 192.372C107.026 192.008 108.496 191.532 109.952 190.944L109.756 190.006C108.72 190.426 107.684 190.804 106.634 191.112V188.13C107.404 187.542 108.034 186.898 108.524 186.198H109.014C110.19 189.236 112.094 191.28 114.698 192.33L115.23 191.448C113.928 190.958 112.808 190.216 111.884 189.236C112.78 188.844 113.578 188.284 114.292 187.57L113.592 186.898C112.864 187.668 112.108 188.228 111.324 188.592C110.778 187.892 110.316 187.094 109.938 186.198H115.034V185.288H109.518V183.958H113.732V183.034H109.518V181.704H114.544V180.78H109.518V179.59H108.482V180.78H103.456Z" fill="#4E5969"/>
<path d="M123.008 181.004V191H126.48C128.048 191 129.252 190.538 130.092 189.628C130.89 188.76 131.296 187.542 131.296 186.002C131.296 184.434 130.918 183.216 130.176 182.376C129.364 181.452 128.174 181.004 126.592 181.004H123.008ZM124.156 181.998H126.41C127.726 181.998 128.678 182.334 129.294 183.02C129.868 183.664 130.162 184.658 130.162 186.002C130.162 187.304 129.84 188.298 129.224 188.97C128.566 189.656 127.586 190.006 126.284 190.006H124.156V181.998ZM135.735 183.566C134.685 183.566 133.859 183.944 133.243 184.7C132.627 185.414 132.333 186.31 132.333 187.374C132.333 188.55 132.641 189.474 133.285 190.174C133.901 190.846 134.741 191.196 135.777 191.196C136.715 191.196 137.485 190.916 138.087 190.384C138.577 189.936 138.899 189.376 139.067 188.676H137.947C137.765 189.18 137.527 189.558 137.219 189.81C136.855 190.104 136.365 190.258 135.777 190.258C135.091 190.258 134.545 190.034 134.153 189.586C133.761 189.138 133.551 188.508 133.495 187.696H139.207C139.179 186.436 138.899 185.442 138.367 184.742C137.779 183.958 136.897 183.566 135.735 183.566ZM135.763 184.504C137.135 184.504 137.905 185.274 138.045 186.828H133.523C133.593 186.114 133.817 185.554 134.209 185.134C134.601 184.714 135.119 184.504 135.763 184.504ZM143.08 183.566C142.268 183.566 141.596 183.748 141.092 184.112C140.546 184.476 140.28 184.952 140.28 185.568C140.28 186.184 140.546 186.646 141.106 186.982C141.442 187.206 142.044 187.416 142.898 187.626C143.682 187.822 144.2 187.976 144.438 188.088C144.886 188.312 145.124 188.62 145.124 189.026C145.124 189.838 144.466 190.258 143.178 190.258C142.562 190.258 142.1 190.146 141.792 189.922C141.484 189.67 141.274 189.264 141.19 188.69H140.098C140.266 190.356 141.302 191.196 143.206 191.196C145.25 191.196 146.272 190.44 146.272 188.956C146.272 188.326 145.978 187.836 145.404 187.472C145.026 187.234 144.41 187.01 143.542 186.8C142.814 186.604 142.31 186.45 142.044 186.324C141.624 186.114 141.428 185.848 141.428 185.54C141.428 185.218 141.582 184.966 141.89 184.784C142.17 184.588 142.562 184.504 143.066 184.504C143.64 184.504 144.088 184.616 144.396 184.84C144.676 185.036 144.858 185.372 144.956 185.82H146.048C145.852 184.308 144.872 183.566 143.08 183.566ZM150.709 183.566C149.631 183.566 148.777 183.944 148.161 184.714C147.587 185.414 147.307 186.31 147.307 187.416C147.307 188.522 147.587 189.418 148.161 190.104C148.763 190.832 149.603 191.196 150.695 191.196C151.591 191.196 152.305 190.958 152.851 190.496C153.411 190.02 153.761 189.306 153.929 188.382H152.809C152.641 189.628 151.927 190.258 150.695 190.258C149.967 190.258 149.407 189.992 149.029 189.488C148.637 188.984 148.455 188.284 148.455 187.402C148.455 186.52 148.651 185.82 149.043 185.302C149.449 184.77 150.009 184.504 150.709 184.504C151.283 184.504 151.745 184.63 152.109 184.91C152.459 185.19 152.683 185.61 152.781 186.17H153.887C153.761 185.288 153.425 184.63 152.865 184.196C152.319 183.776 151.605 183.566 150.709 183.566ZM158.421 183.566C157.917 183.566 157.483 183.72 157.105 184.028C156.797 184.266 156.545 184.602 156.349 185.022V183.762H155.243V191H156.349V187.164C156.349 186.492 156.531 185.918 156.923 185.442C157.301 184.938 157.777 184.7 158.337 184.7C158.687 184.7 159.051 184.742 159.415 184.854V183.734C159.149 183.622 158.813 183.566 158.421 183.566ZM161.28 181.032C161.042 181.032 160.846 181.102 160.678 181.27C160.51 181.41 160.44 181.606 160.44 181.858C160.44 182.096 160.51 182.292 160.678 182.46C160.846 182.614 161.042 182.698 161.28 182.698C161.518 182.698 161.714 182.614 161.882 182.46C162.05 182.292 162.134 182.096 162.134 181.858C162.134 181.606 162.05 181.41 161.882 181.27C161.714 181.102 161.518 181.032 161.28 181.032ZM160.72 183.762V191H161.84V183.762H160.72ZM167.396 183.566C166.304 183.566 165.506 184.028 164.988 184.952V183.762H163.938V193.772H165.058V189.684C165.618 190.692 166.416 191.196 167.452 191.196C168.488 191.196 169.286 190.804 169.874 190.048C170.406 189.348 170.686 188.466 170.686 187.402C170.686 186.31 170.406 185.428 169.86 184.728C169.258 183.944 168.432 183.566 167.396 183.566ZM167.256 184.49C168.026 184.49 168.614 184.77 169.02 185.358C169.356 185.862 169.538 186.548 169.538 187.402C169.538 188.27 169.356 188.956 168.992 189.46C168.586 189.992 167.998 190.272 167.214 190.272C166.542 190.272 166.024 190.006 165.632 189.502C165.212 188.984 165.016 188.312 165.016 187.472V187.332C165.016 186.52 165.198 185.848 165.562 185.344C165.954 184.77 166.528 184.49 167.256 184.49ZM174.073 181.424L172.967 181.886V183.762H171.511V184.7H172.967V189.306C172.967 189.852 173.079 190.258 173.317 190.538C173.569 190.846 174.003 191 174.591 191H175.683V190.062H174.759C174.507 190.062 174.325 189.992 174.227 189.88C174.115 189.768 174.073 189.572 174.073 189.306V184.7H175.865V183.762H174.073V181.424ZM178.098 189.334C177.846 189.334 177.65 189.418 177.496 189.586C177.328 189.754 177.244 189.95 177.244 190.202C177.244 190.44 177.328 190.636 177.496 190.804C177.65 190.972 177.846 191.056 178.098 191.056C178.322 191.056 178.532 190.972 178.7 190.804C178.868 190.636 178.952 190.44 178.952 190.202C178.952 189.95 178.868 189.754 178.7 189.586C178.532 189.418 178.322 189.334 178.098 189.334ZM181.789 189.334C181.537 189.334 181.341 189.418 181.187 189.586C181.019 189.754 180.935 189.95 180.935 190.202C180.935 190.44 181.019 190.636 181.187 190.804C181.341 190.972 181.537 191.056 181.789 191.056C182.013 191.056 182.223 190.972 182.391 190.804C182.559 190.636 182.643 190.44 182.643 190.202C182.643 189.95 182.559 189.754 182.391 189.586C182.223 189.418 182.013 189.334 181.789 189.334ZM185.481 189.334C185.229 189.334 185.033 189.418 184.879 189.586C184.711 189.754 184.627 189.95 184.627 190.202C184.627 190.44 184.711 190.636 184.879 190.804C185.033 190.972 185.229 191.056 185.481 191.056C185.705 191.056 185.915 190.972 186.083 190.804C186.251 190.636 186.335 190.44 186.335 190.202C186.335 189.95 186.251 189.754 186.083 189.586C185.915 189.418 185.705 189.334 185.481 189.334Z" fill="#4E5969"/>
<rect width="208" height="48" transform="translate(0 216)" fill="white"/>
<rect x="3.5" y="219.5" width="41" height="41" rx="20.5" fill="#F7F8FA"/>
<rect x="11.5803" y="243.482" width="7.42857" height="7.42857" rx="3.71429" transform="rotate(-90 11.5803 243.482)" fill="#4E5969"/>
<g opacity="0.7">
<rect x="20.5178" y="252.42" width="7.42857" height="7.42857" rx="3.71429" transform="rotate(-90 20.5178 252.42)" fill="#4E5969"/>
</g>
<g opacity="0.2">
<rect x="20.5178" y="234.545" width="7.42857" height="7.42857" rx="3.71429" transform="rotate(-90 20.5178 234.545)" fill="#4E5969"/>
</g>
<g opacity="0.4">
<rect x="29.4553" y="243.482" width="7.42857" height="7.42857" rx="3.71429" transform="rotate(-90 29.4553 243.482)" fill="#4E5969"/>
</g>
<rect x="3.5" y="219.5" width="41" height="41" rx="20.5" stroke="white"/>
<path d="M72.754 235.648H68.176V246.19H69.142V245.252H71.774V246.19H72.754V235.648ZM69.142 244.286V236.614H71.774V244.286H69.142ZM63.024 233.604V236.432H60.784V237.412H63.024C62.982 241.248 62.142 244.048 60.518 245.798L61.26 246.456C63.052 244.552 63.976 241.542 64.032 237.412H65.894C65.866 241.164 65.81 243.418 65.726 244.146C65.614 244.944 65.194 245.35 64.48 245.35C64.144 245.35 63.752 245.322 63.304 245.294L63.556 246.218C64.06 246.246 64.41 246.274 64.62 246.274C65.852 246.274 66.538 245.686 66.678 244.538C66.818 243.502 66.888 240.8 66.888 236.432H64.032V233.604H63.024ZM75.568 234.696V235.62H78.298V236.908H74.84V237.818H82.694C82.778 239.078 82.932 240.156 83.128 241.08C83.282 241.822 83.464 242.494 83.66 243.11C82.946 244.188 82.078 245 81.07 245.56L81.616 246.372C82.54 245.868 83.366 245.154 84.094 244.202C84.206 244.468 84.346 244.72 84.5 244.958C85.046 245.798 85.564 246.232 86.04 246.232C86.628 246.232 87.062 245.294 87.37 243.432L86.502 242.97C86.334 244.454 86.138 245.196 85.914 245.21C85.69 245.21 85.396 244.86 85.032 244.174C84.906 243.922 84.78 243.642 84.668 243.32C85.368 242.144 85.942 240.674 86.39 238.924L85.494 238.518C85.186 239.834 84.78 241.01 84.276 242.018C84.192 241.654 84.108 241.276 84.024 240.87C83.87 240.086 83.758 239.064 83.674 237.818H87.146V236.908H83.618C83.562 235.9 83.534 234.766 83.534 233.492H82.554C82.554 234.724 82.582 235.858 82.638 236.908H79.278V235.62H81.812V234.696H79.278V233.52H78.298V234.696H75.568ZM84.976 233.674L84.206 234.164C84.906 234.934 85.452 235.634 85.844 236.264L86.6 235.732C86.222 235.144 85.676 234.458 84.976 233.674ZM81.812 243.544C81.126 243.628 80.398 243.712 79.628 243.796V242.648H81.756V241.794H79.628V240.702H78.634V241.794H76.828C77.178 241.29 77.514 240.716 77.822 240.072H81.882V239.176H78.214C78.326 238.896 78.438 238.602 78.55 238.294L77.584 238.112C77.458 238.476 77.332 238.84 77.192 239.176H75.26V240.072H76.8C76.464 240.772 76.1 241.346 75.708 241.822L75.904 242.648H78.634V243.894C77.598 243.978 76.492 244.062 75.316 244.132L75.442 245.07C76.562 244.986 77.626 244.902 78.634 244.804V246.358H79.628V244.706C80.384 244.622 81.112 244.524 81.812 244.44V243.544ZM94.482 233.506V236.026H89.47V242.606H90.478V241.724H94.482V246.498H95.518V241.724H99.536V242.606H100.544V236.026H95.518V233.506H94.482ZM90.478 240.744V237.006H94.482V240.744H90.478ZM95.518 240.744V237.006H99.536V240.744H95.518Z" fill="#4E5969"/>
<path d="M112.368 234.808C111.332 234.808 110.478 235.032 109.82 235.48C109.078 235.956 108.714 236.642 108.714 237.51C108.714 238.35 109.092 238.994 109.862 239.442C110.184 239.61 110.954 239.89 112.158 240.254C113.278 240.576 113.992 240.814 114.272 240.982C114.93 241.332 115.266 241.822 115.266 242.452C115.266 242.984 115.014 243.404 114.51 243.712C114.006 244.02 113.334 244.174 112.522 244.174C111.626 244.174 110.954 243.978 110.492 243.614C109.988 243.208 109.68 242.564 109.582 241.696H108.448C108.532 242.928 108.966 243.838 109.75 244.44C110.422 244.944 111.346 245.196 112.522 245.196C113.712 245.196 114.65 244.944 115.35 244.454C116.05 243.95 116.4 243.25 116.4 242.382C116.4 241.472 115.98 240.772 115.154 240.268C114.734 240.016 113.866 239.694 112.55 239.302C111.584 239.022 110.968 238.812 110.716 238.672C110.142 238.364 109.862 237.958 109.862 237.454C109.862 236.88 110.1 236.46 110.576 236.18C110.996 235.928 111.57 235.816 112.312 235.816C113.124 235.816 113.754 235.984 114.202 236.348C114.636 236.698 114.916 237.23 115.042 237.958H116.176C116.078 236.908 115.7 236.11 115.028 235.578C114.384 235.06 113.488 234.808 112.368 234.808ZM121.172 237.566C120.08 237.566 119.282 238.028 118.764 238.952V237.762H117.714V247.772H118.834V243.684C119.394 244.692 120.192 245.196 121.228 245.196C122.264 245.196 123.062 244.804 123.65 244.048C124.182 243.348 124.462 242.466 124.462 241.402C124.462 240.31 124.182 239.428 123.636 238.728C123.034 237.944 122.208 237.566 121.172 237.566ZM121.032 238.49C121.802 238.49 122.39 238.77 122.796 239.358C123.132 239.862 123.314 240.548 123.314 241.402C123.314 242.27 123.132 242.956 122.768 243.46C122.362 243.992 121.774 244.272 120.99 244.272C120.318 244.272 119.8 244.006 119.408 243.502C118.988 242.984 118.792 242.312 118.792 241.472V241.332C118.792 240.52 118.974 239.848 119.338 239.344C119.73 238.77 120.304 238.49 121.032 238.49ZM126.841 235.032C126.603 235.032 126.407 235.102 126.239 235.27C126.071 235.41 126.001 235.606 126.001 235.858C126.001 236.096 126.071 236.292 126.239 236.46C126.407 236.614 126.603 236.698 126.841 236.698C127.079 236.698 127.275 236.614 127.443 236.46C127.611 236.292 127.695 236.096 127.695 235.858C127.695 235.606 127.611 235.41 127.443 235.27C127.275 235.102 127.079 235.032 126.841 235.032ZM126.281 237.762V245H127.401V237.762H126.281ZM132.887 237.566C132.411 237.566 131.977 237.678 131.585 237.902C131.193 238.112 130.871 238.42 130.619 238.826V237.762H129.499V245H130.619V240.632C130.661 239.974 130.871 239.456 131.263 239.064C131.627 238.7 132.061 238.518 132.565 238.518C133.825 238.518 134.469 239.218 134.469 240.632V245H135.589V240.548C135.589 238.56 134.679 237.566 132.887 237.566Z" fill="#4E5969"/>
<defs>
<clipPath id="clip0">
</clipPath>
<clipPath id="clip1">
</clipPath>
<clipPath id="clip2">
</clipPath>
<clipPath id="clip3">
</clipPath>
</defs>
</svg>
