<svg width="260" height="143" viewBox="0 0 260 143" fill="none" xmlns="http://www.w3.org/2000/svg">
<path d="M1.28 8.04V9.48H4.36C5.26 12.56 6.86 15.24 9.18 17.52C7.02 19.48 4.26 20.9 0.9 21.8L1.66 23.06C5.06 22.08 7.9 20.54 10.18 18.44C12.34 20.3 15.06 21.84 18.38 23.08L19.16 21.88C15.96 20.7 13.3 19.22 11.18 17.42C13.14 15.3 14.62 12.64 15.6 9.48H18.72V8.04H11.08C10.44 6.66 9.76 5.48 9 4.52L7.56 5.04C8.36 5.98 9.02 6.98 9.56 8.04H1.28ZM5.78 9.48H14.1C13.26 12.24 11.96 14.58 10.18 16.52C8.1 14.52 6.64 12.18 5.78 9.48ZM28.26 11.6V13H36.86V16.16H28.76V17.52H36.86V20.76H27.9V22.16H36.86V23H38.3V11.6H34.18V4.66H32.72V11.6H28.26ZM37.58 5.68C37.06 7.08 36.34 8.5 35.46 9.94L36.7 10.58C37.58 9.18 38.3 7.76 38.86 6.28L37.58 5.68ZM29.26 5.82L28 6.44C28.72 7.64 29.42 9 30.06 10.54L31.3 9.92C30.66 8.44 29.98 7.06 29.26 5.82ZM25.32 12.72C25.88 13.46 26.52 14.44 27.28 15.66L28.1 14.46C27.16 13.22 26.24 12.1 25.32 11.12V9.96H27.7V8.58H25.32V4.68H23.86V8.58H21.14V9.96H23.84C23.22 12.42 22.18 14.62 20.7 16.56L21.32 18.1C22.36 16.54 23.2 14.82 23.86 12.9V22.92H25.32V12.72Z" fill="#1D2129"/>
<path d="M0 37H260" stroke="#E5E6EB"/>
<path d="M5.628 67.704V68.642H8.12V69.86C8.12 70.588 8.064 71.288 7.966 71.932H5.054V72.912H7.77C7.238 75.026 6.062 76.552 4.27 77.504L4.886 78.33C6.748 77.266 7.994 75.628 8.624 73.388C9.506 75.376 10.906 77.014 12.81 78.316L13.496 77.532C11.606 76.356 10.22 74.816 9.352 72.912H13.174V71.932H12.082V67.704H9.1V65.59H8.12V67.704H5.628ZM9.1 68.642H11.102V71.932H8.932C9.044 71.218 9.1 70.462 9.1 69.65V68.642ZM1.064 68.264C1.022 69.608 0.84 70.882 0.532 72.086L1.358 72.324C1.652 71.064 1.82 69.72 1.862 68.32L1.064 68.264ZM4.592 67.956L3.836 68.194C4.228 69.174 4.55 70.182 4.802 71.232L5.628 71.036C5.32 69.874 4.984 68.852 4.592 67.956ZM2.562 65.604V78.344H3.556V65.604H2.562ZM18.956 66.71V67.634H22.526V68.824H19.474V72.394H21.868C21.21 73.472 20.118 74.41 18.578 75.194L19.208 75.992C20.706 75.11 21.812 74.046 22.526 72.8V76.678H23.464V72.394H26.516V68.824H23.464V67.634H26.978V66.71H23.464V65.576H22.526V66.71H18.956ZM25.592 71.498H23.464V69.706H25.592V71.498ZM22.526 71.498H20.412V69.706H22.526V71.498ZM24.57 72.814L23.912 73.43C24.976 74.298 25.802 75.11 26.418 75.894L27.09 75.222C26.404 74.41 25.564 73.612 24.57 72.814ZM15.764 65.786L15.078 66.444C16.1 67.228 16.898 67.97 17.486 68.67L18.2 67.97C17.542 67.242 16.73 66.514 15.764 65.786ZM23.926 78.148H27.146L27.398 77.14C27.034 77.168 26.502 77.182 25.816 77.196C25.13 77.21 24.458 77.224 23.786 77.224C22.694 77.224 21.77 77.21 21.028 77.196C20.188 77.168 19.558 77.056 19.124 76.86C18.732 76.678 18.368 76.384 18.032 75.978C17.906 75.838 17.794 75.74 17.682 75.656V70.42H14.756V71.344H16.744V75.6C16.184 75.852 15.526 76.566 14.798 77.742L15.554 78.428C16.31 77.14 16.856 76.496 17.192 76.496C17.36 76.496 17.542 76.608 17.738 76.846C18.172 77.35 18.662 77.7 19.222 77.868C19.782 78.022 20.524 78.106 21.42 78.12C22.316 78.134 23.156 78.148 23.926 78.148ZM33.824 65.562V76.86H28.784V77.84H41.244V76.86H34.86V70.868H40.054V69.888H34.86V65.562H33.824ZM53.704 65.688C51.03 66.332 47.67 66.668 43.61 66.668L43.918 67.578C45.654 67.578 47.264 67.508 48.748 67.396V69.678H43.89V70.658H48.748V72.954H42.728V73.92H48.748V76.762C48.748 77.154 48.524 77.364 48.104 77.364C47.46 77.364 46.774 77.336 46.06 77.308L46.284 78.288H48.454C49.322 78.288 49.77 77.854 49.77 77.014V73.92H55.286V72.954H49.77V70.658H54.236V69.678H49.77V67.312C51.45 67.144 52.92 66.878 54.194 66.542L53.704 65.688Z" fill="#4E5969"/>
<path d="M3.584 95.66C3.584 98.348 3.416 100.56 3.08 102.296C2.66 104.354 1.778 106.062 0.462 107.42L1.162 108.274C2.674 106.762 3.64 104.844 4.074 102.492C4.97 103.57 5.712 104.592 6.272 105.572L7.028 104.802C6.272 103.654 5.362 102.492 4.27 101.33C4.494 99.72 4.606 97.83 4.606 95.66H3.584ZM9.058 95.646C9.044 98.362 8.862 100.588 8.526 102.338C8.078 104.41 7.154 106.132 5.768 107.504L6.468 108.358C8.064 106.804 9.1 104.83 9.548 102.422C9.576 102.282 9.59 102.142 9.618 102.002C10.346 104.48 11.396 106.566 12.768 108.26L13.496 107.392C11.788 105.474 10.584 102.856 9.912 99.524C10.01 98.348 10.066 97.046 10.066 95.646H9.058ZM18.7321 99.762L21.4621 107H22.5961L25.3401 99.762H24.1081L22.0361 105.6L19.9641 99.762H18.7321ZM28.636 97.004C28.3 97.382 27.908 97.718 27.432 98.026C26.956 98.306 26.48 98.502 26.032 98.628V99.776C26.97 99.496 27.754 99.048 28.384 98.404V107H29.532V97.004H28.636ZM43.6073 106.062C42.6553 106.272 41.6893 106.468 40.6953 106.636V104.158H43.2153V103.178H40.6953V101.554H39.6873V103.178H36.9573V104.158H39.6873V106.804C38.6233 106.972 37.5313 107.112 36.4113 107.238L36.6353 108.204C39.1273 107.896 41.4513 107.504 43.6073 107.056V106.062ZM36.5933 96.178V97.13H38.8893C38.0913 98.74 37.4053 99.79 36.8313 100.294C36.7333 100.336 36.5933 100.364 36.4253 100.392L36.6633 101.302C38.7633 101.092 40.7093 100.826 42.4733 100.518C42.6973 100.896 42.8933 101.26 43.0753 101.624L43.9153 101.036C43.4113 100.098 42.6973 98.992 41.7593 97.732L40.9893 98.236C41.3673 98.754 41.7173 99.258 42.0253 99.762C40.7653 99.986 39.4493 100.154 38.0633 100.294C38.6513 99.58 39.2813 98.53 39.9533 97.13H43.5513V96.178H36.5933ZM47.2473 108.274C48.0873 108.274 48.5213 107.84 48.5213 106.986V95.604H47.4993V106.734C47.4993 107.14 47.2893 107.35 46.8973 107.35C46.2813 107.35 45.6373 107.322 44.9653 107.294L45.1893 108.274H47.2473ZM44.6993 96.864V105.53H45.6793V96.864H44.6993ZM54.4294 99.762L57.1594 107H58.2934L61.0374 99.762H59.8054L57.7334 105.6L55.6614 99.762H54.4294ZM65.4533 96.808C64.4453 96.808 63.6193 97.144 63.0033 97.816C62.3873 98.474 62.0653 99.37 62.0653 100.49H63.2133C63.2273 99.608 63.4373 98.936 63.8293 98.488C64.1933 98.012 64.7253 97.788 65.4113 97.788C66.0553 97.788 66.5733 97.956 66.9373 98.292C67.3013 98.628 67.4833 99.09 67.4833 99.706C67.4833 100.35 67.2173 100.952 66.7133 101.498C66.4473 101.778 65.9293 102.184 65.1453 102.744C64.0813 103.472 63.3673 104.074 62.9753 104.522C62.3033 105.264 61.9813 106.09 61.9813 107H68.6453V105.978H63.3953C63.5773 105.306 64.3053 104.536 65.5793 103.682C66.6153 102.982 67.3013 102.436 67.6513 102.072C68.2953 101.372 68.6313 100.588 68.6313 99.72C68.6313 98.852 68.3233 98.138 67.7353 97.606C67.1333 97.074 66.3773 96.808 65.4533 96.808Z" fill="#4E5969"/>
<path d="M12.446 132.24H6.44V138.47H7.42V137.784H11.48V138.442H12.446V132.24ZM7.42 136.888V135.474H11.48V136.888H7.42ZM7.42 134.606V133.136H11.48V134.606H7.42ZM9.394 125.464L8.358 125.632C8.568 126.024 8.764 126.444 8.946 126.92H5.964V127.872H7.042L7.602 130.21H5.614V131.162H13.244V130.21H11.242C11.522 129.468 11.746 128.684 11.9 127.872H13.034V126.92H9.926C9.758 126.374 9.59 125.884 9.394 125.464ZM8.554 130.21L7.98 127.872H10.976C10.836 128.698 10.598 129.482 10.276 130.21H8.554ZM4.886 126.514H1.134V137.042H2.114V135.992H3.92V136.748H4.886V126.514ZM2.114 135.04V131.75H3.92V135.04H2.114ZM2.114 130.798V127.452H3.92V130.798H2.114ZM16.002 126.122V130.938H20.496V132.058H15.75V132.954H20.496V134.13H14.938V135.04H27.062V134.13H21.504V132.954H26.25V132.058H21.504V130.938H26.012V126.122H16.002ZM25.046 130.084H21.462V126.99H25.046V130.084ZM20.538 130.084H16.968V126.99H20.538V130.084ZM16.296 135.614C15.932 136.608 15.526 137.434 15.05 138.078L15.974 138.4C16.464 137.672 16.87 136.832 17.178 135.852L16.296 135.614ZM19.516 135.754L18.62 135.95C18.9 136.65 19.124 137.476 19.32 138.4L20.3 138.176C20.062 137.308 19.796 136.496 19.516 135.754ZM22.442 135.698L21.546 135.894C21.938 136.608 22.26 137.434 22.54 138.372L23.506 138.148C23.198 137.28 22.848 136.454 22.442 135.698ZM25.256 135.53L24.5 136.006C25.2 136.888 25.76 137.686 26.18 138.4L26.978 137.84C26.586 137.182 26.012 136.412 25.256 135.53ZM18.662 127.438L17.85 127.704C18.214 128.334 18.522 128.992 18.774 129.664L19.6 129.44C19.32 128.684 19.012 128.026 18.662 127.438ZM23.24 127.368C22.974 128.166 22.666 128.824 22.302 129.356L23.114 129.65C23.506 129.062 23.828 128.376 24.08 127.592L23.24 127.368ZM32.886 126.724V127.62H34.93V128.67H35.868V127.62H38.122V128.67H39.074V127.62H41.244V126.724H39.074V125.604H38.122V126.724H35.868V125.604H34.93V126.724H32.886ZM36.82 135.516C37.632 136.692 38.934 137.658 40.754 138.442L41.426 137.644C39.774 137.056 38.542 136.286 37.73 135.334H41.272V134.41H37.24C37.324 134.088 37.408 133.738 37.464 133.346H40.334V129.104H33.628V133.346H36.568C36.498 133.71 36.414 134.074 36.302 134.41H32.62V135.334H35.882C35.77 135.53 35.63 135.712 35.49 135.894C34.874 136.608 33.88 137.154 32.48 137.532L32.844 138.372C34.454 137.91 35.574 137.28 36.218 136.468C36.442 136.188 36.652 135.866 36.82 135.516ZM31.528 131.232C31.892 131.806 32.34 132.548 32.858 133.472L33.39 132.674C32.746 131.736 32.13 130.896 31.528 130.168V129.244H32.998V128.334H31.528V125.618H30.576V128.334H28.952V129.244H30.576V129.328C30.156 131.036 29.456 132.548 28.49 133.892L28.924 134.984C29.596 133.906 30.142 132.702 30.576 131.386V138.358H31.528V131.232ZM39.424 132.562H34.538V131.61H39.424V132.562ZM34.538 130.854V129.916H39.424V130.854H34.538ZM42.91 128.068V129.048H49.812C49.924 130.812 50.134 132.352 50.456 133.682C51.296 136.734 52.332 138.302 53.578 138.358C54.292 138.344 54.866 137.322 55.286 135.306L54.376 134.83C54.082 136.398 53.788 137.196 53.508 137.238C53.046 137.238 52.514 136.454 51.926 134.914C51.38 133.346 51.016 131.4 50.848 129.048H55.118V128.068H50.792C50.75 127.284 50.736 126.458 50.736 125.59H49.7C49.7 126.444 49.714 127.27 49.756 128.068H42.91ZM43.12 131.372V132.324H45.584V136.146C44.688 136.286 43.764 136.426 42.84 136.538L43.078 137.49C45.402 137.154 47.586 136.748 49.602 136.258V135.278C48.622 135.53 47.628 135.768 46.592 135.964V132.324H49.056V131.372H43.12ZM52.85 125.66L52.01 126.066C52.486 126.612 52.92 127.228 53.326 127.928L54.166 127.508C53.746 126.836 53.312 126.22 52.85 125.66Z" fill="#4E5969"/>
<path d="M104.898 69.72V70.672H108.566V76.776C108.426 76.748 108.286 76.706 108.16 76.664C107.152 76.342 106.312 75.586 105.64 74.382C105.892 73.654 106.116 72.856 106.284 71.988L105.304 71.82C104.828 74.228 103.932 76.146 102.588 77.574L103.232 78.372C104.03 77.56 104.702 76.552 105.248 75.348C105.822 76.258 106.578 76.93 107.502 77.364C108.734 77.882 110.75 78.148 113.578 78.148H115.146L115.328 77.14C114.572 77.196 113.844 77.224 113.13 77.224C111.73 77.21 110.554 77.126 109.574 76.986V74.088H113.746V73.136H109.574V70.672H113.13V69.72H104.898ZM114.726 66.99H109.644C109.448 66.416 109.224 65.898 109 65.436L107.922 65.604C108.174 66.024 108.412 66.486 108.622 66.99H103.274V70.042H104.254V67.914H113.746V69.972H114.726V66.99ZM118.184 68.278H120.144V70.084H116.756V71.022H120.144V72.492H117.386V77.532H118.366V73.43H120.144V78.414H121.152V73.43H122.916V75.978C122.916 76.342 122.706 76.524 122.314 76.524L121.628 76.482L121.88 77.434H122.622C123.462 77.434 123.882 77.014 123.882 76.188V72.492H121.152V71.022H124.176V70.084H121.152V68.278H123.77V67.34H121.152V65.604H120.144V67.34H118.52C118.632 66.962 118.716 66.556 118.786 66.108L117.834 65.954C117.638 67.284 117.19 68.32 116.49 69.076L117.302 69.664C117.638 69.3 117.932 68.838 118.184 68.278ZM125.002 66.864V75.516H125.982V66.864H125.002ZM127.564 78.274C128.418 78.274 128.852 77.826 128.852 76.958V65.604H127.858V76.706C127.858 77.154 127.634 77.378 127.214 77.378C126.598 77.378 125.954 77.35 125.282 77.308L125.506 78.274H127.564ZM136.496 68.936V72.24H131.96V73.178H136.496V76.93H130.798V77.924H143.216V76.93H137.518V73.178H142.054V72.24H137.518V68.936H142.726V67.942H136.958L137.504 67.732C137.308 67.06 137.042 66.332 136.692 65.534L135.712 65.8C136.048 66.486 136.342 67.2 136.58 67.942H131.288V68.936H136.496ZM154.29 77.224C151.42 77.224 149.586 77.098 148.774 76.846C148.718 76.818 148.648 76.79 148.564 76.762V75.236H150.482V74.34H148.564V72.856H150.832V71.932H144.896V72.856H147.668V76.258C147.234 75.936 146.828 75.488 146.464 74.914C146.534 74.494 146.576 74.06 146.604 73.584L145.708 73.472C145.638 75.068 145.232 76.496 144.476 77.77L145.204 78.414C145.652 77.658 146.002 76.832 146.254 75.936C146.828 76.748 147.486 77.322 148.228 77.63C149.068 77.994 151.154 78.176 154.514 78.176H157.272L157.44 77.168C156.74 77.196 155.69 77.224 154.29 77.224ZM145.526 66.108V70.994H150.3V66.108H145.526ZM149.32 70.154H146.506V68.964H149.32V70.154ZM146.506 68.18V66.948H149.32V68.18H146.506ZM151.028 66.122V67.046H153.646C153.604 67.424 153.548 67.802 153.464 68.166H151.462V73.822H152.358V69.034H155.746V73.822H156.684V68.166H154.374C154.458 67.802 154.514 67.438 154.556 67.046H157.076V66.122H151.028ZM155.06 73.864L154.388 74.508C155.298 75.236 156.012 75.936 156.53 76.58L157.244 75.88C156.656 75.208 155.928 74.536 155.06 73.864ZM153.59 69.692V71.666C153.562 72.716 153.352 73.57 152.988 74.228C152.582 74.858 151.882 75.362 150.874 75.726L151.42 76.594C152.484 76.174 153.268 75.6 153.744 74.858C154.22 74.06 154.486 72.996 154.514 71.666V69.692H153.59Z" fill="#4E5969"/>
<path d="M109.154 96.15V97.102H111.716C111.66 97.62 111.59 98.124 111.478 98.6H109.574V105.32H110.512V99.51H113.942V105.32H114.908V98.6H112.472C112.584 98.124 112.668 97.634 112.738 97.102H115.3V96.15H109.154ZM113.144 105.334L112.472 105.978C113.396 106.818 114.124 107.616 114.656 108.358L115.37 107.644C114.754 106.874 114.012 106.104 113.144 105.334ZM111.716 100.294V102.702C111.688 103.948 111.45 104.97 111.03 105.754C110.554 106.496 109.728 107.084 108.566 107.532L109.112 108.414C110.344 107.938 111.24 107.266 111.8 106.412C112.346 105.488 112.64 104.242 112.682 102.702V100.294H111.716ZM106.158 95.436L105.122 95.618C105.262 95.954 105.388 96.332 105.5 96.724H103.064V97.62H104.1C104.24 98.208 104.366 98.852 104.492 99.58H103.134V102.912C103.106 104.914 102.882 106.468 102.448 107.574L103.232 108.288C103.736 106.944 104.002 105.152 104.03 102.912V100.462H108.986V99.58H107.516C107.712 98.95 107.866 98.292 107.978 97.62H108.734V96.724H106.494C106.382 96.248 106.27 95.814 106.158 95.436ZM106.62 99.58H105.388C105.262 98.88 105.136 98.222 105.024 97.62H107.082C106.97 98.306 106.816 98.964 106.62 99.58ZM108.468 104.802C107.516 105.978 106.116 106.818 104.24 107.322L104.632 108.19C106.62 107.602 108.118 106.65 109.154 105.32L108.468 104.802ZM107.964 102.73C107.222 103.668 106.116 104.34 104.632 104.76L104.996 105.586C106.606 105.11 107.824 104.326 108.636 103.234L107.964 102.73ZM107.614 100.756C106.9 101.596 105.836 102.198 104.436 102.562L104.814 103.388C106.326 102.954 107.474 102.24 108.258 101.246L107.614 100.756ZM122.748 100.49V103.024H119.402V100.49H122.748ZM123.77 103.024V100.49H127.06V103.024H123.77ZM120.494 97.788H125.058C124.512 98.46 123.966 99.048 123.406 99.552H118.576C119.262 99.02 119.906 98.432 120.494 97.788ZM118.38 99.692V106.916C118.38 107.756 118.814 108.176 119.696 108.176H127.158C127.97 108.148 128.502 107.84 128.782 107.224C128.95 106.832 129.076 106.174 129.174 105.25L128.18 104.942C128.082 105.894 127.97 106.496 127.83 106.734C127.648 107.028 127.326 107.182 126.85 107.196H120.088C119.64 107.196 119.402 106.972 119.402 106.552V103.976H128.082V99.552H124.764C125.296 99.02 125.828 98.39 126.36 97.634V96.864H121.264C121.544 96.5 121.81 96.108 122.062 95.702L121.054 95.478C119.892 97.2 118.408 98.586 116.616 99.65L117.288 100.462C117.652 100.224 118.016 99.972 118.38 99.692Z" fill="#4E5969"/>
<path d="M105.528 128.432V129.342H108.482V131.358H105.976V132.254H108.482V134.48H105.15V135.404H112.864V134.48H109.518V132.254H112.024V131.358H109.518V129.342H112.458V128.432H105.528ZM114.754 126.206H103.246V138.372H104.268V137.77H113.732V138.372H114.754V126.206ZM104.268 136.818V127.158H113.732V136.818H104.268ZM111.17 132.548L110.372 132.814C110.708 133.276 111.016 133.822 111.296 134.452L112.08 134.088C111.828 133.542 111.52 133.024 111.17 132.548ZM122.93 131.946C122.538 133.682 121.922 135.264 121.054 136.692L121.894 137.224C122.734 135.796 123.392 134.102 123.854 132.142L122.93 131.946ZM127.802 131.764L126.92 132.058C127.508 133.556 128.04 135.278 128.516 137.238L129.412 136.832C128.964 135.04 128.418 133.346 127.802 131.764ZM124.722 138.33C125.534 138.33 125.954 137.91 125.954 137.07V130.742H129.384V129.762H121.474V130.742H124.946V136.818C124.946 137.238 124.75 137.448 124.386 137.448C123.98 137.448 123.56 137.42 123.14 137.378L123.336 138.33H124.722ZM122.328 126.402V127.368H128.656V126.402H122.328ZM117.19 126.15V138.414H118.17V127.102H120.41C120.046 128.264 119.542 129.566 118.898 131.022C119.766 132.198 120.2 133.248 120.2 134.2C120.2 134.522 120.116 134.746 119.962 134.872C119.822 135.012 119.514 135.096 119.066 135.124C118.926 135.124 118.744 135.096 118.534 135.068L118.856 136.048C119.766 136.034 120.41 135.866 120.774 135.53C121.04 135.25 121.18 134.816 121.18 134.2C121.124 133.206 120.69 132.1 119.892 130.868C120.466 129.51 120.97 128.208 121.39 126.948V126.15H117.19ZM134.858 125.464C133.962 127.676 132.52 129.636 130.532 131.344L130.854 132.394C131.596 131.778 132.282 131.12 132.912 130.434V138.428H133.92V129.202C134.676 128.166 135.306 127.074 135.796 125.898L134.858 125.464ZM141.312 138.176C141.984 138.176 142.446 138.008 142.698 137.672C142.936 137.336 143.104 136.356 143.202 134.746L142.264 134.438C142.208 135.824 142.11 136.636 141.956 136.86C141.788 137.084 141.508 137.21 141.144 137.21H138.876C138.4 137.21 138.176 136.986 138.176 136.552V131.82C139.912 130.728 141.438 129.482 142.74 128.082L142.04 127.284C140.934 128.53 139.646 129.65 138.176 130.63V125.632H137.168V131.246C136.454 131.666 135.698 132.044 134.914 132.408L135.362 133.36C135.978 133.066 136.58 132.758 137.168 132.422V136.692C137.168 137.672 137.658 138.176 138.638 138.176H141.312Z" fill="#4E5969"/>
<path d="M196.482 72.744V73.864H192.1V77.756H193.094V74.788H196.482V78.428H197.518V74.788H200.976V76.188C200.976 76.552 200.766 76.748 200.374 76.748L199.31 76.706L199.576 77.672H200.696C201.536 77.672 201.97 77.252 201.97 76.412V73.864H197.518V72.744H200.626V69.664H193.402V72.744H196.482ZM196.482 65.492V67.634H194.452C194.158 66.92 193.822 66.304 193.458 65.786L192.506 66.136C192.87 66.598 193.192 67.102 193.458 67.634H191.176V70.476H192.212V68.586H201.788V70.462H202.824V67.634H200.36C200.696 67.186 201.032 66.654 201.354 66.038L200.416 65.688C200.108 66.374 199.73 67.018 199.296 67.634H197.518V65.492H196.482ZM199.66 71.89H194.382V70.518H199.66V71.89ZM215.046 66.15H206.8V73.864H207.808V67.13H214.024V73.85H215.046V66.15ZM210.328 68.068V70.7C210.272 72.464 209.866 73.906 209.11 75.012C208.298 76.076 206.856 76.93 204.784 77.574L205.33 78.428C207.416 77.77 208.914 76.86 209.824 75.698C210.762 74.452 211.266 72.786 211.322 70.7V68.068H210.328ZM215.312 78.134C215.788 78.12 216.152 78.008 216.404 77.784C216.67 77.504 216.866 76.692 216.992 75.376L216.026 75.068C215.97 76.16 215.83 76.804 215.634 76.986C215.48 77.112 215.284 77.182 215.046 77.182H212.848C212.428 77.182 212.232 76.916 212.232 76.412V72.842H211.238V76.594C211.238 77.616 211.672 78.134 212.568 78.134H215.312ZM229.074 78.316C230.138 78.316 230.684 77.784 230.684 76.748V66.374H224.23V67.354H229.662V76.482C229.662 77.098 229.396 77.406 228.864 77.406L227.324 77.378L227.576 78.316H229.074ZM219.316 67.886V78.414H220.338V67.886H219.316ZM222.452 69.902V75.166H227.492V69.902H222.452ZM226.47 74.2H223.474V70.868H226.47V74.2ZM221.402 65.45L220.464 65.856C221.108 66.612 221.71 67.466 222.242 68.446L223.138 67.984C222.634 67.06 222.046 66.22 221.402 65.45ZM242.29 77.224C239.42 77.224 237.586 77.098 236.774 76.846C236.718 76.818 236.648 76.79 236.564 76.762V75.236H238.482V74.34H236.564V72.856H238.832V71.932H232.896V72.856H235.668V76.258C235.234 75.936 234.828 75.488 234.464 74.914C234.534 74.494 234.576 74.06 234.604 73.584L233.708 73.472C233.638 75.068 233.232 76.496 232.476 77.77L233.204 78.414C233.652 77.658 234.002 76.832 234.254 75.936C234.828 76.748 235.486 77.322 236.228 77.63C237.068 77.994 239.154 78.176 242.514 78.176H245.272L245.44 77.168C244.74 77.196 243.69 77.224 242.29 77.224ZM233.526 66.108V70.994H238.3V66.108H233.526ZM237.32 70.154H234.506V68.964H237.32V70.154ZM234.506 68.18V66.948H237.32V68.18H234.506ZM239.028 66.122V67.046H241.646C241.604 67.424 241.548 67.802 241.464 68.166H239.462V73.822H240.358V69.034H243.746V73.822H244.684V68.166H242.374C242.458 67.802 242.514 67.438 242.556 67.046H245.076V66.122H239.028ZM243.06 73.864L242.388 74.508C243.298 75.236 244.012 75.936 244.53 76.58L245.244 75.88C244.656 75.208 243.928 74.536 243.06 73.864ZM241.59 69.692V71.666C241.562 72.716 241.352 73.57 240.988 74.228C240.582 74.858 239.882 75.362 238.874 75.726L239.42 76.594C240.484 76.174 241.268 75.6 241.744 74.858C242.22 74.06 242.486 72.996 242.514 71.666V69.692H241.59Z" fill="#4E5969"/>
<path d="M191.008 96.122V97.06H196.496V98.278H192.212V103.822H196.314C196.174 104.55 195.922 105.152 195.586 105.628C194.802 105.222 194.074 104.746 193.416 104.2L192.646 104.732C193.332 105.32 194.088 105.838 194.9 106.286C194.004 106.93 192.576 107.322 190.63 107.476L191.064 108.4C193.29 108.148 194.9 107.616 195.88 106.776C197.966 107.728 200.416 108.274 203.23 108.386L203.482 107.42C200.794 107.336 198.47 106.874 196.51 106.048C196.902 105.488 197.168 104.746 197.336 103.822H201.844V98.278H197.504V97.06H203.006V96.122H191.008ZM200.85 102.94H197.462L197.504 101.946V101.456H200.85V102.94ZM196.454 102.94H193.206V101.456H196.496V101.946C196.496 102.282 196.482 102.618 196.454 102.94ZM193.206 100.616V99.146H196.496V100.616H193.206ZM197.504 99.146H200.85V100.616H197.504V99.146ZM216.516 95.702C215.158 96.29 213.632 96.612 211.938 96.64V102.632C211.868 104.76 211.42 106.426 210.594 107.63L211.308 108.386C212.316 106.958 212.848 105.04 212.918 102.632V100.966H214.99V108.442H215.984V100.966H217.44V100H212.918V97.452C214.43 97.368 215.788 97.074 217.02 96.598L216.516 95.702ZM204.854 96.78V97.704H211.168V96.78H208.522C208.326 96.276 208.13 95.814 207.92 95.394L206.884 95.562C207.122 95.926 207.332 96.332 207.528 96.78H204.854ZM204.714 99.958V100.868H207.542V102.436H204.938V103.36H207.542V107.084C207.542 107.42 207.36 107.588 206.996 107.588C206.8 107.588 206.59 107.56 206.366 107.518L206.576 108.456H207.332C208.144 108.456 208.55 108.078 208.55 107.322V103.36H211.014V102.436H208.55V100.868H211.252V99.958H209.67C209.936 99.482 210.174 98.936 210.398 98.334L209.488 98.026C209.278 98.698 209.04 99.342 208.76 99.958H207.22C206.996 99.202 206.744 98.572 206.478 98.054L205.582 98.376C205.862 98.866 206.114 99.398 206.324 99.958H204.714ZM205.918 104.116C205.61 105.348 205.134 106.468 204.476 107.476L205.316 108.008C205.96 106.958 206.478 105.726 206.842 104.312L205.918 104.116ZM209.936 104.018L209.096 104.242C209.488 105.082 209.81 105.95 210.076 106.832L210.916 106.51C210.692 105.754 210.356 104.928 209.936 104.018ZM229.466 96.122H220.814V108.344H221.822V107.266H228.444V108.33H229.466V96.122ZM221.822 106.286V102.072H228.444V106.286H221.822ZM221.822 101.092V97.102H228.444V101.092H221.822ZM238.482 95.534V97.368H233.008V98.348H238.482V100.504H233.96V101.47H244.068V100.504H239.518V98.348H244.978V97.368H239.518V95.534H238.482ZM233.974 103.164C233.722 104.564 233.316 105.852 232.742 107.028L233.61 107.56C234.198 106.384 234.646 104.998 234.968 103.374L233.974 103.164ZM243.578 102.8L242.64 103.108C243.284 104.27 243.886 105.614 244.432 107.14L245.356 106.734C244.852 105.334 244.25 104.032 243.578 102.8ZM240.946 108.106C241.506 108.106 241.926 107.966 242.178 107.7C242.472 107.392 242.668 106.51 242.78 105.082L241.828 104.76C241.772 105.908 241.646 106.608 241.45 106.832C241.31 107.028 241.086 107.126 240.764 107.126H237.726C237.278 107.126 237.068 106.874 237.068 106.398V102.716H236.032V106.594C236.032 107.602 236.48 108.106 237.404 108.106H240.946ZM239.294 102.408L238.342 102.73C238.818 103.542 239.238 104.494 239.63 105.558L240.554 105.152C240.19 104.172 239.77 103.262 239.294 102.408Z" fill="#4E5969"/>
</svg>
