<svg width="208" height="264" viewBox="0 0 208 264" fill="none" xmlns="http://www.w3.org/2000/svg">
<rect width="208" height="48" fill="white"/>
<rect x="3.5" y="3.5" width="41" height="41" rx="20.5" fill="#F7F8FA"/>
<rect x="14" y="14" width="20" height="20" rx="10" fill="#4E5969"/>
<rect x="20" y="20" width="8" height="8" rx="4" fill="white"/>
<rect x="3.5" y="3.5" width="41" height="41" rx="20.5" stroke="white"/>
<path d="M62.114 19.746V25.5H66.496V26.83H60.784V27.782H66.496V30.442H67.504V27.782H73.216V26.83H67.504V25.5H71.886V19.746H69.198C69.618 19.172 69.996 18.528 70.332 17.814L69.352 17.464C69.002 18.276 68.596 19.046 68.148 19.746H62.114ZM70.906 24.604H67.504V23.036H70.906V24.604ZM66.496 24.604H63.094V23.036H66.496V24.604ZM63.094 22.168V20.628H66.496V22.168H63.094ZM67.504 20.628H70.906V22.168H67.504V20.628ZM64.592 17.534L63.738 17.94C64.214 18.472 64.648 19.06 65.068 19.732L65.908 19.312C65.488 18.668 65.054 18.066 64.592 17.534ZM75.764 17.786L75.078 18.444C76.072 19.228 76.856 19.97 77.43 20.67L78.13 19.97C77.486 19.242 76.702 18.514 75.764 17.786ZM83.898 30.148H87.146L87.398 29.14C87.02 29.168 86.488 29.182 85.816 29.196C85.116 29.21 84.43 29.224 83.758 29.224C82.666 29.224 81.742 29.21 81.014 29.196C80.174 29.168 79.544 29.056 79.11 28.86C78.718 28.678 78.354 28.384 78.018 27.978C77.906 27.852 77.794 27.74 77.682 27.656V22.42H74.756V23.344H76.744V27.6C76.156 27.852 75.498 28.58 74.742 29.77L75.498 30.456C76.282 29.14 76.842 28.496 77.192 28.496C77.36 28.496 77.542 28.608 77.738 28.846C78.172 29.35 78.662 29.7 79.208 29.868C79.768 30.022 80.51 30.106 81.406 30.12C82.302 30.134 83.142 30.148 83.898 30.148ZM82.694 17.52V19.312H80.846C81.014 18.864 81.168 18.402 81.308 17.912L80.342 17.716C80.006 18.976 79.46 20.138 78.704 21.188L79.586 21.734C79.894 21.286 80.174 20.81 80.426 20.278H82.694V22.28H79.054V23.26H81.308C81.266 24.128 81.126 24.884 80.888 25.5C80.524 26.34 79.782 27.04 78.648 27.6L79.306 28.398C80.622 27.712 81.476 26.83 81.84 25.766C82.078 25.066 82.218 24.226 82.26 23.26H83.674V27.236C83.674 27.544 83.758 27.796 83.954 27.992C84.136 28.188 84.402 28.286 84.766 28.286H85.774C86.25 28.272 86.586 28.16 86.782 27.964C86.992 27.74 87.146 27.054 87.23 25.892L86.348 25.598C86.292 26.592 86.18 27.152 86.012 27.278C85.9 27.362 85.76 27.404 85.564 27.404H85.06C84.752 27.404 84.612 27.264 84.612 27.012V23.26H86.964V22.28H83.674V20.278H86.474V19.312H83.674V17.52H82.694ZM91.542 23.19C91.892 23.75 92.298 24.464 92.774 25.332L93.32 24.52C92.718 23.624 92.13 22.826 91.542 22.126V21.272H93.04V20.306H91.542V17.562H90.562V20.306H88.77V21.272H90.534C90.128 23.064 89.442 24.674 88.49 26.074L88.924 27.166C89.596 26.06 90.142 24.828 90.562 23.484V30.358H91.542V23.19ZM95.672 20.39V21.286H97.758V23.582H95.966V24.478H97.758V26.984H95.504V27.88H101.006V26.984H98.696V24.478H100.544V23.582H98.696V21.286H100.768V20.39H95.672ZM93.81 18.038V30.064H101.454V29.112H94.776V18.99H101.202V18.038H93.81Z" fill="#4E5969"/>
<path d="M109.008 19.004V29H110.156V24.702H113.18C113.81 24.702 114.286 24.814 114.622 25.066C114.986 25.318 115.196 25.752 115.252 26.34L115.378 27.67C115.42 28.23 115.56 28.664 115.784 29H117.03C116.736 28.636 116.554 28.146 116.498 27.53L116.344 25.99C116.232 24.982 115.7 24.38 114.748 24.17V24.142C115.322 24.002 115.77 23.722 116.106 23.274C116.414 22.84 116.568 22.35 116.568 21.79C116.568 20.866 116.26 20.166 115.672 19.69C115.098 19.228 114.314 19.004 113.32 19.004H109.008ZM110.156 19.998H113.18C113.95 19.998 114.524 20.152 114.888 20.46C115.224 20.754 115.406 21.216 115.406 21.832C115.406 22.42 115.224 22.868 114.874 23.19C114.482 23.526 113.908 23.708 113.18 23.708H110.156V19.998ZM121.479 21.566C120.611 21.566 119.925 21.734 119.393 22.07C118.805 22.434 118.427 23.008 118.273 23.764L119.379 23.848C119.491 23.386 119.729 23.036 120.107 22.812C120.443 22.588 120.877 22.49 121.409 22.49C122.669 22.49 123.299 23.092 123.299 24.31V24.688L121.563 24.716C120.471 24.73 119.631 24.94 119.043 25.332C118.371 25.752 118.049 26.368 118.049 27.194C118.049 27.782 118.273 28.272 118.721 28.65C119.155 29.014 119.729 29.196 120.457 29.196C121.129 29.196 121.731 29.042 122.263 28.748C122.711 28.496 123.089 28.174 123.369 27.782V29H124.419V24.352C124.419 23.512 124.195 22.854 123.775 22.378C123.271 21.832 122.515 21.566 121.479 21.566ZM123.299 25.528V26.144C123.299 26.704 123.033 27.208 122.515 27.642C121.983 28.09 121.381 28.314 120.695 28.314C120.247 28.314 119.883 28.202 119.603 27.992C119.323 27.768 119.197 27.502 119.197 27.166C119.197 26.116 120.009 25.584 121.633 25.556L123.299 25.528ZM131.497 18.808V23.092C130.937 22.07 130.139 21.566 129.103 21.566C128.067 21.566 127.269 21.944 126.681 22.728C126.135 23.428 125.869 24.296 125.869 25.36C125.869 26.452 126.135 27.348 126.681 28.048C127.269 28.804 128.095 29.196 129.159 29.196C130.251 29.196 131.063 28.734 131.567 27.81V29H132.617V18.808H131.497ZM129.341 22.49C129.985 22.49 130.517 22.742 130.923 23.274C131.315 23.792 131.525 24.478 131.525 25.318V25.458C131.525 26.27 131.343 26.928 130.993 27.432C130.587 27.992 130.027 28.272 129.299 28.272C128.515 28.272 127.927 27.978 127.535 27.418C127.185 26.914 127.017 26.228 127.017 25.36C127.017 24.492 127.185 23.82 127.549 23.33C127.941 22.77 128.543 22.49 129.341 22.49ZM135.276 19.032C135.038 19.032 134.842 19.102 134.674 19.27C134.506 19.41 134.436 19.606 134.436 19.858C134.436 20.096 134.506 20.292 134.674 20.46C134.842 20.614 135.038 20.698 135.276 20.698C135.514 20.698 135.71 20.614 135.878 20.46C136.046 20.292 136.13 20.096 136.13 19.858C136.13 19.606 136.046 19.41 135.878 19.27C135.71 19.102 135.514 19.032 135.276 19.032ZM134.716 21.762V29H135.836V21.762H134.716ZM141.168 21.566C140.076 21.566 139.222 21.93 138.578 22.686C137.962 23.4 137.654 24.296 137.654 25.388C137.654 26.466 137.962 27.362 138.578 28.062C139.222 28.818 140.076 29.196 141.168 29.196C142.246 29.196 143.114 28.818 143.772 28.062C144.374 27.362 144.682 26.466 144.682 25.388C144.682 24.296 144.374 23.4 143.758 22.686C143.114 21.93 142.246 21.566 141.168 21.566ZM141.168 22.504C141.924 22.504 142.526 22.798 142.974 23.386C143.352 23.918 143.548 24.576 143.548 25.388C143.548 26.172 143.352 26.844 142.974 27.376C142.526 27.964 141.924 28.258 141.168 28.258C140.398 28.258 139.796 27.964 139.376 27.376C138.984 26.844 138.802 26.186 138.802 25.388C138.802 24.576 138.984 23.918 139.376 23.386C139.796 22.798 140.398 22.504 141.168 22.504Z" fill="#4E5969"/>
<rect width="208" height="48" transform="translate(0 54)" fill="white"/>
<rect x="3.5" y="57.5" width="41" height="41" rx="20.5" fill="#F7F8FA"/>
<rect x="9" y="69" width="30" height="18" rx="9" fill="#4E5969"/>
<circle cx="18" cy="78" r="5" fill="white"/>
<rect x="3.5" y="57.5" width="41" height="41" rx="20.5" stroke="white"/>
<path d="M61.568 72.402V73.382H64.116V76.602C64.116 76.742 64.102 76.91 64.102 77.092H60.812V78.058H64.046C63.934 79.178 63.738 80.13 63.444 80.942C62.996 82.006 62.198 82.86 61.064 83.504L61.61 84.372C62.842 83.728 63.724 82.818 64.256 81.642C64.676 80.69 64.942 79.5 65.068 78.058H69.114V84.26H70.136V78.058H73.202V77.092H70.136V73.382H72.474V72.402H61.568ZM65.152 73.382H69.114V77.092H65.138C65.138 76.938 65.152 76.77 65.152 76.602V73.382ZM78.34 71.618L77.416 72.066C77.99 72.766 78.522 73.564 79.026 74.46L79.936 73.998C79.432 73.13 78.9 72.346 78.34 71.618ZM83.604 71.492C83.184 72.668 82.722 73.662 82.19 74.474H75.792V75.454H80.482V76.112C80.468 76.798 80.398 77.442 80.272 78.058H74.994V79.038H80.02C79.824 79.654 79.558 80.2 79.222 80.704C78.382 81.824 76.884 82.734 74.742 83.42L75.288 84.302C77.444 83.616 78.998 82.65 79.95 81.418C80.398 80.816 80.748 80.116 81.014 79.318C81.77 81.446 83.674 83.14 86.754 84.386L87.342 83.448C84.402 82.398 82.596 80.928 81.91 79.038H87.006V78.058H81.322C81.434 77.47 81.49 76.812 81.518 76.112V75.454H86.194V74.474H83.31C83.814 73.676 84.234 72.766 84.57 71.758L83.604 71.492Z" fill="#4E5969"/>
<path d="M98.368 72.808C97.332 72.808 96.478 73.032 95.82 73.48C95.078 73.956 94.714 74.642 94.714 75.51C94.714 76.35 95.092 76.994 95.862 77.442C96.184 77.61 96.954 77.89 98.158 78.254C99.278 78.576 99.992 78.814 100.272 78.982C100.93 79.332 101.266 79.822 101.266 80.452C101.266 80.984 101.014 81.404 100.51 81.712C100.006 82.02 99.334 82.174 98.522 82.174C97.626 82.174 96.954 81.978 96.492 81.614C95.988 81.208 95.68 80.564 95.582 79.696H94.448C94.532 80.928 94.966 81.838 95.75 82.44C96.422 82.944 97.346 83.196 98.522 83.196C99.712 83.196 100.65 82.944 101.35 82.454C102.05 81.95 102.4 81.25 102.4 80.382C102.4 79.472 101.98 78.772 101.154 78.268C100.734 78.016 99.866 77.694 98.55 77.302C97.584 77.022 96.968 76.812 96.716 76.672C96.142 76.364 95.862 75.958 95.862 75.454C95.862 74.88 96.1 74.46 96.576 74.18C96.996 73.928 97.57 73.816 98.312 73.816C99.124 73.816 99.754 73.984 100.202 74.348C100.636 74.698 100.916 75.23 101.042 75.958H102.176C102.078 74.908 101.7 74.11 101.028 73.578C100.384 73.06 99.488 72.808 98.368 72.808ZM102.916 75.762L105.38 83H106.43L108.138 77.176L109.818 83H110.882L113.346 75.762H112.114L110.336 81.628L108.656 75.762H107.606L105.926 81.628L104.148 75.762H102.916ZM115.206 73.032C114.968 73.032 114.772 73.102 114.604 73.27C114.436 73.41 114.366 73.606 114.366 73.858C114.366 74.096 114.436 74.292 114.604 74.46C114.772 74.614 114.968 74.698 115.206 74.698C115.444 74.698 115.64 74.614 115.808 74.46C115.976 74.292 116.06 74.096 116.06 73.858C116.06 73.606 115.976 73.41 115.808 73.27C115.64 73.102 115.444 73.032 115.206 73.032ZM114.646 75.762V83H115.766V75.762H114.646ZM119.796 73.424L118.69 73.886V75.762H117.234V76.7H118.69V81.306C118.69 81.852 118.802 82.258 119.04 82.538C119.292 82.846 119.726 83 120.314 83H121.406V82.062H120.482C120.23 82.062 120.048 81.992 119.95 81.88C119.838 81.768 119.796 81.572 119.796 81.306V76.7H121.588V75.762H119.796V73.424ZM125.963 75.566C124.885 75.566 124.031 75.944 123.415 76.714C122.841 77.414 122.561 78.31 122.561 79.416C122.561 80.522 122.841 81.418 123.415 82.104C124.017 82.832 124.857 83.196 125.949 83.196C126.845 83.196 127.559 82.958 128.105 82.496C128.665 82.02 129.015 81.306 129.183 80.382H128.063C127.895 81.628 127.181 82.258 125.949 82.258C125.221 82.258 124.661 81.992 124.283 81.488C123.891 80.984 123.709 80.284 123.709 79.402C123.709 78.52 123.905 77.82 124.297 77.302C124.703 76.77 125.263 76.504 125.963 76.504C126.537 76.504 126.999 76.63 127.363 76.91C127.713 77.19 127.937 77.61 128.035 78.17H129.141C129.015 77.288 128.679 76.63 128.119 76.196C127.573 75.776 126.859 75.566 125.963 75.566ZM130.497 72.808V83H131.617V78.87C131.617 78.198 131.799 77.624 132.177 77.176C132.541 76.728 133.003 76.504 133.563 76.504C134.165 76.504 134.627 76.686 134.963 77.05C135.271 77.414 135.439 77.932 135.439 78.604V83H136.559V78.436C136.559 77.512 136.335 76.798 135.887 76.308C135.439 75.804 134.781 75.566 133.941 75.566C133.451 75.566 133.017 75.678 132.625 75.902C132.205 76.14 131.869 76.49 131.617 76.952V72.808H130.497Z" fill="#4E5969"/>
<rect width="208" height="48" transform="translate(0 108)" fill="white"/>
<rect x="3.5" y="111.5" width="41" height="41" rx="20.5" fill="#F7F8FA"/>
<rect x="14" y="122" width="20" height="20" rx="2" fill="#4E5969"/>
<path fill-rule="evenodd" clip-rule="evenodd" d="M28.7629 126.985C28.5558 126.779 28.2166 126.793 28.0279 127.017L22.3048 133.79L20.0587 131.445C19.8647 131.242 19.5421 131.239 19.3439 131.437L18.1856 132.597C17.9935 132.789 17.9902 133.099 18.1782 133.296L21.9603 137.245C22.099 137.39 22.3034 137.433 22.4811 137.373C22.6251 137.375 22.7693 137.316 22.8703 137.196L23.6291 136.298L24.179 135.748L24.1339 135.701L29.9501 128.817C30.118 128.618 30.1054 128.324 29.9212 128.14L28.7629 126.985Z" fill="white"/>
<rect x="3.5" y="111.5" width="41" height="41" rx="20.5" stroke="white"/>
<path d="M63.892 127.48H72.544V126.598H64.354C64.494 126.276 64.62 125.94 64.732 125.604L63.738 125.436C63.22 127.004 62.24 128.32 60.798 129.412L61.4 130.196C62.016 129.734 62.548 129.23 63.024 128.684V132.87H64.816C64.06 133.878 62.884 134.704 61.274 135.348L61.792 136.202C62.52 135.866 63.178 135.488 63.752 135.096C64.508 135.754 65.362 136.314 66.314 136.776C64.872 137.196 63.136 137.448 61.106 137.532L61.512 138.414C63.864 138.274 65.852 137.91 67.504 137.294C69.1 137.91 70.934 138.26 72.978 138.358L73.216 137.434C71.564 137.378 70.052 137.154 68.708 136.762C69.856 136.174 70.78 135.446 71.48 134.55V133.822H65.208C65.46 133.514 65.698 133.206 65.908 132.87H71.452V128.446H63.22C63.458 128.138 63.682 127.816 63.892 127.48ZM67.518 136.37C66.384 135.922 65.376 135.348 64.48 134.648H70.234C69.548 135.334 68.638 135.908 67.518 136.37ZM70.472 132.058H64.018V131.022H70.472V132.058ZM64.018 130.266V129.244H70.472V130.266H64.018ZM75.764 125.786L75.078 126.444C76.072 127.228 76.856 127.97 77.43 128.67L78.13 127.97C77.486 127.242 76.702 126.514 75.764 125.786ZM83.898 138.148H87.146L87.398 137.14C87.02 137.168 86.488 137.182 85.816 137.196C85.116 137.21 84.43 137.224 83.758 137.224C82.666 137.224 81.742 137.21 81.014 137.196C80.174 137.168 79.544 137.056 79.11 136.86C78.718 136.678 78.354 136.384 78.018 135.978C77.906 135.852 77.794 135.74 77.682 135.656V130.42H74.756V131.344H76.744V135.6C76.156 135.852 75.498 136.58 74.742 137.77L75.498 138.456C76.282 137.14 76.842 136.496 77.192 136.496C77.36 136.496 77.542 136.608 77.738 136.846C78.172 137.35 78.662 137.7 79.208 137.868C79.768 138.022 80.51 138.106 81.406 138.12C82.302 138.134 83.142 138.148 83.898 138.148ZM82.694 125.52V127.312H80.846C81.014 126.864 81.168 126.402 81.308 125.912L80.342 125.716C80.006 126.976 79.46 128.138 78.704 129.188L79.586 129.734C79.894 129.286 80.174 128.81 80.426 128.278H82.694V130.28H79.054V131.26H81.308C81.266 132.128 81.126 132.884 80.888 133.5C80.524 134.34 79.782 135.04 78.648 135.6L79.306 136.398C80.622 135.712 81.476 134.83 81.84 133.766C82.078 133.066 82.218 132.226 82.26 131.26H83.674V135.236C83.674 135.544 83.758 135.796 83.954 135.992C84.136 136.188 84.402 136.286 84.766 136.286H85.774C86.25 136.272 86.586 136.16 86.782 135.964C86.992 135.74 87.146 135.054 87.23 133.892L86.348 133.598C86.292 134.592 86.18 135.152 86.012 135.278C85.9 135.362 85.76 135.404 85.564 135.404H85.06C84.752 135.404 84.612 135.264 84.612 135.012V131.26H86.964V130.28H83.674V128.278H86.474V127.312H83.674V125.52H82.694ZM91.542 131.19C91.892 131.75 92.298 132.464 92.774 133.332L93.32 132.52C92.718 131.624 92.13 130.826 91.542 130.126V129.272H93.04V128.306H91.542V125.562H90.562V128.306H88.77V129.272H90.534C90.128 131.064 89.442 132.674 88.49 134.074L88.924 135.166C89.596 134.06 90.142 132.828 90.562 131.484V138.358H91.542V131.19ZM95.672 128.39V129.286H97.758V131.582H95.966V132.478H97.758V134.984H95.504V135.88H101.006V134.984H98.696V132.478H100.544V131.582H98.696V129.286H100.768V128.39H95.672ZM93.81 126.038V138.064H101.454V137.112H94.776V126.99H101.202V126.038H93.81Z" fill="#4E5969"/>
<path d="M113.32 126.808C111.78 126.808 110.576 127.326 109.736 128.39C108.966 129.342 108.588 130.56 108.588 132.044C108.588 133.528 108.952 134.732 109.708 135.656C110.534 136.678 111.724 137.196 113.278 137.196C114.342 137.196 115.266 136.888 116.036 136.286C116.862 135.642 117.38 134.732 117.604 133.57H116.498C116.302 134.438 115.896 135.096 115.308 135.544C114.748 135.964 114.076 136.174 113.278 136.174C112.102 136.174 111.22 135.782 110.604 135.012C110.016 134.284 109.736 133.29 109.736 132.044C109.736 130.798 110.03 129.804 110.618 129.048C111.248 128.236 112.144 127.83 113.306 127.83C114.09 127.83 114.748 128.012 115.294 128.39C115.854 128.782 116.218 129.342 116.358 130.07H117.464C117.324 129.076 116.876 128.278 116.12 127.69C115.364 127.102 114.426 126.808 113.32 126.808ZM119.054 126.808V137H120.174V132.87C120.174 132.198 120.356 131.624 120.734 131.176C121.098 130.728 121.56 130.504 122.12 130.504C122.722 130.504 123.184 130.686 123.52 131.05C123.828 131.414 123.996 131.932 123.996 132.604V137H125.116V132.436C125.116 131.512 124.892 130.798 124.444 130.308C123.996 129.804 123.338 129.566 122.498 129.566C122.008 129.566 121.574 129.678 121.182 129.902C120.762 130.14 120.426 130.49 120.174 130.952V126.808H119.054ZM129.815 129.566C128.765 129.566 127.939 129.944 127.323 130.7C126.707 131.414 126.413 132.31 126.413 133.374C126.413 134.55 126.721 135.474 127.365 136.174C127.981 136.846 128.821 137.196 129.857 137.196C130.795 137.196 131.565 136.916 132.167 136.384C132.657 135.936 132.979 135.376 133.147 134.676H132.027C131.845 135.18 131.607 135.558 131.299 135.81C130.935 136.104 130.445 136.258 129.857 136.258C129.171 136.258 128.625 136.034 128.233 135.586C127.841 135.138 127.631 134.508 127.575 133.696H133.287C133.259 132.436 132.979 131.442 132.447 130.742C131.859 129.958 130.977 129.566 129.815 129.566ZM129.843 130.504C131.215 130.504 131.985 131.274 132.125 132.828H127.603C127.673 132.114 127.897 131.554 128.289 131.134C128.681 130.714 129.199 130.504 129.843 130.504ZM137.72 129.566C136.642 129.566 135.788 129.944 135.172 130.714C134.598 131.414 134.318 132.31 134.318 133.416C134.318 134.522 134.598 135.418 135.172 136.104C135.774 136.832 136.614 137.196 137.706 137.196C138.602 137.196 139.316 136.958 139.862 136.496C140.422 136.02 140.772 135.306 140.94 134.382H139.82C139.652 135.628 138.938 136.258 137.706 136.258C136.978 136.258 136.418 135.992 136.04 135.488C135.648 134.984 135.466 134.284 135.466 133.402C135.466 132.52 135.662 131.82 136.054 131.302C136.46 130.77 137.02 130.504 137.72 130.504C138.294 130.504 138.756 130.63 139.12 130.91C139.47 131.19 139.694 131.61 139.792 132.17H140.898C140.772 131.288 140.436 130.63 139.876 130.196C139.33 129.776 138.616 129.566 137.72 129.566ZM142.255 126.808V137H143.375V134.438L144.523 133.402L147.351 137H148.793L145.293 132.674L148.485 129.762H147.001L143.375 133.122V126.808H142.255ZM149.665 126.808V137H150.715V135.81C151.205 136.734 152.003 137.196 153.123 137.196C154.173 137.196 154.999 136.804 155.601 136.048C156.133 135.348 156.413 134.452 156.413 133.36C156.413 132.296 156.133 131.428 155.601 130.728C155.013 129.944 154.201 129.566 153.179 129.566C152.143 129.566 151.345 130.07 150.785 131.092V126.808H149.665ZM152.941 130.49C153.725 130.49 154.313 130.77 154.719 131.33C155.083 131.82 155.265 132.492 155.265 133.36C155.265 134.228 155.083 134.914 154.747 135.418C154.355 135.978 153.767 136.272 152.983 136.272C152.255 136.272 151.681 135.992 151.289 135.432C150.925 134.928 150.743 134.27 150.743 133.458V133.318C150.743 132.478 150.939 131.792 151.359 131.274C151.751 130.742 152.283 130.49 152.941 130.49ZM161.102 129.566C160.01 129.566 159.156 129.93 158.512 130.686C157.896 131.4 157.588 132.296 157.588 133.388C157.588 134.466 157.896 135.362 158.512 136.062C159.156 136.818 160.01 137.196 161.102 137.196C162.18 137.196 163.048 136.818 163.706 136.062C164.308 135.362 164.616 134.466 164.616 133.388C164.616 132.296 164.308 131.4 163.692 130.686C163.048 129.93 162.18 129.566 161.102 129.566ZM161.102 130.504C161.858 130.504 162.46 130.798 162.908 131.386C163.286 131.918 163.482 132.576 163.482 133.388C163.482 134.172 163.286 134.844 162.908 135.376C162.46 135.964 161.858 136.258 161.102 136.258C160.332 136.258 159.73 135.964 159.31 135.376C158.918 134.844 158.736 134.186 158.736 133.388C158.736 132.576 158.918 131.918 159.31 131.386C159.73 130.798 160.332 130.504 161.102 130.504ZM165.581 129.762L168.143 133.164L165.273 137H166.603L168.773 133.99L170.929 137H172.259L169.389 133.164L171.951 129.762H170.635L168.773 132.338L166.897 129.762H165.581Z" fill="#4E5969"/>
<rect width="208" height="48" transform="translate(0 162)" fill="white"/>
<g clip-path="url(#clip0)">
<rect x="3.5" y="165.5" width="41" height="41" rx="20.5" fill="#F7F8FA"/>
<rect x="-18.9288" y="177.192" width="53.8578" height="16.9267" rx="0.769397" fill="#F7F8FA" stroke="#4E5969" stroke-width="1.53879"/>
<path d="M24.2222 184.009C24.4174 183.814 24.734 183.814 24.9293 184.009L27.1093 186.189L29.2269 184.072C29.4222 183.877 29.7388 183.877 29.934 184.072L30.2876 184.425C30.4829 184.621 30.4829 184.937 30.2876 185.133L27.4592 187.961C27.2639 188.156 26.9473 188.156 26.7521 187.961L26.3985 187.607C26.381 187.59 26.365 187.571 26.3507 187.552L23.8686 185.07C23.6734 184.875 23.6734 184.558 23.8686 184.363L24.2222 184.009Z" fill="#4E5969"/>
</g>
<rect x="3.5" y="165.5" width="41" height="41" rx="20.5" stroke="white"/>
<path d="M61.764 179.786L61.078 180.444C62.072 181.228 62.856 181.97 63.43 182.67L64.13 181.97C63.486 181.242 62.702 180.514 61.764 179.786ZM69.898 192.148H73.146L73.398 191.14C73.02 191.168 72.488 191.182 71.816 191.196C71.116 191.21 70.43 191.224 69.758 191.224C68.666 191.224 67.742 191.21 67.014 191.196C66.174 191.168 65.544 191.056 65.11 190.86C64.718 190.678 64.354 190.384 64.018 189.978C63.906 189.852 63.794 189.74 63.682 189.656V184.42H60.756V185.344H62.744V189.6C62.156 189.852 61.498 190.58 60.742 191.77L61.498 192.456C62.282 191.14 62.842 190.496 63.192 190.496C63.36 190.496 63.542 190.608 63.738 190.846C64.172 191.35 64.662 191.7 65.208 191.868C65.768 192.022 66.51 192.106 67.406 192.12C68.302 192.134 69.142 192.148 69.898 192.148ZM68.694 179.52V181.312H66.846C67.014 180.864 67.168 180.402 67.308 179.912L66.342 179.716C66.006 180.976 65.46 182.138 64.704 183.188L65.586 183.734C65.894 183.286 66.174 182.81 66.426 182.278H68.694V184.28H65.054V185.26H67.308C67.266 186.128 67.126 186.884 66.888 187.5C66.524 188.34 65.782 189.04 64.648 189.6L65.306 190.398C66.622 189.712 67.476 188.83 67.84 187.766C68.078 187.066 68.218 186.226 68.26 185.26H69.674V189.236C69.674 189.544 69.758 189.796 69.954 189.992C70.136 190.188 70.402 190.286 70.766 190.286H71.774C72.25 190.272 72.586 190.16 72.782 189.964C72.992 189.74 73.146 189.054 73.23 187.892L72.348 187.598C72.292 188.592 72.18 189.152 72.012 189.278C71.9 189.362 71.76 189.404 71.564 189.404H71.06C70.752 189.404 70.612 189.264 70.612 189.012V185.26H72.964V184.28H69.674V182.278H72.474V181.312H69.674V179.52H68.694ZM79.782 180.122V181.032H80.482C80.874 182.096 81.504 182.978 82.386 183.692C81.518 184.112 80.482 184.448 79.292 184.728L79.768 185.582C81.126 185.246 82.302 184.826 83.282 184.294C84.29 184.882 85.578 185.288 87.118 185.498L87.482 184.602C86.208 184.434 85.116 184.14 84.22 183.72C85.284 182.964 86.012 182.054 86.418 180.962V180.122H79.782ZM81.476 181.032H85.354C84.92 181.872 84.234 182.586 83.282 183.188C82.456 182.628 81.854 181.9 81.476 181.032ZM76.268 192.274C77.094 192.274 77.514 191.868 77.514 191.056V187.038C78.06 186.814 78.592 186.576 79.11 186.324V185.302C78.578 185.568 78.046 185.82 77.514 186.044V183.216H79.082V182.25H77.514V179.604H76.478V182.25H74.77V183.216H76.478V186.422C75.848 186.632 75.204 186.814 74.546 186.968L74.798 187.976C75.358 187.808 75.918 187.626 76.478 187.43V190.79C76.478 191.154 76.282 191.35 75.918 191.35C75.568 191.35 75.204 191.322 74.84 191.294L75.05 192.274H76.268ZM80.02 186.59V187.514H82.82V189.11H79.306V190.048H82.82V192.26H83.8V190.048H87.272V189.11H83.8V187.514H86.558V186.59H83.8V185.358H82.82V186.59H80.02ZM89.96 180.094V183.496H94.23V180.094H89.96ZM93.306 182.642H90.87V180.962H93.306V182.642ZM95.784 180.094V183.496H100.138V180.094H95.784ZM99.228 182.642H96.708V180.962H99.228V182.642ZM88.826 184.896V185.792H92.69C91.71 186.632 90.338 187.318 88.546 187.85L89.008 188.676C89.4 188.55 89.778 188.424 90.156 188.284V192.414H91.038V191.812H93.432V192.414H94.328V188.004H90.814C92.13 187.416 93.18 186.688 93.964 185.792H96.33C97.03 186.646 98.066 187.388 99.41 188.004H95.672V192.414H96.568V191.812H99.186V192.414H100.082V188.298C100.39 188.41 100.712 188.536 101.062 188.648L101.468 187.794C99.662 187.304 98.304 186.632 97.394 185.792H101.174V184.896H99.242C99.018 184.462 98.766 184.056 98.472 183.664L97.618 183.944C97.842 184.224 98.052 184.546 98.248 184.896H94.636C94.832 184.56 95.014 184.224 95.154 183.86L94.188 183.762C94.02 184.154 93.81 184.532 93.544 184.896H88.826ZM91.038 190.944V188.844H93.432V190.944H91.038ZM96.568 190.944V188.844H99.186V190.944H96.568Z" fill="#4E5969"/>
<path d="M112.368 180.808C111.332 180.808 110.478 181.032 109.82 181.48C109.078 181.956 108.714 182.642 108.714 183.51C108.714 184.35 109.092 184.994 109.862 185.442C110.184 185.61 110.954 185.89 112.158 186.254C113.278 186.576 113.992 186.814 114.272 186.982C114.93 187.332 115.266 187.822 115.266 188.452C115.266 188.984 115.014 189.404 114.51 189.712C114.006 190.02 113.334 190.174 112.522 190.174C111.626 190.174 110.954 189.978 110.492 189.614C109.988 189.208 109.68 188.564 109.582 187.696H108.448C108.532 188.928 108.966 189.838 109.75 190.44C110.422 190.944 111.346 191.196 112.522 191.196C113.712 191.196 114.65 190.944 115.35 190.454C116.05 189.95 116.4 189.25 116.4 188.382C116.4 187.472 115.98 186.772 115.154 186.268C114.734 186.016 113.866 185.694 112.55 185.302C111.584 185.022 110.968 184.812 110.716 184.672C110.142 184.364 109.862 183.958 109.862 183.454C109.862 182.88 110.1 182.46 110.576 182.18C110.996 181.928 111.57 181.816 112.312 181.816C113.124 181.816 113.754 181.984 114.202 182.348C114.636 182.698 114.916 183.23 115.042 183.958H116.176C116.078 182.908 115.7 182.11 115.028 181.578C114.384 181.06 113.488 180.808 112.368 180.808ZM120.696 183.566C119.646 183.566 118.82 183.944 118.204 184.7C117.588 185.414 117.294 186.31 117.294 187.374C117.294 188.55 117.602 189.474 118.246 190.174C118.862 190.846 119.702 191.196 120.738 191.196C121.676 191.196 122.446 190.916 123.048 190.384C123.538 189.936 123.86 189.376 124.028 188.676H122.908C122.726 189.18 122.488 189.558 122.18 189.81C121.816 190.104 121.326 190.258 120.738 190.258C120.052 190.258 119.506 190.034 119.114 189.586C118.722 189.138 118.512 188.508 118.456 187.696H124.168C124.14 186.436 123.86 185.442 123.328 184.742C122.74 183.958 121.858 183.566 120.696 183.566ZM120.724 184.504C122.096 184.504 122.866 185.274 123.006 186.828H118.484C118.554 186.114 118.778 185.554 119.17 185.134C119.562 184.714 120.08 184.504 120.724 184.504ZM125.703 180.808V191H126.809V180.808H125.703ZM131.756 183.566C130.706 183.566 129.88 183.944 129.264 184.7C128.648 185.414 128.354 186.31 128.354 187.374C128.354 188.55 128.662 189.474 129.306 190.174C129.922 190.846 130.762 191.196 131.798 191.196C132.736 191.196 133.506 190.916 134.108 190.384C134.598 189.936 134.92 189.376 135.088 188.676H133.968C133.786 189.18 133.548 189.558 133.24 189.81C132.876 190.104 132.386 190.258 131.798 190.258C131.112 190.258 130.566 190.034 130.174 189.586C129.782 189.138 129.572 188.508 129.516 187.696H135.228C135.2 186.436 134.92 185.442 134.388 184.742C133.8 183.958 132.918 183.566 131.756 183.566ZM131.784 184.504C133.156 184.504 133.926 185.274 134.066 186.828H129.544C129.614 186.114 129.838 185.554 130.23 185.134C130.622 184.714 131.14 184.504 131.784 184.504ZM139.662 183.566C138.584 183.566 137.73 183.944 137.114 184.714C136.54 185.414 136.26 186.31 136.26 187.416C136.26 188.522 136.54 189.418 137.114 190.104C137.716 190.832 138.556 191.196 139.648 191.196C140.544 191.196 141.258 190.958 141.804 190.496C142.364 190.02 142.714 189.306 142.882 188.382H141.762C141.594 189.628 140.88 190.258 139.648 190.258C138.92 190.258 138.36 189.992 137.982 189.488C137.59 188.984 137.408 188.284 137.408 187.402C137.408 186.52 137.604 185.82 137.996 185.302C138.402 184.77 138.962 184.504 139.662 184.504C140.236 184.504 140.698 184.63 141.062 184.91C141.412 185.19 141.636 185.61 141.734 186.17H142.84C142.714 185.288 142.378 184.63 141.818 184.196C141.272 183.776 140.558 183.566 139.662 183.566ZM146.128 181.424L145.022 181.886V183.762H143.566V184.7H145.022V189.306C145.022 189.852 145.134 190.258 145.372 190.538C145.624 190.846 146.058 191 146.646 191H147.738V190.062H146.814C146.562 190.062 146.38 189.992 146.282 189.88C146.17 189.768 146.128 189.572 146.128 189.306V184.7H147.92V183.762H146.128V181.424Z" fill="#4E5969"/>
<rect width="208" height="48" transform="translate(0 216)" fill="white"/>
<g clip-path="url(#clip1)">
<rect x="3.5" y="219.5" width="41" height="41" rx="20.5" fill="#F7F8FA"/>
<rect x="11.9375" y="231.875" width="62.125" height="15.25" rx="1" fill="#F7F8FA"/>
<rect x="18.0625" y="237" width="4.75" height="4.75" rx="2.375" fill="#4E5969"/>
<rect opacity="0.3" x="25.1875" y="238.188" width="42.75" height="2.375" rx="1.1875" fill="#4E5969"/>
<rect x="11.9375" y="231.875" width="62.125" height="15.25" rx="1" stroke="#4E5969" stroke-width="2"/>
</g>
<rect x="3.5" y="219.5" width="41" height="41" rx="20.5" stroke="white"/>
<path d="M66.636 233.604C65.012 235.368 62.968 236.852 60.504 238.042L60.994 238.924C63.472 237.678 65.474 236.208 67 234.514C68.652 236.292 70.626 237.734 72.95 238.854L73.454 237.958C71.158 236.894 69.128 235.452 67.364 233.604H66.636ZM63.094 238.028V238.994H66.482V241.43H62.422V242.396H66.482V244.986H61.176V245.98H72.838V244.986H67.518V242.396H71.564V241.43H67.518V238.994H70.906V238.028H63.094ZM78.62 240.912V244.44H83.562V240.912H78.62ZM82.652 243.586H79.53V241.752H82.652V243.586ZM84.99 235.06V236.6H77.318V235.06H84.99ZM77.318 237.51H85.97V234.108H76.338V239.596C76.324 242.06 75.75 244.076 74.602 245.63L75.386 246.33C76.646 244.468 77.29 242.242 77.318 239.652H85.676C85.648 242.522 85.606 244.23 85.522 244.79C85.424 245.238 85.116 245.462 84.612 245.462C84.08 245.462 83.45 245.448 82.708 245.42L82.932 246.274C83.786 246.302 84.388 246.316 84.738 246.316C85.746 246.316 86.32 245.924 86.446 245.154C86.586 244.342 86.656 242.2 86.656 238.742H77.318V237.51ZM90.31 246.274C91.108 246.274 91.514 245.868 91.514 245.084V240.954C91.92 240.758 92.326 240.562 92.718 240.352V239.33C92.326 239.554 91.92 239.75 91.514 239.946V237.216H92.928V236.25H91.514V233.604H90.478V236.25H88.784V237.216H90.478V240.38C89.862 240.618 89.246 240.814 88.616 240.968L88.854 241.976C89.4 241.808 89.946 241.612 90.478 241.402V244.818C90.478 245.168 90.296 245.35 89.96 245.35C89.596 245.35 89.232 245.322 88.84 245.294L89.05 246.274H90.31ZM94.02 234.052V238.91H100.124V234.052H94.02ZM99.144 238.084H95V236.88H99.144V238.084ZM95 236.096V234.878H99.144V236.096H95ZM93.04 239.89V240.786H96.582V244.874C96.456 244.832 96.344 244.79 96.246 244.748C95.658 244.482 95.14 243.88 94.692 242.942C94.804 242.466 94.874 241.99 94.902 241.486L94.006 241.388C93.894 242.984 93.306 244.44 92.242 245.728L92.984 246.372C93.586 245.644 94.048 244.846 94.384 243.978C94.804 244.762 95.294 245.294 95.826 245.574C96.498 245.91 97.758 246.092 99.606 246.106C100.054 246.106 100.572 246.12 101.132 246.12L101.412 245.14C100.894 245.182 100.264 245.21 99.536 245.21C98.766 245.21 98.108 245.168 97.548 245.084V243.278H100.474V242.368H97.548V240.786H101.048V239.89H93.04ZM108.258 246.232C109.126 246.232 109.56 245.798 109.56 244.958V238.882H114.964V237.888H103.036V238.882H108.538V244.706C108.538 245.098 108.328 245.308 107.908 245.308C107.376 245.308 106.83 245.28 106.242 245.252L106.452 246.232H108.258ZM105.192 240.422C104.702 242.13 103.918 243.684 102.84 245.084L103.722 245.63C104.786 244.23 105.598 242.564 106.186 240.632L105.192 240.422ZM112.584 240.282L111.674 240.59C112.57 242.018 113.396 243.656 114.152 245.518L115.076 245.098C114.376 243.39 113.536 241.794 112.584 240.282ZM104.324 234.332V235.312H113.718V234.332H104.324Z" fill="#4E5969"/>
<path d="M123.008 235.004V245H124.156V237.048H124.198L127.656 245H128.692L132.15 237.048H132.192V245H133.34V235.004H131.912L128.202 243.53H128.16L124.436 235.004H123.008ZM138.196 237.566C137.146 237.566 136.32 237.944 135.704 238.7C135.088 239.414 134.794 240.31 134.794 241.374C134.794 242.55 135.102 243.474 135.746 244.174C136.362 244.846 137.202 245.196 138.238 245.196C139.176 245.196 139.946 244.916 140.548 244.384C141.038 243.936 141.36 243.376 141.528 242.676H140.408C140.226 243.18 139.988 243.558 139.68 243.81C139.316 244.104 138.826 244.258 138.238 244.258C137.552 244.258 137.006 244.034 136.614 243.586C136.222 243.138 136.012 242.508 135.956 241.696H141.668C141.64 240.436 141.36 239.442 140.828 238.742C140.24 237.958 139.358 237.566 138.196 237.566ZM138.224 238.504C139.596 238.504 140.366 239.274 140.506 240.828H135.984C136.054 240.114 136.278 239.554 136.67 239.134C137.062 238.714 137.58 238.504 138.224 238.504ZM145.541 237.566C144.729 237.566 144.057 237.748 143.553 238.112C143.007 238.476 142.741 238.952 142.741 239.568C142.741 240.184 143.007 240.646 143.567 240.982C143.903 241.206 144.505 241.416 145.359 241.626C146.143 241.822 146.661 241.976 146.899 242.088C147.347 242.312 147.585 242.62 147.585 243.026C147.585 243.838 146.927 244.258 145.639 244.258C145.023 244.258 144.561 244.146 144.253 243.922C143.945 243.67 143.735 243.264 143.651 242.69H142.559C142.727 244.356 143.763 245.196 145.667 245.196C147.711 245.196 148.733 244.44 148.733 242.956C148.733 242.326 148.439 241.836 147.865 241.472C147.487 241.234 146.871 241.01 146.003 240.8C145.275 240.604 144.771 240.45 144.505 240.324C144.085 240.114 143.889 239.848 143.889 239.54C143.889 239.218 144.043 238.966 144.351 238.784C144.631 238.588 145.023 238.504 145.527 238.504C146.101 238.504 146.549 238.616 146.857 238.84C147.137 239.036 147.319 239.372 147.417 239.82H148.509C148.313 238.308 147.333 237.566 145.541 237.566ZM152.61 237.566C151.798 237.566 151.126 237.748 150.622 238.112C150.076 238.476 149.81 238.952 149.81 239.568C149.81 240.184 150.076 240.646 150.636 240.982C150.972 241.206 151.574 241.416 152.428 241.626C153.212 241.822 153.73 241.976 153.968 242.088C154.416 242.312 154.654 242.62 154.654 243.026C154.654 243.838 153.996 244.258 152.708 244.258C152.092 244.258 151.63 244.146 151.322 243.922C151.014 243.67 150.804 243.264 150.72 242.69H149.628C149.796 244.356 150.832 245.196 152.736 245.196C154.78 245.196 155.802 244.44 155.802 242.956C155.802 242.326 155.508 241.836 154.934 241.472C154.556 241.234 153.94 241.01 153.072 240.8C152.344 240.604 151.84 240.45 151.574 240.324C151.154 240.114 150.958 239.848 150.958 239.54C150.958 239.218 151.112 238.966 151.42 238.784C151.7 238.588 152.092 238.504 152.596 238.504C153.17 238.504 153.618 238.616 153.926 238.84C154.206 239.036 154.388 239.372 154.486 239.82H155.578C155.382 238.308 154.402 237.566 152.61 237.566ZM160.266 237.566C159.398 237.566 158.712 237.734 158.18 238.07C157.592 238.434 157.214 239.008 157.06 239.764L158.166 239.848C158.278 239.386 158.516 239.036 158.894 238.812C159.23 238.588 159.664 238.49 160.196 238.49C161.456 238.49 162.086 239.092 162.086 240.31V240.688L160.35 240.716C159.258 240.73 158.418 240.94 157.83 241.332C157.158 241.752 156.836 242.368 156.836 243.194C156.836 243.782 157.06 244.272 157.508 244.65C157.942 245.014 158.516 245.196 159.244 245.196C159.916 245.196 160.518 245.042 161.05 244.748C161.498 244.496 161.876 244.174 162.156 243.782V245H163.206V240.352C163.206 239.512 162.982 238.854 162.562 238.378C162.058 237.832 161.302 237.566 160.266 237.566ZM162.086 241.528V242.144C162.086 242.704 161.82 243.208 161.302 243.642C160.77 244.09 160.168 244.314 159.482 244.314C159.034 244.314 158.67 244.202 158.39 243.992C158.11 243.768 157.984 243.502 157.984 243.166C157.984 242.116 158.796 241.584 160.42 241.556L162.086 241.528ZM167.918 237.566C166.91 237.566 166.112 237.916 165.524 238.63C164.936 239.302 164.656 240.156 164.656 241.22C164.656 242.27 164.936 243.124 165.524 243.796C166.112 244.482 166.91 244.832 167.918 244.832C169.01 244.832 169.822 244.342 170.354 243.376V244.65C170.354 246.246 169.626 247.058 168.17 247.058C167.512 247.058 167.022 246.932 166.7 246.694C166.378 246.47 166.168 246.106 166.084 245.616H164.964C165.09 246.4 165.412 246.988 165.93 247.38C166.434 247.772 167.19 247.968 168.17 247.968C170.368 247.968 171.474 246.806 171.474 244.496V237.762H170.354V239.008C169.822 238.042 169.01 237.566 167.918 237.566ZM168.086 238.49C168.8 238.49 169.36 238.742 169.78 239.274C170.172 239.75 170.368 240.408 170.368 241.22C170.368 242.004 170.172 242.648 169.78 243.138C169.36 243.642 168.8 243.894 168.072 243.894C167.288 243.894 166.714 243.614 166.322 243.082C165.972 242.606 165.804 241.976 165.804 241.22C165.804 240.408 166 239.75 166.392 239.274C166.798 238.742 167.358 238.49 168.086 238.49ZM176.19 237.566C175.14 237.566 174.314 237.944 173.698 238.7C173.082 239.414 172.788 240.31 172.788 241.374C172.788 242.55 173.096 243.474 173.74 244.174C174.356 244.846 175.196 245.196 176.232 245.196C177.17 245.196 177.94 244.916 178.542 244.384C179.032 243.936 179.354 243.376 179.522 242.676H178.402C178.22 243.18 177.982 243.558 177.674 243.81C177.31 244.104 176.82 244.258 176.232 244.258C175.546 244.258 175 244.034 174.608 243.586C174.216 243.138 174.006 242.508 173.95 241.696H179.662C179.634 240.436 179.354 239.442 178.822 238.742C178.234 237.958 177.352 237.566 176.19 237.566ZM176.218 238.504C177.59 238.504 178.36 239.274 178.5 240.828H173.978C174.048 240.114 174.272 239.554 174.664 239.134C175.056 238.714 175.574 238.504 176.218 238.504Z" fill="#4E5969"/>
<defs>
<clipPath id="clip0">
</clipPath>
<clipPath id="clip1">
</clipPath>
</defs>
</svg>
