<svg width="208" height="264" viewBox="0 0 208 264" fill="none" xmlns="http://www.w3.org/2000/svg">
<rect width="208" height="48" fill="white"/>
<g clip-path="url(#clip0)">
<rect x="3.5" y="3.5" width="41" height="41" rx="20.5" fill="#F7F8FA"/>
<g clip-path="url(#clip1)">
<rect x="12.4375" y="14.9688" width="52.8047" height="17.0625" rx="1" fill="#F7F8FA"/>
<path d="M18.2581 26.9215V21.0407H16V20H21.7826V21.0407H19.5245V26.9215H18.2581Z" fill="#4E5969"/>
<path d="M25.9861 24.7419H22.7168C22.7561 25.187 22.8903 25.5175 23.1193 25.7335C23.3484 25.9495 23.6757 26.0575 24.1011 26.0575C24.6313 26.0575 25.1156 25.8873 25.5541 25.547L25.9076 26.3913C25.685 26.5746 25.4036 26.7218 25.0632 26.8331C24.7294 26.9444 24.3924 27 24.052 27C23.2666 27 22.6448 26.7775 22.1867 26.3324C21.7351 25.8873 21.5092 25.2786 21.5092 24.5063C21.5092 24.0154 21.6074 23.5802 21.8038 23.2006C22.0001 22.8209 22.275 22.5264 22.6285 22.317C22.9884 22.1075 23.3942 22.0028 23.8459 22.0028C24.5069 22.0028 25.0272 22.2155 25.4069 22.641C25.793 23.0664 25.9861 23.6522 25.9861 24.3983V24.7419ZM23.8753 22.8668C23.5481 22.8668 23.283 22.9715 23.0801 23.1809C22.8837 23.3904 22.7626 23.6914 22.7168 24.0842H24.9356C24.9225 23.6849 24.8243 23.3838 24.6411 23.1809C24.4578 22.9715 24.2026 22.8668 23.8753 22.8668Z" fill="#4E5969"/>
<path d="M29.6414 24.4474L31.6639 26.9215H30.2108L28.9346 25.3212L27.6681 26.9215H26.2151L28.2277 24.4474L26.3231 22.1206H27.7859L28.9346 23.5835L30.0832 22.1206H31.5461L29.6414 24.4474Z" fill="#4E5969"/>
<path d="M34.6408 26.0771C34.7848 26.0771 34.9354 26.0673 35.0925 26.0477L35.0336 26.9607C34.8372 26.9804 34.6572 26.9902 34.4936 26.9902C33.8194 26.9902 33.322 26.8364 33.0013 26.5288C32.6806 26.2146 32.5202 25.7499 32.5202 25.1346V23.0435H31.5974V22.1206H32.5202V20.6872H33.7474V22.1206H35.0139V23.0435H33.7474V25.115C33.7474 25.7564 34.0452 26.0771 34.6408 26.0771Z" fill="#4E5969"/>
<path d="M38 19.3438V27.8438" stroke="#4E5969"/>
<rect x="12.4375" y="14.9688" width="52.8047" height="17.0625" rx="1" stroke="#4E5969" stroke-width="2"/>
</g>
</g>
<rect x="3.5" y="3.5" width="41" height="41" rx="20.5" stroke="white"/>
<path d="M63.206 21.454V23.54H61.82C62.17 22.644 62.492 21.622 62.8 20.474H65.502V19.522H63.038C63.164 18.962 63.29 18.36 63.416 17.73L62.492 17.52C62.366 18.22 62.24 18.878 62.1 19.522H60.714V20.474H61.876C61.554 21.72 61.204 22.77 60.812 23.61L61.022 24.45H63.206V26.536C62.394 26.69 61.526 26.83 60.602 26.942L60.728 27.922C61.582 27.796 62.408 27.656 63.206 27.502V30.4H64.144V27.292L65.474 26.956V26.004C65.054 26.116 64.62 26.228 64.144 26.34V24.45H65.432V23.54H64.144V21.454H63.206ZM67.336 20.74V21.566H71.354V20.726H67.35C68.05 20.054 68.722 19.312 69.394 18.5C70.458 19.872 71.648 21.034 72.964 21.986L73.496 21.188C72.222 20.292 70.976 19.102 69.758 17.59H69.03C67.896 18.99 66.608 20.222 65.18 21.272L65.726 22.112C66.272 21.692 66.804 21.23 67.336 20.74ZM68.316 30.302C69.002 30.302 69.352 29.938 69.352 29.224V22.686H66.048V30.4H66.93V27.782H68.498V29.042C68.498 29.35 68.344 29.504 68.036 29.504L67.42 29.476L67.644 30.302H68.316ZM66.93 26.998V25.668H68.498V26.998H66.93ZM66.93 24.884V23.498H68.498V24.884H66.93ZM70.192 23.078V28.104H70.976V23.078H70.192ZM71.718 30.33C72.39 30.33 72.74 29.924 72.74 29.126V22.448H71.858V28.902C71.858 29.294 71.704 29.504 71.41 29.504C71.06 29.504 70.696 29.476 70.318 29.448L70.528 30.33H71.718ZM80.384 20.81C79.488 24.534 77.542 27.39 74.546 29.35L75.148 30.204C78.088 28.3 80.02 25.556 80.944 21.986C81.014 22.154 81.084 22.35 81.168 22.574C82.61 26.27 84.458 28.818 86.726 30.19L87.356 29.378C85.144 27.992 83.394 25.626 82.078 22.28C81.21 20.012 80.16 18.43 78.914 17.562L78.074 18.094C78.97 18.738 79.74 19.634 80.384 20.81ZM91.542 23.19C91.892 23.75 92.298 24.464 92.774 25.332L93.32 24.52C92.718 23.624 92.13 22.826 91.542 22.126V21.272H93.04V20.306H91.542V17.562H90.562V20.306H88.77V21.272H90.534C90.128 23.064 89.442 24.674 88.49 26.074L88.924 27.166C89.596 26.06 90.142 24.828 90.562 23.484V30.358H91.542V23.19ZM95.672 20.39V21.286H97.758V23.582H95.966V24.478H97.758V26.984H95.504V27.88H101.006V26.984H98.696V24.478H100.544V23.582H98.696V21.286H100.768V20.39H95.672ZM93.81 18.038V30.064H101.454V29.112H94.776V18.99H101.202V18.038H93.81Z" fill="#4E5969"/>
<path d="M109.092 19.004V29H110.226V19.004H109.092ZM115.578 21.566C115.102 21.566 114.668 21.678 114.276 21.902C113.884 22.112 113.562 22.42 113.31 22.826V21.762H112.19V29H113.31V24.632C113.352 23.974 113.562 23.456 113.954 23.064C114.318 22.7 114.752 22.518 115.256 22.518C116.516 22.518 117.16 23.218 117.16 24.632V29H118.28V24.548C118.28 22.56 117.37 21.566 115.578 21.566ZM123.469 21.566C122.377 21.566 121.579 22.028 121.061 22.952V21.762H120.011V31.772H121.131V27.684C121.691 28.692 122.489 29.196 123.525 29.196C124.561 29.196 125.359 28.804 125.947 28.048C126.479 27.348 126.759 26.466 126.759 25.402C126.759 24.31 126.479 23.428 125.933 22.728C125.331 21.944 124.505 21.566 123.469 21.566ZM123.329 22.49C124.099 22.49 124.687 22.77 125.093 23.358C125.429 23.862 125.611 24.548 125.611 25.402C125.611 26.27 125.429 26.956 125.065 27.46C124.659 27.992 124.071 28.272 123.287 28.272C122.615 28.272 122.097 28.006 121.705 27.502C121.285 26.984 121.089 26.312 121.089 25.472V25.332C121.089 24.52 121.271 23.848 121.635 23.344C122.027 22.77 122.601 22.49 123.329 22.49ZM128.214 21.762V26.242C128.214 28.202 129.082 29.196 130.846 29.196C131.826 29.196 132.61 28.748 133.198 27.88V29H134.318V21.762H133.198V26.172C133.114 26.788 132.876 27.292 132.484 27.684C132.106 28.048 131.672 28.244 131.196 28.244C130.538 28.244 130.062 28.062 129.768 27.726C129.474 27.39 129.334 26.872 129.334 26.186V21.762H128.214ZM137.98 19.424L136.874 19.886V21.762H135.418V22.7H136.874V27.306C136.874 27.852 136.986 28.258 137.224 28.538C137.476 28.846 137.91 29 138.498 29H139.59V28.062H138.666C138.414 28.062 138.232 27.992 138.134 27.88C138.022 27.768 137.98 27.572 137.98 27.306V22.7H139.772V21.762H137.98V19.424Z" fill="#4E5969"/>
<rect width="208" height="48" transform="translate(0 54)" fill="white"/>
<g clip-path="url(#clip2)">
<rect x="3.5" y="57.5" width="41" height="41" rx="20.5" fill="#F7F8FA"/>
<rect x="15.3047" y="66.75" width="50.3906" height="37.5" rx="1.17188" stroke="#4E5969" stroke-width="1.74419"/>
<rect x="15.3047" y="66.75" width="50.3906" height="9.375" rx="1.17188" fill="#4E5969" stroke="#4E5969" stroke-width="1.17188"/>
<rect x="15.3047" y="76.125" width="50.3906" height="9.375" rx="1.17188" stroke="#4E5969" stroke-width="1.17188"/>
<rect x="15.3047" y="85.5" width="50.3906" height="9.375" rx="1.17188" stroke="#4E5969" stroke-width="1.17188"/>
<rect x="15.3047" y="94.875" width="50.3906" height="9.375" rx="1.17188" stroke="#4E5969" stroke-width="1.17188"/>
<rect opacity="0.3" x="18.6978" y="80.2673" width="9.59302" height="1.74419" rx="0.872093" fill="#4E5969"/>
<rect opacity="0.3" x="31.7791" y="80.2673" width="9.59302" height="1.74419" rx="0.872093" fill="#4E5969"/>
<rect opacity="0.3" x="18.6978" y="89.8604" width="9.59302" height="1.74419" rx="0.872093" fill="#4E5969"/>
<rect opacity="0.3" x="31.7791" y="89.8604" width="9.59302" height="1.74419" rx="0.872093" fill="#4E5969"/>
</g>
<rect x="3.5" y="57.5" width="41" height="41" rx="20.5" stroke="white"/>
<path d="M61.456 72.78V73.704H66.482V75.034H62.268V75.958H66.482V77.288H60.966V78.198H65.46C64.424 79.416 62.8 80.41 60.56 81.194L61.092 82.062C62.044 81.684 62.884 81.264 63.64 80.802V83C63.64 83.224 63.486 83.392 63.192 83.504L63.528 84.372C65.026 84.008 66.496 83.532 67.952 82.944L67.756 82.006C66.72 82.426 65.684 82.804 64.634 83.112V80.13C65.404 79.542 66.034 78.898 66.524 78.198H67.014C68.19 81.236 70.094 83.28 72.698 84.33L73.23 83.448C71.928 82.958 70.808 82.216 69.884 81.236C70.78 80.844 71.578 80.284 72.292 79.57L71.592 78.898C70.864 79.668 70.108 80.228 69.324 80.592C68.778 79.892 68.316 79.094 67.938 78.198H73.034V77.288H67.518V75.958H71.732V75.034H67.518V73.704H72.544V72.78H67.518V71.59H66.482V72.78H61.456ZM77.64 77.162C77.976 77.652 78.396 78.296 78.886 79.108L79.096 78.786L79.474 79.29C81 78.702 82.302 78.002 83.366 77.176C84.346 77.946 85.55 78.632 87.006 79.248L87.454 78.31C86.138 77.82 85.004 77.246 84.066 76.588C85.018 75.706 85.76 74.712 86.264 73.592V72.808H82.316C82.484 72.472 82.638 72.122 82.778 71.758L81.812 71.548C81.168 73.102 80.342 74.362 79.32 75.328L79.964 76.098C80.37 75.692 80.762 75.244 81.126 74.768C81.518 75.384 82.022 75.972 82.624 76.546C81.728 77.204 80.65 77.778 79.418 78.282L79.432 78.268C78.83 77.442 78.228 76.7 77.64 76.028V75.272H79.166V74.306H77.64V71.576H76.646V74.306H74.784V75.272H76.632C76.198 76.994 75.484 78.52 74.504 79.864L74.938 80.956C75.638 79.864 76.212 78.646 76.646 77.316V84.344H77.64V77.162ZM86.236 79.15H80.314V84.372H81.294V83.756H85.256V84.372H86.236V79.15ZM81.294 82.818V80.088H85.256V82.818H81.294ZM83.31 76C82.624 75.412 82.064 74.754 81.63 74.04C81.686 73.956 81.728 73.858 81.784 73.774H85.158C84.696 74.586 84.08 75.328 83.31 76Z" fill="#4E5969"/>
<path d="M94.238 73.004V73.998H97.766V83H98.9V73.998H102.428V73.004H94.238ZM106.686 75.566C105.818 75.566 105.132 75.734 104.6 76.07C104.012 76.434 103.634 77.008 103.48 77.764L104.586 77.848C104.698 77.386 104.936 77.036 105.314 76.812C105.65 76.588 106.084 76.49 106.616 76.49C107.876 76.49 108.506 77.092 108.506 78.31V78.688L106.77 78.716C105.678 78.73 104.838 78.94 104.25 79.332C103.578 79.752 103.256 80.368 103.256 81.194C103.256 81.782 103.48 82.272 103.928 82.65C104.362 83.014 104.936 83.196 105.664 83.196C106.336 83.196 106.938 83.042 107.47 82.748C107.918 82.496 108.296 82.174 108.576 81.782V83H109.626V78.352C109.626 77.512 109.402 76.854 108.982 76.378C108.478 75.832 107.722 75.566 106.686 75.566ZM108.506 79.528V80.144C108.506 80.704 108.24 81.208 107.722 81.642C107.19 82.09 106.588 82.314 105.902 82.314C105.454 82.314 105.09 82.202 104.81 81.992C104.53 81.768 104.404 81.502 104.404 81.166C104.404 80.116 105.216 79.584 106.84 79.556L108.506 79.528ZM111.356 72.808V83H112.406V81.81C112.896 82.734 113.694 83.196 114.814 83.196C115.864 83.196 116.69 82.804 117.292 82.048C117.824 81.348 118.104 80.452 118.104 79.36C118.104 78.296 117.824 77.428 117.292 76.728C116.704 75.944 115.892 75.566 114.87 75.566C113.834 75.566 113.036 76.07 112.476 77.092V72.808H111.356ZM114.632 76.49C115.416 76.49 116.004 76.77 116.41 77.33C116.774 77.82 116.956 78.492 116.956 79.36C116.956 80.228 116.774 80.914 116.438 81.418C116.046 81.978 115.458 82.272 114.674 82.272C113.946 82.272 113.372 81.992 112.98 81.432C112.616 80.928 112.434 80.27 112.434 79.458V79.318C112.434 78.478 112.63 77.792 113.05 77.274C113.442 76.742 113.974 76.49 114.632 76.49ZM119.783 72.808V83H120.889V72.808H119.783ZM125.836 75.566C124.786 75.566 123.96 75.944 123.344 76.7C122.728 77.414 122.434 78.31 122.434 79.374C122.434 80.55 122.742 81.474 123.386 82.174C124.002 82.846 124.842 83.196 125.878 83.196C126.816 83.196 127.586 82.916 128.188 82.384C128.678 81.936 129 81.376 129.168 80.676H128.048C127.866 81.18 127.628 81.558 127.32 81.81C126.956 82.104 126.466 82.258 125.878 82.258C125.192 82.258 124.646 82.034 124.254 81.586C123.862 81.138 123.652 80.508 123.596 79.696H129.308C129.28 78.436 129 77.442 128.468 76.742C127.88 75.958 126.998 75.566 125.836 75.566ZM125.864 76.504C127.236 76.504 128.006 77.274 128.146 78.828H123.624C123.694 78.114 123.918 77.554 124.31 77.134C124.702 76.714 125.22 76.504 125.864 76.504Z" fill="#4E5969"/>
<rect width="208" height="48" transform="translate(0 108)" fill="white"/>
<g clip-path="url(#clip3)">
<rect x="3.5" y="111.5" width="41" height="41" rx="20.5" fill="#F7F8FA"/>
<g clip-path="url(#clip4)">
<rect x="12.4375" y="122.969" width="52.8047" height="17.0625" rx="1" fill="#F7F8FA"/>
<rect x="12.4375" y="122.969" width="52.8047" height="17.0625" rx="1" stroke="#4E5969" stroke-width="2"/>
<path d="M21.1347 133.63V134.359H17.1716V133.699L19.256 131.417C19.5248 131.125 19.7193 130.859 19.8394 130.619C19.9595 130.379 20.0195 130.142 20.0195 129.907C20.0195 129.599 19.9309 129.364 19.7536 129.204C19.5763 129.044 19.3218 128.964 18.9901 128.964C18.424 128.964 17.8635 129.184 17.3088 129.624L17 128.972C17.2402 128.749 17.5433 128.572 17.9093 128.44C18.2753 128.309 18.6441 128.243 19.0159 128.243C19.5935 128.243 20.051 128.389 20.3884 128.681C20.7258 128.967 20.8945 129.355 20.8945 129.847C20.8945 130.196 20.8173 130.528 20.6629 130.842C20.5142 131.157 20.2625 131.509 19.908 131.897L18.2867 133.63H21.1347Z" fill="#4E5969"/>
<path d="M24.2023 134.428C23.4989 134.428 22.9613 134.165 22.5896 133.639C22.2236 133.113 22.0406 132.346 22.0406 131.34C22.0406 130.333 22.2236 129.567 22.5896 129.041C22.9613 128.509 23.4989 128.243 24.2023 128.243C24.9057 128.243 25.4404 128.506 25.8064 129.032C26.1781 129.558 26.364 130.325 26.364 131.331C26.364 132.344 26.1781 133.113 25.8064 133.639C25.4404 134.165 24.9057 134.428 24.2023 134.428ZM24.2023 133.716C24.6426 133.716 24.9657 133.524 25.1716 133.141C25.3775 132.758 25.4804 132.155 25.4804 131.331C25.4804 130.514 25.3775 129.916 25.1716 129.538C24.9657 129.155 24.6426 128.964 24.2023 128.964C23.7619 128.964 23.4388 129.155 23.2329 129.538C23.0271 129.916 22.9241 130.514 22.9241 131.331C22.9241 132.149 23.0271 132.752 23.2329 133.141C23.4388 133.524 23.7619 133.716 24.2023 133.716Z" fill="#4E5969"/>
<path d="M31.4217 133.63V134.359H27.4586V133.699L29.5431 131.417C29.8119 131.125 30.0063 130.859 30.1264 130.619C30.2465 130.379 30.3065 130.142 30.3065 129.907C30.3065 129.599 30.2179 129.364 30.0406 129.204C29.8633 129.044 29.6089 128.964 29.2772 128.964C28.711 128.964 28.1506 129.184 27.5959 129.624L27.287 128.972C27.5272 128.749 27.8303 128.572 28.1963 128.44C28.5623 128.309 28.9312 128.243 29.3029 128.243C29.8805 128.243 30.338 128.389 30.6754 128.681C31.0128 128.967 31.1815 129.355 31.1815 129.847C31.1815 130.196 31.1043 130.528 30.9499 130.842C30.8012 131.157 30.5496 131.509 30.195 131.897L28.5738 133.63H31.4217Z" fill="#4E5969"/>
<path d="M34.4893 134.428C33.7859 134.428 33.2484 134.165 32.8766 133.639C32.5106 133.113 32.3276 132.346 32.3276 131.34C32.3276 130.333 32.5106 129.567 32.8766 129.041C33.2484 128.509 33.7859 128.243 34.4893 128.243C35.1927 128.243 35.7274 128.506 36.0934 129.032C36.4651 129.558 36.651 130.325 36.651 131.331C36.651 132.344 36.4651 133.113 36.0934 133.639C35.7274 134.165 35.1927 134.428 34.4893 134.428ZM34.4893 133.716C34.9297 133.716 35.2528 133.524 35.4587 133.141C35.6645 132.758 35.7675 132.155 35.7675 131.331C35.7675 130.514 35.6645 129.916 35.4587 129.538C35.2528 129.155 34.9297 128.964 34.4893 128.964C34.049 128.964 33.7259 129.155 33.52 129.538C33.3141 129.916 33.2112 130.514 33.2112 131.331C33.2112 132.149 33.3141 132.752 33.52 133.141C33.7259 133.524 34.049 133.716 34.4893 133.716Z" fill="#4E5969"/>
<path d="M37.6599 131.726H40.139V132.421H37.6599V131.726Z" fill="#4E5969"/>
<path d="M44.3262 133.63V134.359H40.7921V133.63H42.1131V129.367L41.058 130.01L40.6805 129.35L42.3619 128.312H42.9966V133.63H44.3262Z" fill="#4E5969"/>
<path d="M49.4698 133.63V134.359H45.9356V133.63H47.2566V129.367L46.2015 130.01L45.8241 129.35L47.5054 128.312H48.1402V133.63H49.4698Z" fill="#4E5969"/>
</g>
</g>
<rect x="3.5" y="111.5" width="41" height="41" rx="20.5" stroke="white"/>
<path d="M71.466 126.122H62.814V138.344H63.822V137.266H70.444V138.33H71.466V126.122ZM63.822 136.286V132.072H70.444V136.286H63.822ZM63.822 131.092V127.102H70.444V131.092H63.822ZM75.75 125.604V127.172H74.882V128.11H75.75V134.032H74.728V134.984H81.35V134.032H80.44V128.11H81.28V127.172H80.44V125.632H79.46V127.172H76.73V125.604H75.75ZM76.73 134.032V132.66H79.46V134.032H76.73ZM79.46 128.11V129.51H76.73V128.11H79.46ZM76.73 131.778V130.392H79.46V131.778H76.73ZM79.208 135.348L78.424 135.838C79.054 136.678 79.558 137.462 79.922 138.176L80.664 137.644C80.65 137.672 80.636 137.7 80.608 137.728L81.378 138.442C82.302 137.21 82.862 135.684 83.058 133.836H85.774V136.706C85.774 137.126 85.592 137.336 85.228 137.336C84.78 137.336 84.304 137.308 83.786 137.28L84.066 138.274H85.55C86.362 138.274 86.782 137.868 86.782 137.07V126.094H82.134V132.646C82.106 134.606 81.644 136.244 80.72 137.546C80.37 136.93 79.866 136.188 79.208 135.348ZM76.478 135.334C75.96 136.286 75.344 137.098 74.644 137.784L75.442 138.358C76.142 137.616 76.758 136.734 77.29 135.726L76.478 135.334ZM83.128 130.42H85.774V132.912H83.114C83.114 132.8 83.128 132.688 83.128 132.562V130.42ZM85.774 129.496H83.128V127.046H85.774V129.496ZM89.764 125.786L89.078 126.444C90.072 127.228 90.856 127.97 91.43 128.67L92.13 127.97C91.486 127.242 90.702 126.514 89.764 125.786ZM97.898 138.148H101.146L101.398 137.14C101.02 137.168 100.488 137.182 99.816 137.196C99.116 137.21 98.43 137.224 97.758 137.224C96.666 137.224 95.742 137.21 95.014 137.196C94.174 137.168 93.544 137.056 93.11 136.86C92.718 136.678 92.354 136.384 92.018 135.978C91.906 135.852 91.794 135.74 91.682 135.656V130.42H88.756V131.344H90.744V135.6C90.156 135.852 89.498 136.58 88.742 137.77L89.498 138.456C90.282 137.14 90.842 136.496 91.192 136.496C91.36 136.496 91.542 136.608 91.738 136.846C92.172 137.35 92.662 137.7 93.208 137.868C93.768 138.022 94.51 138.106 95.406 138.12C96.302 138.134 97.142 138.148 97.898 138.148ZM96.694 125.52V127.312H94.846C95.014 126.864 95.168 126.402 95.308 125.912L94.342 125.716C94.006 126.976 93.46 128.138 92.704 129.188L93.586 129.734C93.894 129.286 94.174 128.81 94.426 128.278H96.694V130.28H93.054V131.26H95.308C95.266 132.128 95.126 132.884 94.888 133.5C94.524 134.34 93.782 135.04 92.648 135.6L93.306 136.398C94.622 135.712 95.476 134.83 95.84 133.766C96.078 133.066 96.218 132.226 96.26 131.26H97.674V135.236C97.674 135.544 97.758 135.796 97.954 135.992C98.136 136.188 98.402 136.286 98.766 136.286H99.774C100.25 136.272 100.586 136.16 100.782 135.964C100.992 135.74 101.146 135.054 101.23 133.892L100.348 133.598C100.292 134.592 100.18 135.152 100.012 135.278C99.9 135.362 99.76 135.404 99.564 135.404H99.06C98.752 135.404 98.612 135.264 98.612 135.012V131.26H100.964V130.28H97.674V128.278H100.474V127.312H97.674V125.52H96.694ZM107.782 126.122V127.032H108.482C108.874 128.096 109.504 128.978 110.386 129.692C109.518 130.112 108.482 130.448 107.292 130.728L107.768 131.582C109.126 131.246 110.302 130.826 111.282 130.294C112.29 130.882 113.578 131.288 115.118 131.498L115.482 130.602C114.208 130.434 113.116 130.14 112.22 129.72C113.284 128.964 114.012 128.054 114.418 126.962V126.122H107.782ZM109.476 127.032H113.354C112.92 127.872 112.234 128.586 111.282 129.188C110.456 128.628 109.854 127.9 109.476 127.032ZM104.268 138.274C105.094 138.274 105.514 137.868 105.514 137.056V133.038C106.06 132.814 106.592 132.576 107.11 132.324V131.302C106.578 131.568 106.046 131.82 105.514 132.044V129.216H107.082V128.25H105.514V125.604H104.478V128.25H102.77V129.216H104.478V132.422C103.848 132.632 103.204 132.814 102.546 132.968L102.798 133.976C103.358 133.808 103.918 133.626 104.478 133.43V136.79C104.478 137.154 104.282 137.35 103.918 137.35C103.568 137.35 103.204 137.322 102.84 137.294L103.05 138.274H104.268ZM108.02 132.59V133.514H110.82V135.11H107.306V136.048H110.82V138.26H111.8V136.048H115.272V135.11H111.8V133.514H114.558V132.59H111.8V131.358H110.82V132.59H108.02ZM117.96 126.094V129.496H122.23V126.094H117.96ZM121.306 128.642H118.87V126.962H121.306V128.642ZM123.784 126.094V129.496H128.138V126.094H123.784ZM127.228 128.642H124.708V126.962H127.228V128.642ZM116.826 130.896V131.792H120.69C119.71 132.632 118.338 133.318 116.546 133.85L117.008 134.676C117.4 134.55 117.778 134.424 118.156 134.284V138.414H119.038V137.812H121.432V138.414H122.328V134.004H118.814C120.13 133.416 121.18 132.688 121.964 131.792H124.33C125.03 132.646 126.066 133.388 127.41 134.004H123.672V138.414H124.568V137.812H127.186V138.414H128.082V134.298C128.39 134.41 128.712 134.536 129.062 134.648L129.468 133.794C127.662 133.304 126.304 132.632 125.394 131.792H129.174V130.896H127.242C127.018 130.462 126.766 130.056 126.472 129.664L125.618 129.944C125.842 130.224 126.052 130.546 126.248 130.896H122.636C122.832 130.56 123.014 130.224 123.154 129.86L122.188 129.762C122.02 130.154 121.81 130.532 121.544 130.896H116.826ZM119.038 136.944V134.844H121.432V136.944H119.038ZM124.568 136.944V134.844H127.186V136.944H124.568Z" fill="#4E5969"/>
<path d="M137.008 127.004V137H140.48C142.048 137 143.252 136.538 144.092 135.628C144.89 134.76 145.296 133.542 145.296 132.002C145.296 130.434 144.918 129.216 144.176 128.376C143.364 127.452 142.174 127.004 140.592 127.004H137.008ZM138.156 127.998H140.41C141.726 127.998 142.678 128.334 143.294 129.02C143.868 129.664 144.162 130.658 144.162 132.002C144.162 133.304 143.84 134.298 143.224 134.97C142.566 135.656 141.586 136.006 140.284 136.006H138.156V127.998ZM149.903 129.566C149.035 129.566 148.349 129.734 147.817 130.07C147.229 130.434 146.851 131.008 146.697 131.764L147.803 131.848C147.915 131.386 148.153 131.036 148.531 130.812C148.867 130.588 149.301 130.49 149.833 130.49C151.093 130.49 151.723 131.092 151.723 132.31V132.688L149.987 132.716C148.895 132.73 148.055 132.94 147.467 133.332C146.795 133.752 146.473 134.368 146.473 135.194C146.473 135.782 146.697 136.272 147.145 136.65C147.579 137.014 148.153 137.196 148.881 137.196C149.553 137.196 150.155 137.042 150.687 136.748C151.135 136.496 151.513 136.174 151.793 135.782V137H152.843V132.352C152.843 131.512 152.619 130.854 152.199 130.378C151.695 129.832 150.939 129.566 149.903 129.566ZM151.723 133.528V134.144C151.723 134.704 151.457 135.208 150.939 135.642C150.407 136.09 149.805 136.314 149.119 136.314C148.671 136.314 148.307 136.202 148.027 135.992C147.747 135.768 147.621 135.502 147.621 135.166C147.621 134.116 148.433 133.584 150.057 133.556L151.723 133.528ZM156.505 127.424L155.399 127.886V129.762H153.943V130.7H155.399V135.306C155.399 135.852 155.511 136.258 155.749 136.538C156.001 136.846 156.435 137 157.023 137H158.115V136.062H157.191C156.939 136.062 156.757 135.992 156.659 135.88C156.547 135.768 156.505 135.572 156.505 135.306V130.7H158.297V129.762H156.505V127.424ZM162.532 129.566C161.482 129.566 160.656 129.944 160.04 130.7C159.424 131.414 159.13 132.31 159.13 133.374C159.13 134.55 159.438 135.474 160.082 136.174C160.698 136.846 161.538 137.196 162.574 137.196C163.512 137.196 164.282 136.916 164.884 136.384C165.374 135.936 165.696 135.376 165.864 134.676H164.744C164.562 135.18 164.324 135.558 164.016 135.81C163.652 136.104 163.162 136.258 162.574 136.258C161.888 136.258 161.342 136.034 160.95 135.586C160.558 135.138 160.348 134.508 160.292 133.696H166.004C165.976 132.436 165.696 131.442 165.164 130.742C164.576 129.958 163.694 129.566 162.532 129.566ZM162.56 130.504C163.932 130.504 164.702 131.274 164.842 132.828H160.32C160.39 132.114 160.614 131.554 161.006 131.134C161.398 130.714 161.916 130.504 162.56 130.504ZM167.455 127.004V137H168.603V132.912H171.529C173.825 132.912 174.987 131.918 174.987 129.944C174.987 127.984 173.839 127.004 171.543 127.004H167.455ZM168.603 127.998H171.473C172.271 127.998 172.859 128.152 173.251 128.488C173.643 128.782 173.839 129.272 173.839 129.944C173.839 130.616 173.643 131.106 173.265 131.428C172.873 131.75 172.285 131.918 171.473 131.918H168.603V127.998ZM177.278 135.334C177.026 135.334 176.83 135.418 176.676 135.586C176.508 135.754 176.424 135.95 176.424 136.202C176.424 136.44 176.508 136.636 176.676 136.804C176.83 136.972 177.026 137.056 177.278 137.056C177.502 137.056 177.712 136.972 177.88 136.804C178.048 136.636 178.132 136.44 178.132 136.202C178.132 135.95 178.048 135.754 177.88 135.586C177.712 135.418 177.502 135.334 177.278 135.334ZM180.969 135.334C180.717 135.334 180.521 135.418 180.367 135.586C180.199 135.754 180.115 135.95 180.115 136.202C180.115 136.44 180.199 136.636 180.367 136.804C180.521 136.972 180.717 137.056 180.969 137.056C181.193 137.056 181.403 136.972 181.571 136.804C181.739 136.636 181.823 136.44 181.823 136.202C181.823 135.95 181.739 135.754 181.571 135.586C181.403 135.418 181.193 135.334 180.969 135.334ZM184.66 135.334C184.409 135.334 184.213 135.418 184.059 135.586C183.891 135.754 183.807 135.95 183.807 136.202C183.807 136.44 183.891 136.636 184.059 136.804C184.213 136.972 184.409 137.056 184.66 137.056C184.885 137.056 185.095 136.972 185.263 136.804C185.431 136.636 185.515 136.44 185.515 136.202C185.515 135.95 185.431 135.754 185.263 135.586C185.095 135.418 184.885 135.334 184.66 135.334Z" fill="#4E5969"/>
<rect width="208" height="48" transform="translate(0 162)" fill="white"/>
<g clip-path="url(#clip5)">
<rect x="3.5" y="165.5" width="41" height="41" rx="20.5" fill="#F7F8FA"/>
<g clip-path="url(#clip6)">
<rect x="12.4375" y="176.969" width="52.8047" height="17.0625" rx="1" fill="#F7F8FA"/>
<path d="M19.3143 187.793H20.6429V188.522H17.1114V187.793H18.4314V183.533L17.3771 184.176L17 183.516L18.68 182.479H19.3143V187.793Z" fill="#4E5969"/>
<path d="M23.7681 188.59C23.0652 188.59 22.5281 188.327 22.1567 187.802C21.7909 187.276 21.6081 186.51 21.6081 185.504C21.6081 184.499 21.7909 183.733 22.1567 183.207C22.5281 182.676 23.0652 182.41 23.7681 182.41C24.4709 182.41 25.0052 182.673 25.3709 183.199C25.7424 183.724 25.9281 184.49 25.9281 185.496C25.9281 186.507 25.7424 187.276 25.3709 187.802C25.0052 188.327 24.4709 188.59 23.7681 188.59ZM23.7681 187.879C24.2081 187.879 24.5309 187.687 24.7367 187.304C24.9424 186.922 25.0452 186.319 25.0452 185.496C25.0452 184.679 24.9424 184.082 24.7367 183.704C24.5309 183.322 24.2081 183.13 23.7681 183.13C23.3281 183.13 23.0052 183.322 22.7995 183.704C22.5938 184.082 22.4909 184.679 22.4909 185.496C22.4909 186.313 22.5938 186.916 22.7995 187.304C23.0052 187.687 23.3281 187.879 23.7681 187.879Z" fill="#4E5969"/>
<path d="M26.8419 184.339H27.8619V185.359H26.8419V184.339ZM26.8419 187.502H27.8619V188.522H26.8419V187.502Z" fill="#4E5969"/>
<path d="M31.6357 187.793H32.9643V188.522H29.4329V187.793H30.7529V183.533L29.6986 184.176L29.3214 183.516L31.0014 182.479H31.6357V187.793Z" fill="#4E5969"/>
<path d="M36.0895 188.59C35.3867 188.59 34.8495 188.327 34.4781 187.802C34.1124 187.276 33.9295 186.51 33.9295 185.504C33.9295 184.499 34.1124 183.733 34.4781 183.207C34.8495 182.676 35.3867 182.41 36.0895 182.41C36.7924 182.41 37.3267 182.673 37.6924 183.199C38.0638 183.724 38.2495 184.49 38.2495 185.496C38.2495 186.507 38.0638 187.276 37.6924 187.802C37.3267 188.327 36.7924 188.59 36.0895 188.59ZM36.0895 187.879C36.5295 187.879 36.8524 187.687 37.0581 187.304C37.2638 186.922 37.3667 186.319 37.3667 185.496C37.3667 184.679 37.2638 184.082 37.0581 183.704C36.8524 183.322 36.5295 183.13 36.0895 183.13C35.6495 183.13 35.3267 183.322 35.1209 183.704C34.9152 184.082 34.8124 184.679 34.8124 185.496C34.8124 186.313 34.9152 186.916 35.1209 187.304C35.3267 187.687 35.6495 187.879 36.0895 187.879Z" fill="#4E5969"/>
<rect x="12.4375" y="176.969" width="52.8047" height="17.0625" rx="1" stroke="#4E5969" stroke-width="2"/>
</g>
</g>
<rect x="3.5" y="165.5" width="41" height="41" rx="20.5" stroke="white"/>
<path d="M65.18 180.612H61.148V191.266H62.128V189.992H64.2V190.93H65.18V180.612ZM62.128 189.054V185.68H64.2V189.054H62.128ZM62.128 184.742V181.536H64.2V184.742H62.128ZM67.196 184.784L66.37 185.302C67.21 186.59 67.868 187.766 68.358 188.816L69.198 188.228C68.736 187.248 68.064 186.1 67.196 184.784ZM70.388 192.26C71.256 192.26 71.69 191.812 71.69 190.93V183.104H73.412V182.138H71.69V179.674H70.668V182.138H65.824V183.104H70.668V190.678C70.668 191.112 70.458 191.336 70.052 191.336C69.31 191.336 68.54 191.308 67.728 191.28L67.938 192.26H70.388ZM78.284 183.356V189.88H83.604V183.356H78.284ZM82.666 188.984H79.236V187.066H82.666V188.984ZM79.236 186.17V184.252H82.666V186.17H79.236ZM85.172 192.288C86.11 192.288 86.586 191.784 86.586 190.804V180.262H80.174V181.2H85.606V190.524C85.606 191.084 85.382 191.378 84.962 191.378L83.744 191.35L83.996 192.288H85.172ZM75.386 181.886V192.414H76.366V181.886H75.386ZM77.416 179.436L76.492 179.842C77.122 180.598 77.696 181.466 78.228 182.446L79.124 181.97C78.634 181.046 78.06 180.206 77.416 179.436ZM89.764 179.786L89.078 180.444C90.072 181.228 90.856 181.97 91.43 182.67L92.13 181.97C91.486 181.242 90.702 180.514 89.764 179.786ZM97.898 192.148H101.146L101.398 191.14C101.02 191.168 100.488 191.182 99.816 191.196C99.116 191.21 98.43 191.224 97.758 191.224C96.666 191.224 95.742 191.21 95.014 191.196C94.174 191.168 93.544 191.056 93.11 190.86C92.718 190.678 92.354 190.384 92.018 189.978C91.906 189.852 91.794 189.74 91.682 189.656V184.42H88.756V185.344H90.744V189.6C90.156 189.852 89.498 190.58 88.742 191.77L89.498 192.456C90.282 191.14 90.842 190.496 91.192 190.496C91.36 190.496 91.542 190.608 91.738 190.846C92.172 191.35 92.662 191.7 93.208 191.868C93.768 192.022 94.51 192.106 95.406 192.12C96.302 192.134 97.142 192.148 97.898 192.148ZM96.694 179.52V181.312H94.846C95.014 180.864 95.168 180.402 95.308 179.912L94.342 179.716C94.006 180.976 93.46 182.138 92.704 183.188L93.586 183.734C93.894 183.286 94.174 182.81 94.426 182.278H96.694V184.28H93.054V185.26H95.308C95.266 186.128 95.126 186.884 94.888 187.5C94.524 188.34 93.782 189.04 92.648 189.6L93.306 190.398C94.622 189.712 95.476 188.83 95.84 187.766C96.078 187.066 96.218 186.226 96.26 185.26H97.674V189.236C97.674 189.544 97.758 189.796 97.954 189.992C98.136 190.188 98.402 190.286 98.766 190.286H99.774C100.25 190.272 100.586 190.16 100.782 189.964C100.992 189.74 101.146 189.054 101.23 187.892L100.348 187.598C100.292 188.592 100.18 189.152 100.012 189.278C99.9 189.362 99.76 189.404 99.564 189.404H99.06C98.752 189.404 98.612 189.264 98.612 189.012V185.26H100.964V184.28H97.674V182.278H100.474V181.312H97.674V179.52H96.694ZM107.782 180.122V181.032H108.482C108.874 182.096 109.504 182.978 110.386 183.692C109.518 184.112 108.482 184.448 107.292 184.728L107.768 185.582C109.126 185.246 110.302 184.826 111.282 184.294C112.29 184.882 113.578 185.288 115.118 185.498L115.482 184.602C114.208 184.434 113.116 184.14 112.22 183.72C113.284 182.964 114.012 182.054 114.418 180.962V180.122H107.782ZM109.476 181.032H113.354C112.92 181.872 112.234 182.586 111.282 183.188C110.456 182.628 109.854 181.9 109.476 181.032ZM104.268 192.274C105.094 192.274 105.514 191.868 105.514 191.056V187.038C106.06 186.814 106.592 186.576 107.11 186.324V185.302C106.578 185.568 106.046 185.82 105.514 186.044V183.216H107.082V182.25H105.514V179.604H104.478V182.25H102.77V183.216H104.478V186.422C103.848 186.632 103.204 186.814 102.546 186.968L102.798 187.976C103.358 187.808 103.918 187.626 104.478 187.43V190.79C104.478 191.154 104.282 191.35 103.918 191.35C103.568 191.35 103.204 191.322 102.84 191.294L103.05 192.274H104.268ZM108.02 186.59V187.514H110.82V189.11H107.306V190.048H110.82V192.26H111.8V190.048H115.272V189.11H111.8V187.514H114.558V186.59H111.8V185.358H110.82V186.59H108.02ZM117.96 180.094V183.496H122.23V180.094H117.96ZM121.306 182.642H118.87V180.962H121.306V182.642ZM123.784 180.094V183.496H128.138V180.094H123.784ZM127.228 182.642H124.708V180.962H127.228V182.642ZM116.826 184.896V185.792H120.69C119.71 186.632 118.338 187.318 116.546 187.85L117.008 188.676C117.4 188.55 117.778 188.424 118.156 188.284V192.414H119.038V191.812H121.432V192.414H122.328V188.004H118.814C120.13 187.416 121.18 186.688 121.964 185.792H124.33C125.03 186.646 126.066 187.388 127.41 188.004H123.672V192.414H124.568V191.812H127.186V192.414H128.082V188.298C128.39 188.41 128.712 188.536 129.062 188.648L129.468 187.794C127.662 187.304 126.304 186.632 125.394 185.792H129.174V184.896H127.242C127.018 184.462 126.766 184.056 126.472 183.664L125.618 183.944C125.842 184.224 126.052 184.546 126.248 184.896H122.636C122.832 184.56 123.014 184.224 123.154 183.86L122.188 183.762C122.02 184.154 121.81 184.532 121.544 184.896H116.826ZM119.038 190.944V188.844H121.432V190.944H119.038ZM124.568 190.944V188.844H127.186V190.944H124.568Z" fill="#4E5969"/>
<path d="M136.238 181.004V181.998H139.766V191H140.9V181.998H144.428V181.004H136.238ZM146.46 181.032C146.222 181.032 146.026 181.102 145.858 181.27C145.69 181.41 145.62 181.606 145.62 181.858C145.62 182.096 145.69 182.292 145.858 182.46C146.026 182.614 146.222 182.698 146.46 182.698C146.698 182.698 146.894 182.614 147.062 182.46C147.23 182.292 147.314 182.096 147.314 181.858C147.314 181.606 147.23 181.41 147.062 181.27C146.894 181.102 146.698 181.032 146.46 181.032ZM145.9 183.762V191H147.02V183.762H145.9ZM152.282 183.566C151.47 183.566 150.784 183.944 150.238 184.728V183.762H149.118V191H150.238V186.59C150.238 186.016 150.406 185.526 150.742 185.134C151.078 184.714 151.498 184.518 152.016 184.518C153.122 184.518 153.682 185.148 153.682 186.436V191H154.802V186.464C154.802 185.876 154.956 185.414 155.292 185.05C155.6 184.686 156.006 184.518 156.482 184.518C157.098 184.518 157.546 184.672 157.826 185.008C158.092 185.316 158.232 185.792 158.232 186.436V191H159.352V186.254C159.352 185.428 159.114 184.77 158.666 184.28C158.19 183.804 157.588 183.566 156.832 183.566C156.328 183.566 155.908 183.678 155.558 183.902C155.166 184.112 154.83 184.462 154.55 184.938C154.144 184.014 153.388 183.566 152.282 183.566ZM164.077 183.566C163.027 183.566 162.201 183.944 161.585 184.7C160.969 185.414 160.675 186.31 160.675 187.374C160.675 188.55 160.983 189.474 161.627 190.174C162.243 190.846 163.083 191.196 164.119 191.196C165.057 191.196 165.827 190.916 166.429 190.384C166.919 189.936 167.241 189.376 167.409 188.676H166.289C166.107 189.18 165.869 189.558 165.561 189.81C165.197 190.104 164.707 190.258 164.119 190.258C163.433 190.258 162.887 190.034 162.495 189.586C162.103 189.138 161.893 188.508 161.837 187.696H167.549C167.521 186.436 167.241 185.442 166.709 184.742C166.121 183.958 165.239 183.566 164.077 183.566ZM164.105 184.504C165.477 184.504 166.247 185.274 166.387 186.828H161.865C161.935 186.114 162.159 185.554 162.551 185.134C162.943 184.714 163.461 184.504 164.105 184.504ZM169 181.004V191H170.148V186.912H173.074C175.37 186.912 176.532 185.918 176.532 183.944C176.532 181.984 175.384 181.004 173.088 181.004H169ZM170.148 181.998H173.018C173.816 181.998 174.404 182.152 174.796 182.488C175.188 182.782 175.384 183.272 175.384 183.944C175.384 184.616 175.188 185.106 174.81 185.428C174.418 185.75 173.83 185.918 173.018 185.918H170.148V181.998ZM178.823 189.334C178.571 189.334 178.375 189.418 178.221 189.586C178.053 189.754 177.969 189.95 177.969 190.202C177.969 190.44 178.053 190.636 178.221 190.804C178.375 190.972 178.571 191.056 178.823 191.056C179.047 191.056 179.257 190.972 179.425 190.804C179.593 190.636 179.677 190.44 179.677 190.202C179.677 189.95 179.593 189.754 179.425 189.586C179.257 189.418 179.047 189.334 178.823 189.334ZM182.514 189.334C182.262 189.334 182.066 189.418 181.912 189.586C181.744 189.754 181.66 189.95 181.66 190.202C181.66 190.44 181.744 190.636 181.912 190.804C182.066 190.972 182.262 191.056 182.514 191.056C182.738 191.056 182.948 190.972 183.116 190.804C183.284 190.636 183.368 190.44 183.368 190.202C183.368 189.95 183.284 189.754 183.116 189.586C182.948 189.418 182.738 189.334 182.514 189.334ZM186.205 189.334C185.953 189.334 185.757 189.418 185.603 189.586C185.435 189.754 185.351 189.95 185.351 190.202C185.351 190.44 185.435 190.636 185.603 190.804C185.757 190.972 185.953 191.056 186.205 191.056C186.429 191.056 186.639 190.972 186.807 190.804C186.975 190.636 187.059 190.44 187.059 190.202C187.059 189.95 186.975 189.754 186.807 189.586C186.639 189.418 186.429 189.334 186.205 189.334Z" fill="#4E5969"/>
<rect width="208" height="48" transform="translate(0 216)" fill="white"/>
<g clip-path="url(#clip7)">
<rect x="3.5" y="219.5" width="41" height="41" rx="20.5" fill="#F7F8FA"/>
<rect x="13.7069" y="227.634" width="41.8572" height="5.34207" rx="0.769397" fill="#F7F8FA" stroke="#4E5969" stroke-width="1.53879"/>
<rect x="13.7069" y="238.515" width="41.8572" height="5.34207" rx="0.769397" fill="#F7F8FA" stroke="#4E5969" stroke-width="1.53879"/>
<rect x="12.9375" y="248.626" width="13.8867" height="5.56641" rx="0.5" fill="#4E5969"/>
</g>
<rect x="3.5" y="219.5" width="41" height="41" rx="20.5" stroke="white"/>
<path d="M61.456 234.78V235.704H66.482V237.034H62.268V237.958H66.482V239.288H60.966V240.198H65.46C64.424 241.416 62.8 242.41 60.56 243.194L61.092 244.062C62.044 243.684 62.884 243.264 63.64 242.802V245C63.64 245.224 63.486 245.392 63.192 245.504L63.528 246.372C65.026 246.008 66.496 245.532 67.952 244.944L67.756 244.006C66.72 244.426 65.684 244.804 64.634 245.112V242.13C65.404 241.542 66.034 240.898 66.524 240.198H67.014C68.19 243.236 70.094 245.28 72.698 246.33L73.23 245.448C71.928 244.958 70.808 244.216 69.884 243.236C70.78 242.844 71.578 242.284 72.292 241.57L71.592 240.898C70.864 241.668 70.108 242.228 69.324 242.592C68.778 241.892 68.316 241.094 67.938 240.198H73.034V239.288H67.518V237.958H71.732V237.034H67.518V235.704H72.544V234.78H67.518V233.59H66.482V234.78H61.456ZM76.114 235.746V241.5H80.496V242.83H74.784V243.782H80.496V246.442H81.504V243.782H87.216V242.83H81.504V241.5H85.886V235.746H83.198C83.618 235.172 83.996 234.528 84.332 233.814L83.352 233.464C83.002 234.276 82.596 235.046 82.148 235.746H76.114ZM84.906 240.604H81.504V239.036H84.906V240.604ZM80.496 240.604H77.094V239.036H80.496V240.604ZM77.094 238.168V236.628H80.496V238.168H77.094ZM81.504 236.628H84.906V238.168H81.504V236.628ZM78.592 233.534L77.738 233.94C78.214 234.472 78.648 235.06 79.068 235.732L79.908 235.312C79.488 234.668 79.054 234.066 78.592 233.534Z" fill="#4E5969"/>
<path d="M95.008 235.004V245H96.156V240.352H101.406V239.358H96.156V235.998H101.7V235.004H95.008ZM106.182 237.566C105.09 237.566 104.236 237.93 103.592 238.686C102.976 239.4 102.668 240.296 102.668 241.388C102.668 242.466 102.976 243.362 103.592 244.062C104.236 244.818 105.09 245.196 106.182 245.196C107.26 245.196 108.128 244.818 108.786 244.062C109.388 243.362 109.696 242.466 109.696 241.388C109.696 240.296 109.388 239.4 108.772 238.686C108.128 237.93 107.26 237.566 106.182 237.566ZM106.182 238.504C106.938 238.504 107.54 238.798 107.988 239.386C108.366 239.918 108.562 240.576 108.562 241.388C108.562 242.172 108.366 242.844 107.988 243.376C107.54 243.964 106.938 244.258 106.182 244.258C105.412 244.258 104.81 243.964 104.39 243.376C103.998 242.844 103.816 242.186 103.816 241.388C103.816 240.576 103.998 239.918 104.39 239.386C104.81 238.798 105.412 238.504 106.182 238.504ZM114.329 237.566C113.825 237.566 113.391 237.72 113.013 238.028C112.705 238.266 112.453 238.602 112.257 239.022V237.762H111.151V245H112.257V241.164C112.257 240.492 112.439 239.918 112.831 239.442C113.209 238.938 113.685 238.7 114.245 238.7C114.595 238.7 114.959 238.742 115.323 238.854V237.734C115.057 237.622 114.721 237.566 114.329 237.566ZM119.428 237.566C118.616 237.566 117.93 237.944 117.384 238.728V237.762H116.264V245H117.384V240.59C117.384 240.016 117.552 239.526 117.888 239.134C118.224 238.714 118.644 238.518 119.162 238.518C120.268 238.518 120.828 239.148 120.828 240.436V245H121.948V240.464C121.948 239.876 122.102 239.414 122.438 239.05C122.746 238.686 123.152 238.518 123.628 238.518C124.244 238.518 124.692 238.672 124.972 239.008C125.238 239.316 125.378 239.792 125.378 240.436V245H126.498V240.254C126.498 239.428 126.26 238.77 125.812 238.28C125.336 237.804 124.734 237.566 123.978 237.566C123.474 237.566 123.054 237.678 122.704 237.902C122.312 238.112 121.976 238.462 121.696 238.938C121.29 238.014 120.534 237.566 119.428 237.566Z" fill="#4E5969"/>
<defs>
<clipPath id="clip0">
</clipPath>
<clipPath id="clip1">
<rect width="61" height="61" fill="white" transform="translate(-1 -7)"/>
</clipPath>
<clipPath id="clip2">
</clipPath>
<clipPath id="clip3">
</clipPath>
<clipPath id="clip4">
<rect width="61" height="61" fill="white" transform="translate(-1 101)"/>
</clipPath>
<clipPath id="clip5">
</clipPath>
<clipPath id="clip6">
<rect width="61" height="61" fill="white" transform="translate(-1 155)"/>
</clipPath>
<clipPath id="clip7">
</clipPath>
</defs>
</svg>
